<?xml version="1.0"?>
<svg width="24" height="24" xmlns="http://www.w3.org/2000/svg" xmlns:svg="http://www.w3.org/2000/svg" enable-background="new 0 0 24 24" version="1.1" xml:space="preserve">
 <g class="layer">
  <title>Layer 1</title>
  <g fill-opacity="0.6" id="svg_1">
   <path clip-rule="evenodd" d="m12,0.3c-6.63,0 -12,5.37 -12,12c0,5.3 3.44,9.8 8.21,11.38c0.6,0.11 0.82,-0.26 0.82,-0.57c0,-0.29 -0.01,-1.24 -0.02,-2.24c-3.34,0.73 -4.04,-1.41 -4.04,-1.41c-0.55,-1.39 -1.34,-1.76 -1.34,-1.76c-1.08,-0.75 0.09,-0.73 0.09,-0.73c1.2,0.09 1.84,1.24 1.84,1.24c1.07,1.83 2.8,1.3 3.49,0.99c0.11,-0.77 0.42,-1.3 0.76,-1.6c-2.66,-0.3 -5.47,-1.33 -5.47,-5.93c0,-1.31 0.47,-2.38 1.24,-3.22c-0.12,-0.3 -0.54,-1.52 0.12,-3.18c0,0 1,-0.32 3.3,1.23c0.95,-0.26 1.98,-0.4 3,-0.4c1.02,0 2.05,0.14 3.01,0.4c2.29,-1.55 3.29,-1.23 3.29,-1.23c0.66,1.66 0.25,2.88 0.12,3.18c0.77,0.84 1.24,1.91 1.24,3.22c0,4.61 -2.81,5.62 -5.48,5.92c0.43,0.37 0.81,1.1 0.81,2.22c0,1.61 -0.01,2.9 -0.01,3.3c0,0.32 0.21,0.69 0.82,0.57c4.77,-1.59 8.2,-6.08 8.2,-11.38c0,-6.63 -5.37,-12 -12,-12z" fill="#ffffff" fill-rule="evenodd" id="svg_2"/>
   <path d="m4.54,17.53c-0.02,0.06 -0.12,0.07 -0.2,0.03c-0.09,-0.04 -0.14,-0.12 -0.11,-0.18c0.03,-0.06 0.12,-0.08 0.21,-0.03c0.09,0.03 0.14,0.12 0.1,0.18l0,0z" fill="#ffffff" id="svg_3"/>
   <path d="m5.03,18.07c-0.06,0.05 -0.17,0.03 -0.24,-0.06c-0.08,-0.08 -0.1,-0.19 -0.04,-0.25c0.06,-0.05 0.17,-0.02 0.25,0.06c0.08,0.08 0.09,0.19 0.03,0.25l0,0z" fill="#ffffff" id="svg_4"/>
   <path d="m5.5,18.76c-0.07,0.05 -0.19,0 -0.26,-0.1c-0.08,-0.11 -0.08,-0.24 0,-0.29c0.07,-0.05 0.19,-0.01 0.27,0.1c0.07,0.11 0.07,0.24 -0.01,0.29l0,0z" fill="#ffffff" id="svg_5"/>
   <path d="m6.15,19.43c-0.06,0.07 -0.2,0.05 -0.31,-0.05c-0.1,-0.1 -0.13,-0.23 -0.06,-0.31c0.06,-0.07 0.2,-0.05 0.31,0.05c0.1,0.1 0.13,0.24 0.06,0.31l0,0z" fill="#ffffff" id="svg_6"/>
   <path d="m7.05,19.81c-0.03,0.1 -0.17,0.14 -0.3,0.1c-0.14,-0.04 -0.23,-0.15 -0.2,-0.25c0.03,-0.09 0.16,-0.13 0.3,-0.09c0.14,0.04 0.23,0.15 0.2,0.24l0,0z" fill="#ffffff" id="svg_7"/>
   <path d="m8.03,19.89c0,0.09 -0.11,0.18 -0.26,0.18c-0.14,0 -0.26,-0.08 -0.26,-0.18c0,-0.1 0.12,-0.18 0.26,-0.18c0.14,0 0.26,0.08 0.26,0.18l0,0z" fill="#ffffff" id="svg_8"/>
   <path d="m8.94,19.73c0.02,0.1 -0.08,0.2 -0.22,0.22c-0.14,0.03 -0.27,-0.03 -0.29,-0.13c-0.01,-0.1 0.09,-0.19 0.23,-0.22c0.14,-0.03 0.27,0.03 0.28,0.13l0,0z" fill="#ffffff" id="svg_9"/>
  </g>
 </g>
</svg>