<?xml version="1.0"?>
<svg width="500" height="500" xmlns="http://www.w3.org/2000/svg" xmlns:svg="http://www.w3.org/2000/svg">
 <g class="layer">
  <title>Layer 1</title>
  <g id="svg_184">
   <g id="freepik--Icons--inject-243">
    <path d="m370.28,43.98s-4.87,38.98 -12.88,47.76c-9.61,10.52 -16.59,8.98 -20.46,14.41l0,0c-3.89,-5.44 -10.85,-3.89 -20.47,-14.42c-8,-8.77 -12.85,-47.75 -12.85,-47.75c21.09,-10.24 33.34,-21.72 33.34,-21.72l0,0c0.37,0.37 12.56,11.63 33.33,21.72z" fill="#407BFF" id="svg_136"/>
    <path d="m336.95,22.28l0,83.87l0,0c-3.89,-5.44 -10.85,-3.89 -20.47,-14.42c-8,-8.77 -12.85,-47.75 -12.85,-47.75c21.09,-10.24 33.34,-21.72 33.34,-21.72l-0.01,0.01z" id="svg_137" opacity="0.2"/>
    <path d="m370.28,43.98s-4.87,38.98 -12.88,47.76c-9.61,10.52 -16.59,8.98 -20.46,14.41l0,-83.87c0.38,0.36 12.57,11.62 33.34,21.7z" id="svg_138" opacity="0.1"/>
    <path d="m365.11,47.12s-4.11,32.94 -10.88,40.34c-8.12,8.91 -14.02,7.59 -17.29,12.18c-3.28,-4.58 -9.17,-3.27 -17.3,-12.18c-6.76,-7.4 -10.86,-40.34 -10.86,-40.34c17.77,-8.65 28.16,-18.34 28.16,-18.34s10.34,9.71 28.16,18.34z" fill="#407BFF" id="svg_139"/>
    <path d="m336.95,28.79l0,70.85l0,0c-3.27,-4.58 -9.17,-3.28 -17.29,-12.18c-6.76,-7.42 -10.86,-40.35 -10.86,-40.35c17.77,-8.65 28.15,-18.34 28.15,-18.34l0,0.02z" id="svg_140" opacity="0.1"/>
    <rect fill="#fff" height="22.89" id="svg_141" width="25.23" x="324.33" y="57.94"/>
    <path d="m347.04,65.01l-2.57,0l0,-10.22a7.52,7.52 0 0 0 -15.05,0l0,10.22l-2.57,0l0,-10.22a10.09,10.09 0 1 1 20.14,0l0.05,10.22z" fill="#fff" id="svg_142"/>
    <path d="m337.74,69.77l0.82,3.86l-3.46,0l0.82,-3.86a1.73,1.73 0 1 1 1.82,0z" fill="#37474f" id="svg_143"/>
    <path d="m337.38,198.15l-5.05,0l0,-0.9l4.61,0l0,0.31l0.44,0l0,0.59zm-9.79,0l-4.74,0l0,-0.9l4.74,0l0,0.9zm-9.48,0l-4.74,0l0,-0.9l4.74,0l0,0.9zm-9.48,0l-4.74,0l0,-0.9l4.74,0l0,0.9zm28.74,-5.32l-0.89,0l0,-4.74l0.89,0l0,4.74zm0,-9.48l-0.89,0l0,-4.74l0.89,0l0,4.74zm0,-9.48l-0.89,0l0,-4.74l0.89,0l0,4.74zm0,-9.48l-0.89,0l0,-4.74l0.89,0l0,4.74zm0,-9.48l-0.89,0l0,-4.74l0.89,0l0,4.74zm0,-9.48l-0.89,0l0,-4.74l0.89,0l0,4.74zm0,-9.48l-0.89,0l0,-4.74l0.89,0l0,4.74zm0,-9.48l-0.89,0l0,-4.74l0.89,0l0,4.74zm0,-9.48l-0.89,0l0,-4.74l0.89,0l0,4.74z" fill="#407BFF" id="svg_144"/>
    <path d="m338.95,111.3a2,2 0 1 0 -2,2a2,2 0 0 0 2,-2z" fill="#407BFF" id="svg_145"/>
    <path d="m125.87,95.5l2.78,-0.04l0.01,0.84l-2.78,0.04l-0.01,-0.84zm7.52,-0.1l4.74,-0.06l0.01,0.84l-4.74,0.06l-0.01,-0.84zm9.48,-0.13l4.74,-0.06l0.01,0.84l-4.74,0.06l-0.01,-0.84zm9.48,-0.13l4.74,-0.06l0.01,0.84l-4.74,0.06l-0.01,-0.84zm7.61,1.8l0.84,-0.01l0.06,4.74l-0.89,0.01l-0.02,-4.74zm0.13,9.48l0.84,-0.01l0.06,4.74l-0.89,0.01l-0.02,-4.74zm0.13,9.48l0.84,-0.01l0.06,4.74l-0.89,0.01l-0.02,-4.74zm0.13,9.48l0.84,-0.01l0.06,4.74l-0.89,0.01l-0.02,-4.74zm0.13,9.48l0.84,-0.01l0.06,4.74l-0.89,0.01l-0.02,-4.74zm0.13,9.48l0.84,-0.01l0.06,4.74l-0.89,0.01l-0.02,-4.74zm0.13,9.48l0.84,-0.01l0.06,4.74l-0.89,0.01l-0.02,-4.74z" fill="#407BFF" id="svg_166"/>
    <circle cx="67.08" cy="79.33" fill="#407BFF" id="svg_167" r="2"/>
    <rect fill="#455a64" height="45.68" id="svg_168" width="75.7" x="60.08" y="61.34"/>
    <rect fill="#fff" height="27.06" id="svg_169" width="21.16" x="66.03" y="67.08"/>
    <circle cx="76.61" cy="77.91" fill="#455a64" id="svg_170" r="5.01"/>
    <path d="m87.19,94.14l-21.16,0s0.58,-5.05 1.61,-6.55s3.76,-3.2 8.97,-3.2s7.94,1.69 8.97,3.2s1.61,6.55 1.61,6.55z" fill="#455a64" id="svg_171"/>
    <rect fill="#fff" height="1.32" id="svg_172" width="34.83" x="92.66" y="67.08"/>
    <rect fill="#fff" height="1.32" id="svg_173" width="34.83" x="92.66" y="79.95"/>
    <rect fill="#fff" height="1.32" id="svg_174" width="34.83" x="92.66" y="83.74"/>
    <rect fill="#fff" height="1.32" id="svg_175" width="34.83" x="92.66" y="87.52"/>
    <rect fill="#fff" height="1.32" id="svg_177" width="34.83" x="92.66" y="95.09"/>
    <rect fill="#fff" height="1.32" id="svg_178" width="28.21" x="92.66" y="70.87"/>
    <rect fill="#fff" height="9.6" id="svg_180" width="10.57" x="130.5" y="104.33"/>
    <path d="m140.02,107.28l-1.08,0l0,-4.28a3.15,3.15 0 0 0 -6.3,0l0,4.28l-1.08,0l0,-4.28a4.23,4.23 0 0 1 8.46,0l0,4.28z" fill="#fff" id="svg_181"/>
    <path d="m136.24,109.24l0.44,2.11l-1.88,0l0.45,-2.11a0.94,0.94 0 1 1 1.43,-0.79a0.94,0.94 0 0 1 -0.44,0.79z" fill="#263238" id="svg_182"/>
    <circle cx="254.11" cy="127.21" fill="#263238" id="svg_179" r="9" transform="matrix(1.09353 -0.5002 0.455863 1.19988 -212.084 107.609)"/>
    <rect fill="#fff" height="1.32" id="svg_176" width="34.83" x="92.66" y="91.31"/>
   </g>
   <g id="freepik--Character--inject-243">
    <path d="m157.22,498.57l137.99,0c1.14,-4.48 2.23,-8.82 3.33,-13.12q1.88,-7.47 3.69,-14.48c0.25,-1.05 0.54,-2.09 0.81,-3.12c0.91,-3.6 1.79,-7.11 2.67,-10.46c0.52,-2.09 1.05,-4.14 1.49,-6.16s1.05,-4.09 1.49,-6.07c0.13,-0.52 0.27,-1.06 0.4,-1.49s0.28,-1.15 0.42,-1.7l0.52,-2.05l0,0c0.19,-0.72 0.37,-1.42 0.54,-2.12c0.36,-1.33 0.69,-2.63 1,-3.92c0.49,-1.88 0.96,-3.74 1.42,-5.54c0.19,-0.78 0.4,-1.57 0.6,-2.33c0.33,-1.27 0.64,-2.5 0.94,-3.69c0.21,-0.81 0.4,-1.6 0.6,-2.36c0.82,-3.17 1.57,-6.14 2.27,-8.97c0.19,-0.73 0.36,-1.49 0.55,-2.15c0.3,-1.21 0.6,-2.36 0.88,-3.48c0.19,-0.7 0.36,-1.37 0.52,-2.05c0.61,-2.38 1.17,-4.48 1.64,-6.44c0.13,-0.51 0.25,-1 0.39,-1.49l0.85,-3.38c0.1,-0.39 0.19,-0.78 0.3,-1.14s0.19,-0.76 0.27,-1.09s0.13,-0.49 0.18,-0.7s0.18,-0.67 0.25,-0.94a2.44,2.44 0 0 1 0.1,-0.42l0.31,-1.26l-134.13,0s-4.48,15.26 -11.51,39.84c-1.49,5.01 -2.99,10.46 -4.65,16.14c-4.77,16.24 -10.25,35.37 -16.17,56.14z" fill="#37474f" id="svg_79"/>
    <path d="m272.61,498.57l3.44,0q7.67,-31.71 14.85,-63.52q1.73,-7.74 3.42,-15.5l0.31,-1.49a0.21,0.21 0 0 0 -0.4,-0.1l-0.13,0.48q-2.33,8.31 -4.63,16.66c-5.78,21.07 -11.4,42.23 -16.86,63.48z" fill="#263238" id="svg_80"/>
    <path d="m193.83,386.31l5.98,29.68l4.81,24.3l8.28,41.47l0.85,4.26l1.42,7.08l1.06,5.36l78.99,0c1.12,-4.48 2.23,-8.83 3.32,-13.12q1.88,-7.47 3.69,-14.48c0.25,-1.05 0.54,-2.09 0.81,-3.12c0.91,-3.6 1.79,-7.11 2.67,-10.46c0.52,-2.09 1.05,-4.14 1.49,-6.16s1.05,-4.09 1.49,-6.07c0.13,-0.52 0.27,-1.06 0.4,-1.49s0.28,-1.15 0.42,-1.7l0.52,-2.05l0,0c0.19,-0.72 0.37,-1.42 0.54,-2.12c0.36,-1.33 0.69,-2.63 1,-3.92c0.49,-1.88 0.96,-3.74 1.42,-5.54c0.21,-0.79 0.4,-1.57 0.6,-2.33c0.33,-1.27 0.64,-2.5 0.94,-3.69c0.21,-0.81 0.4,-1.6 0.6,-2.36c0.82,-3.17 1.57,-6.14 2.27,-8.97c0.19,-0.73 0.36,-1.49 0.55,-2.15c0.3,-1.21 0.6,-2.36 0.88,-3.48c0.19,-0.7 0.36,-1.37 0.52,-2.05c0.61,-2.38 1.17,-4.48 1.64,-6.44c0.13,-0.51 0.25,-1 0.39,-1.49l0.85,-3.38c0.1,-0.39 0.19,-0.78 0.3,-1.14s0.19,-0.76 0.27,-1.09s0.13,-0.49 0.18,-0.7s0.18,-0.67 0.25,-0.94a2.44,2.44 0 0 1 0.1,-0.42l0.31,-1.26l-129.84,-0.03z" fill="#263238" id="svg_81"/>
    <path d="m193.81,386.27l0,0c0,0.75 0.57,8.76 1.85,20.92c0.37,3.57 0.81,7.47 1.32,11.69c0.79,6.63 1.76,13.94 2.99,21.67c2.06,13.45 4.75,28.18 8.25,42.56c1.24,5.17 2.62,10.3 4.06,15.32l173.34,0c-2.05,-26.42 -3.92,-50.31 -5.39,-69.14c-2.09,-26.51 -3.41,-43.11 -3.41,-43.11l-157.26,0l-25.75,0.1z" fill="#37474f" id="svg_82"/>
    <path d="m194.19,402.2c0.19,6.2 0.45,12.4 0.85,18.57c0.42,6.69 1.03,13.37 1.91,20.05a6.52,6.52 0 0 0 0.09,0.73q1.24,9.38 2.81,18.72c1,5.8 1.73,12.06 4.3,17.44a17.27,17.27 0 0 0 4.05,5.47a12.13,12.13 0 0 0 5.54,2.87a5.98,5.98 0 0 0 1.03,0.16c0.09,0 0.19,0 0.3,0a0.36,0.36 0 0 0 -0.19,0.36c0.07,2.08 0,4.2 0.25,6.26c0,0.09 0,0.18 0,0.27c0.21,1.79 0.54,3.57 0.87,5.36l2.99,0s0,0 0,-0.1c-0.52,-1.96 -0.96,-3.93 -1.49,-5.98s-1.2,-3.97 -1.66,-5.98a0.33,0.33 0 0 0 -0.15,-0.19a9.24,9.24 0 0 0 8.97,-5.62a16,16 0 0 0 0.15,-8.14l-1.61,-10.65c-1.02,-6.52 -2.32,-12.97 -3.48,-19.43c-0.16,-0.99 -0.34,-1.97 -0.52,-2.99c-2.32,-13.2 -4.75,-26.41 -7.67,-39.48c-0.1,-0.54 -0.24,-1.08 -0.36,-1.63s-0.66,-0.25 -0.63,0.09c0.09,0.88 0.18,1.76 0.28,2.64c0.51,5.02 1.11,10.01 1.79,14.94c0.84,5.86 1.42,11.75 2.24,17.6l0.85,5.98c1.34,9.64 2.75,19.28 4.39,28.87c0.78,4.48 3.56,12.45 -2.87,13.84a6.49,6.49 0 0 1 -4.35,-0.55a13.6,13.6 0 0 1 -5.98,-7.47c-1.82,-5.11 -2.47,-10.73 -3.41,-16.05q-1.6,-8.8 -2.81,-17.65l0,0c-1.05,-7.35 -2.12,-14.7 -3.29,-22.04c-0.57,-3.75 -1.17,-7.47 -1.76,-11.24c-0.27,-1.72 -0.55,-3.45 -0.84,-5.19c-0.04,-0.34 -0.61,-0.24 -0.61,0.13z" fill="#263238" id="svg_83"/>
    <path d="m347.6,448.28a87.54,87.54 0 0 1 -21.38,-2.87c-3.23,-0.84 -6.41,-1.87 -9.56,-2.9a25.13,25.13 0 0 1 -8.64,-4.33c-4.86,-4.2 -7.13,-10.8 -9.24,-16.66a160.79,160.79 0 0 1 -5.6,-20.22c-0.07,-0.34 -0.57,-0.24 -0.58,0.09a79.05,79.05 0 0 0 2.99,22.97c1.75,6.34 4.09,13.45 9.22,17.93c5.38,4.66 12.7,6.31 19.59,7.16a90.18,90.18 0 0 0 23.31,-0.31a0.39,0.39 0 0 0 -0.1,-0.85z" fill="#263238" id="svg_84"/>
    <path d="m359.61,401.44q0.58,14.57 1.23,29.14q1.49,33.94 3.27,67.87l3.26,0q-2.24,-34.03 -4.71,-67.98q-1.08,-14.55 -2.21,-29.05a0.42,0.42 0 0 0 -0.84,0.01z" fill="#263238" id="svg_85"/>
    <path d="m213.06,186.49c-68.29,61.55 -131.61,128.96 -136.57,163.36c-6.86,47.64 22.42,60.86 35.57,60.98c35.74,0.36 100.7,-144.5 123.3,-199.81c21.94,-53.71 -7.29,-38.06 -22.3,-24.54z" fill="#d3766a" id="svg_86"/>
    <path d="m109.98,285l75.94,41.27s47.21,-87.21 58.09,-127.63s-5.36,-39.29 -41.02,-7.82s-93.01,94.17 -93.01,94.17z" fill="#c7c7c7" id="svg_87"/>
    <path d="m109.98,285l75.94,41.27s47.21,-87.21 58.09,-127.63s-5.36,-39.29 -41.02,-7.82s-93.01,94.17 -93.01,94.17z" fill="#407BFF" id="svg_88"/>
    <path d="m244.01,198.62c-10.88,40.44 -58.1,127.66 -58.1,127.66l-69.14,-37.6l127.35,-119.7c4.24,3.26 4.42,12.87 -0.1,29.63z" id="svg_89" opacity="0.1"/>
    <path d="m125.61,273.36c29.27,19.81 57.65,32.68 63.35,35.95c0.27,0.16 0.49,-0.28 0.21,-0.43c-5.75,-2.91 -36.91,-22.31 -63.33,-36c-0.3,-0.16 -0.55,0.28 -0.22,0.48z" fill="#263238" id="svg_90"/>
    <path d="m168.8,440.16l222.37,0.64s-19.43,-167.37 -101.05,-266.16c-18.89,-22.88 -49.31,-10.46 -62.15,1.7c-32.58,30.83 -59.8,263 -59.18,263.81z" fill="#407BFF" id="svg_91"/>
    <path d="m245.29,165.54c5.33,3.9 10.46,8.2 15.59,12.19l14.94,11.58c4.48,3.51 8.97,7.47 14.06,10.24c4.59,2.51 9.92,3.63 14.84,1.39a16.24,16.24 0 0 0 3.36,-2.09l0.51,0.79a15.56,15.56 0 0 1 -8.85,3.56c-4.92,0.28 -9.5,-1.96 -13.45,-4.65c-4.99,-3.38 -9.64,-7.28 -14.41,-10.97c-9.25,-7.16 -18.38,-14.63 -27.88,-21.47c0.37,-0.19 0.82,-0.39 1.29,-0.57zm88.69,133.13a125,125 0 0 1 23.46,2.08c-0.18,-0.52 -0.37,-1.06 -0.58,-1.58a118.05,118.05 0 0 0 -20.61,-1.93c-20.13,-0.37 -47.06,0.88 -59.22,-18.84c-4.8,-7.77 -6.35,-18.1 -1.08,-26.06c4.65,-7.02 13.33,-10.06 21.47,-9.98a33.58,33.58 0 0 1 12.39,2.45a49.09,49.09 0 0 1 12.72,8.4c7.23,6.16 13.97,13.37 23.03,16.8l-0.72,-1.73a39.02,39.02 0 0 1 -7.62,-4.35c-8.41,-6.08 -15.21,-14.51 -24.57,-19.26a34.19,34.19 0 0 0 -23.18,-2.76c-7.47,1.81 -14.12,6.66 -16.89,14.06c-3.08,8.25 -0.67,17.69 4.24,24.73c12.64,18.04 37.52,17.74 57.14,17.99zm-34.13,-76.9a132.77,132.77 0 0 1 18.2,-7.13c-0.27,-0.43 -0.54,-0.9 -0.82,-1.33c-14.35,4.02 -27.6,13.09 -42.39,15.63a74.81,74.81 0 0 1 -51.69,-10.65a72.13,72.13 0 0 1 -11.72,-9.13c-0.18,0.48 -0.34,0.96 -0.51,1.49a75.82,75.82 0 0 0 11.09,8.64a76.69,76.69 0 0 0 50,11.63c9.82,-1.33 18.84,-5.08 27.84,-9.15zm13.45,158.77a276.05,276.05 0 0 0 33.55,9.77c12.61,2.99 28.21,5.5 38.4,14.03c-0.13,-0.73 -0.28,-1.49 -0.43,-2.2c-10.18,-7.76 -24.78,-10.24 -36.93,-13.08a287.03,287.03 0 0 1 -33.67,-9.77c-9.46,-3.48 -18.81,-8.16 -25.73,-15.71a32.28,32.28 0 0 1 -8.64,-23.91c0.58,-8.82 5.6,-16.84 14.29,-19.59c9.31,-2.99 19.7,0.52 27.47,5.83c8.88,6.08 15.26,15.21 22.09,23.34c6.47,7.76 13.64,14.94 23.1,18.86a33.71,33.71 0 0 0 11.18,2.62c-0.1,-0.43 -0.19,-0.9 -0.31,-1.34c-7.55,-0.48 -14.94,-4.18 -20.8,-8.73c-8.62,-6.66 -14.81,-15.94 -21.91,-24.1c-6.5,-7.47 -13.94,-14.11 -23.54,-17.21c-8.31,-2.69 -17.86,-2.42 -24.88,3.3c-6.13,5.02 -8.56,13.15 -8.14,20.85a34.37,34.37 0 0 0 10.07,22.3c6.84,6.92 15.78,11.37 24.82,14.72l0.01,0.03zm-27.03,38.06c-1.58,7.22 -0.84,14.6 -1.27,21.89l1.37,0l0,0c0.52,-8.97 -0.9,-18.34 2.82,-26.78a16.15,16.15 0 0 1 9.91,-9.21a20.92,20.92 0 0 1 14.79,1.66c9.65,4.72 14.81,14.94 19.5,24.03c1.82,3.48 3.69,7.08 5.84,10.46l1.61,0c-5.32,-8.07 -8.71,-17.27 -14.45,-25.1c-5.54,-7.47 -13.88,-13.66 -23.67,-13c-9.07,0.61 -14.66,7.67 -16.48,16.05l0.01,0zm-87.18,21.68l1.76,0a38.2,38.2 0 0 0 4.21,-11.25c2.15,-9.92 1.49,-20.19 0.81,-30.23c-1.64,-23.27 -5.66,-47.03 -0.57,-70.14a78.12,78.12 0 0 1 10.88,-26.61c5.5,-8.22 13.45,-15.94 23.06,-19.08a20.04,20.04 0 0 1 15.68,0.73a21.79,21.79 0 0 1 9.24,10.16c4.86,10.34 1.85,22.04 -2.78,31.87c-9.07,19.19 -23.79,35.36 -31.1,55.47a69.7,69.7 0 0 0 3.56,55.38c0.66,1.27 1.34,2.53 2.08,3.77l1.63,0a68.56,68.56 0 0 1 -7.95,-19.02a67.04,67.04 0 0 1 -0.93,-29.18c2.03,-10.46 6.68,-20.07 11.95,-29.15s11.57,-17.93 16.93,-27.21s10.57,-19.7 10.46,-30.77c-0.1,-8.55 -4.08,-17.6 -11.64,-22.07c-8.97,-5.32 -19.71,-1.7 -27.56,3.89c-15.44,11.01 -23.27,29.5 -26.14,47.73c-3.74,23.79 0.94,47.82 2.06,71.64c0.46,9.5 0.43,19.32 -2.9,28.39a28.93,28.93 0 0 1 -2.75,5.71zm22.3,-200.84a28.08,28.08 0 0 0 -17.11,-6.63c-0.1,0.39 -0.21,0.81 -0.33,1.2a30.47,30.47 0 0 1 4.48,0.55c9.18,1.82 18.47,8.97 18.57,19.05c0.13,10.98 -9.19,19.14 -18.22,23.69c-5.29,2.66 -10.83,4.72 -16.26,7.01c-0.09,0.48 -0.19,0.94 -0.28,1.49c3.44,-1.49 6.93,-2.78 10.46,-4.21c9.34,-3.83 18.75,-8.97 23.4,-18.38a19.31,19.31 0 0 0 -4.72,-23.8l0,0.04z" fill="#fff" id="svg_92"/>
    <path d="m305.74,182.11c64.76,49.72 132.29,134.15 133.36,182.83c1,48.12 -26.03,43.34 -30.57,41.84c-48.12,-14.94 -106.1,-148.46 -127.59,-202.81c-21.34,-53.9 8.73,-34.16 24.81,-21.86z" fill="#d3766a" id="svg_93"/>
    <path d="m409.79,279.09l-75.2,42.63s-48.78,-86.36 -60.37,-126.59s4.68,-39.35 40.96,-8.55s94.61,92.5 94.61,92.5z" fill="#407BFF" id="svg_94"/>
    <path d="m393.95,267.74c-28.93,20.32 -57.07,33.71 -62.76,37.07c-0.27,0.16 -0.49,-0.28 -0.22,-0.43c5.69,-2.99 36.51,-22.97 62.67,-37.12c0.37,-0.16 0.63,0.28 0.31,0.48z" fill="#263238" id="svg_95"/>
    <path d="m339.42,318.78a44.98,44.98 0 0 0 -4.48,2.02c-7.22,-14.36 -5.9,-11.07 -13.27,-25.4q-5.39,-10.46 -10.82,-21.03c-3.74,-7.29 -7.08,-14.94 -11.21,-21.97a0.18,0.18 0 0 0 -0.33,0.16c2.39,6.9 5.63,13.6 8.7,20.26c-0.67,-1.03 -1.32,-2.09 -2.06,-3.09c-1.66,-2.23 -3.29,-4.48 -4.75,-6.81c-0.24,-0.36 -0.84,-0.07 -0.61,0.3c1.49,2.24 2.66,4.56 3.9,6.92s2.6,4.59 3.99,6.86s2.84,4.24 4.33,6.32l0.54,0.78c1.97,4.17 3.89,8.35 5.98,12.48c7.23,14.45 14.67,25.82 14.94,25.75a39.05,39.05 0 0 0 5.45,-3.17c0.12,-0.12 -0.09,-0.39 -0.3,-0.37z" fill="#263238" id="svg_96"/>
    <path d="m115.36,409.15c22.3,-3.26 34.92,-44.67 59.67,-110.58c4.33,-11.57 -53.21,-77.81 -61.03,-67.16c-9.85,13.45 -35.86,87.85 -38.52,108.09c-5.13,39.87 13.94,73.46 39.88,69.65z" fill="#d3766a" id="svg_97"/>
    <path d="m149.66,365.26c2,-5.6 4.12,-11.16 6.26,-16.72l6.47,-16.63c2.24,-5.51 4.39,-11.06 6.56,-16.59q1.66,-4.15 3.2,-8.32c1.06,-2.78 2.09,-5.57 2.88,-8.44a119.94,119.94 0 0 1 -5.01,17.16c-1.96,5.63 -4.12,11.19 -6.25,16.75s-4.48,11.04 -6.81,16.51s-4.78,10.92 -7.31,16.29z" fill="#263238" id="svg_98"/>
    <path d="m93.35,279.18c3.12,-22.62 9.5,-54.18 17.59,-60.8c8.49,-6.93 39.32,-30.14 48.21,-33.22s48.58,-18.19 55.87,-13.97c5.84,3.38 -1.08,18.72 -19.95,26.09c-16.6,6.46 -25.15,12.49 -29.89,14.54s-16.44,17.77 -13.3,24.7c1.87,4.08 13.76,8.88 21.16,5.53s9.22,-17.93 17.66,-24.88s23.36,-6.07 24.22,-2.05s-4.06,5.9 -11.69,19.59c-4.9,8.79 -5.23,29.89 -16.35,45.04c-5.59,7.61 -15.29,27.84 -15.29,27.84l-78.26,-28.41z" fill="#d3766a" id="svg_99"/>
    <path d="m198.6,210.92a14.54,14.54 0 0 0 7.38,-3.35a5.98,5.98 0 0 0 1.69,-2.99a6.11,6.11 0 0 0 0,-1.88a2.87,2.87 0 0 0 -0.72,-1.81c-0.15,-0.1 0.07,-0.28 0.15,-0.13a7.8,7.8 0 0 0 0.67,0.9a4.57,4.57 0 0 1 0.43,0.85a4.89,4.89 0 0 1 0.31,1.85a6.13,6.13 0 0 1 -1.49,3.75a10.16,10.16 0 0 1 -8.49,2.99c-0.03,0.04 -0.03,-0.15 0.06,-0.18z" fill="#263238" id="svg_100"/>
    <path d="m110.94,218.38c7.19,-11.28 25.58,-31.67 43.81,-38.66c12.31,-4.74 54.72,15.88 53.5,23.98s-8.47,8.14 -19.2,6.87c-3.9,-0.46 -24.57,-7.88 -28.09,-3.54c-5.05,6.25 -11.48,27.54 -11.48,27.54l-38.54,-16.2z" fill="#d3766a" id="svg_101"/>
    <path d="m207.19,200.54c-5.25,-8.67 -16.75,-13.28 -28.21,-16.93c-0.18,0 -0.28,0.21 -0.1,0.27c2.91,0.93 21.59,9.5 28.2,16.81c0.07,0.07 0.18,-0.06 0.12,-0.15z" fill="#263238" id="svg_102"/>
    <path d="m110.94,218.38c7.19,-11.28 25.58,-31.67 43.81,-38.66c12.31,-4.74 45.88,21.65 44.64,29.77s-11.63,8.76 -23.13,4.77c-3.72,-1.3 -16.18,-10.06 -19.71,-5.72c-5.05,6.23 -17.38,21.71 -17.38,21.71l-28.23,-11.87z" fill="#d3766a" id="svg_103"/>
    <path d="m146.2,220.62c1.17,-1.78 1.49,-2.41 2.73,-4.17s2.39,-3.5 3.71,-5.16a15.88,15.88 0 0 1 3.8,-4a8.22,8.22 0 0 1 5.08,-1.02c3.99,0.37 7.59,2.9 10.98,4.84c3.78,2.17 11.61,5.68 17.62,5.04a11.95,11.95 0 0 0 4.74,-1.29a7.38,7.38 0 0 0 2.82,-2.27c2.6,-4.48 -0.66,-9.44 -3.97,-13.02c-6.2,-6.65 -14.54,-11.46 -22.62,-15.42c-1.99,-0.97 -3.99,-1.88 -5.98,-2.81a17.93,17.93 0 0 0 -7.28,-2.08c-4.17,0 -11,4.21 -13.11,5.5c-0.16,0.09 -0.28,-0.16 -0.13,-0.27c2.57,-1.6 8.97,-6.8 15.63,-6.47a21.25,21.25 0 0 1 7.01,2.36c2.35,1 4.66,2.09 6.95,3.23a96.94,96.94 0 0 1 12.82,7.58c3.83,2.73 7.91,5.98 10.46,9.91a11.69,11.69 0 0 1 0.75,11.95c-1.84,2.99 -5.77,3.8 -7.56,4.03a20.34,20.34 0 0 1 -5.3,0a84.61,84.61 0 0 1 -11.54,-3.36c-3.65,-1.49 -6.93,-3.92 -10.68,-5.05a7.02,7.02 0 0 0 -5.44,0.37a18.41,18.41 0 0 0 -4.06,3.71a56.29,56.29 0 0 0 -6.78,8.05c-0.49,0.84 -1.05,0.58 -0.63,-0.19z" fill="#263238" id="svg_104"/>
    <path d="m105.62,228.24c2.63,-5.38 7.07,-27.53 11.34,-34.37s23.76,-30.29 32.88,-29.27c11.46,1.27 -0.46,21.91 -6.46,30.41s-4.96,22.95 -4.96,22.95l-32.8,10.28z" fill="#d3766a" id="svg_105"/>
    <path d="m151.73,180.98c-2.14,2.69 -4.02,5.68 -5.87,8.56a67.25,67.25 0 0 0 -5.11,8.43a29.66,29.66 0 0 0 -2.23,9.43c-0.15,1.6 -0.19,3.18 -0.21,4.78s0.15,3.51 0.12,5.25a0.15,0.15 0 1 0 0.28,0a72.31,72.31 0 0 1 1.24,-9.49a39.97,39.97 0 0 1 2.85,-9.46c2.67,-5.98 6.59,-11.36 9.31,-17.32c0.06,-0.22 -0.24,-0.37 -0.39,-0.18z" fill="#263238" id="svg_106"/>
    <path d="m138.55,220.44a27.53,27.53 0 0 0 1.66,7.85a57.37,57.37 0 0 0 3.08,7.47a72.82,72.82 0 0 0 3.87,7.02c1.37,2.29 2.99,4.35 4.68,6.53a51.84,51.84 0 0 1 8.11,14.15a46.61,46.61 0 0 1 2.69,15.94a56.53,56.53 0 0 0 -3.74,-15.6a59.25,59.25 0 0 0 -8.26,-13.67a66.57,66.57 0 0 1 -4.72,-6.65a61.91,61.91 0 0 1 -3.74,-7.28c-2.06,-4.98 -3.97,-10.3 -3.63,-15.77z" fill="#263238" id="svg_107"/>
    <path d="m220.31,188.82a105.14,105.14 0 0 0 1.49,10.46a52.74,52.74 0 0 0 2.44,9.25c2.14,5.39 6.22,10.46 12.51,11.85a22.25,22.25 0 0 0 16.96,-3.63c5.22,-3.44 9.28,-8.31 13,-13.05q3.48,-4.39 6.53,-9.06c1.02,-1.58 2.06,-3.14 2.99,-4.77s1.81,-3.27 2.85,-4.83c0.09,-0.13 0.36,0 0.28,0.1c-2.03,3.68 -8.13,15.33 -10.16,18.22c-3.72,5.26 -7.77,10.62 -13.17,14.51a25.02,25.02 0 0 1 -18.11,4.93a18.35,18.35 0 0 1 -14.08,-11.01a37.88,37.88 0 0 1 -2.7,-10.79c-0.51,-4.06 -0.78,-8.16 -0.96,-12.24c0.03,0 0.12,0 0.12,0.04z" fill="#263238" id="svg_108"/>
    <path d="m241.84,210.24c13.72,-0.37 30.63,-25.94 35.15,-44.22c0.3,-1.26 -15.87,-43.8 -18.2,-52.57c-0.51,-1.79 -51.51,27.97 -51.51,27.97s10.3,16.93 14.26,32.23c0.31,1.29 7.04,36.94 20.31,36.58z" fill="#d3766a" id="svg_109"/>
    <path d="m207.28,141.42s10.3,16.93 14.26,32.25c0,0.3 0.51,2.53 1.3,5.75c25.51,-9.37 37.9,-29.89 43.58,-43.68c-3.48,-9.65 -6.69,-18.72 -7.62,-22.27c-0.51,-1.82 -51.51,27.94 -51.51,27.94z" fill="#263238" id="svg_110"/>
    <path d="m177.99,42.27c-3.27,0.55 -14.26,26.64 -12.66,38.06s9.06,33.53 12.46,33.43s2.78,-71.92 0.19,-71.49z" fill="#263238" id="svg_111"/>
    <path d="m256.47,52.39c11.27,17.83 16.36,76.82 5.98,93.14c-15.11,23.66 -47.52,34.37 -69.56,14.51c-21.38,-19.28 -26.67,-96.28 -14.32,-111.9c18.17,-23 61.25,-22.09 77.9,4.24z" fill="#d3766a" id="svg_112"/>
    <path d="m214.08,90.06a51.39,51.39 0 0 0 5.25,0.46c2.02,0.15 3.62,0.49 5.45,-0.54a2.73,2.73 0 0 0 0.96,-3.18c-1.05,-2.35 -3.47,-3.15 -5.89,-3.44a9.92,9.92 0 0 0 -6.96,1.49a2.9,2.9 0 0 0 1.2,5.2z" fill="#263238" id="svg_113"/>
    <path d="m216.44,102.94c0,-0.16 0.33,0.15 0.34,0.31c0.28,3.99 1.29,8.5 5.01,9.46c0.12,0 0.13,0.22 0,0.22c-4.51,-0.16 -5.78,-6.19 -5.35,-10z" fill="#263238" id="svg_114"/>
    <path d="m219.5,98.43c6.35,-1.15 8.16,11.63 2.29,12.67s-7.59,-11.72 -2.29,-12.67z" fill="#263238" id="svg_115"/>
    <path d="m193.55,105.56c0,-0.15 -0.28,0.24 -0.25,0.39c0.69,3.95 0.81,8.56 -2.59,10.39c-0.1,0 0,0.25 0,0.22c4.35,-1.18 4.11,-7.32 2.84,-11z" fill="#263238" id="svg_116"/>
    <path d="m189.42,101.99c-6.43,0.43 -5.11,13.25 0.84,12.87s4.56,-13.21 -0.84,-12.87z" fill="#263238" id="svg_117"/>
    <path d="m183.56,95.19a51.76,51.76 0 0 0 4.89,-2.03c1.87,-0.81 3.44,-1.26 4.59,-2.99a2.75,2.75 0 0 0 -0.63,-3.27c-2.02,-1.6 -4.56,-1.18 -6.84,-0.31a9.94,9.94 0 0 0 -5.47,4.62a2.9,2.9 0 0 0 3.47,3.99z" fill="#263238" id="svg_118"/>
    <path d="m224.6,135.28c-0.81,1.06 -1.49,2.47 -2.99,2.79a10.46,10.46 0 0 1 -4.39,-0.39a0.13,0.13 0 0 0 -0.15,0.22a5.38,5.38 0 0 0 5.33,1.49a4.26,4.26 0 0 0 2.62,-3.93c0.01,-0.3 -0.3,-0.34 -0.42,-0.19z" fill="#263238" id="svg_119"/>
    <path d="m218.77,124.03a13.63,13.63 0 0 1 -8.14,7.28a17.36,17.36 0 0 1 -4.81,0.91a4.98,4.98 0 0 1 -0.94,0a8.67,8.67 0 0 1 -0.88,0a1,1 0 0 1 -0.93,-0.78l0,0a1.82,1.82 0 0 1 0,-0.4l0,0l0,-0.34c-0.52,-2.99 -0.88,-7.71 -0.88,-7.71c-1.03,0.72 -6.35,4.06 -6.49,2.47c-1.08,-13.28 -2.29,-28.05 -0.57,-41.48a0.37,0.37 0 0 1 0.73,0c1.49,12.73 0.85,25.64 2.21,38.43a23.73,23.73 0 0 1 6.08,-2.82c0.45,0 0.54,8.97 0.88,10.39a0.28,0.28 0 0 0 0,0.13c5.2,0 8.85,-2.17 13.31,-6.31c0.25,-0.3 0.6,-0.1 0.42,0.24z" fill="#263238" id="svg_120"/>
    <path d="m263.39,103.03c-10.28,2.32 -16.95,-8.58 -22.68,-24.28c-3.36,-9.19 -3.38,-28.39 -3.38,-28.39s-24.93,16.02 -40.18,16.71s-29.89,-10.57 -30.78,-22.42c-0.76,-10.24 14.58,-25.72 36.97,-29.69c15.62,-2.76 43.83,6.28 57.8,21.59c0,0 21.03,6.8 20.08,22.12s-6.16,41.74 -17.83,44.37z" fill="#263238" id="svg_121"/>
    <path d="m262.49,101.94c-13.31,4.74 -23.33,-14.94 -25.1,-25.63c-1.85,-11.13 0.93,-23.01 1.4,-34.18c0,0 -0.09,0 -0.09,0c-2.87,13.85 -5.65,31.26 0.72,44.49c4,8.34 12.33,21.89 23.34,16.05c0.37,-0.21 0.15,-0.88 -0.27,-0.73z" fill="#263238" id="svg_122"/>
    <path d="m283.68,53.7c-3.15,-8.97 -14.85,-16.6 -23.91,-17.57c-0.09,0 -0.12,0.13 0,0.15c11.03,2.42 24.84,12.93 23.15,25.16c-1.36,9.77 -4.23,22.79 -9.65,31.13c-0.13,0.21 0.18,0.4 0.33,0.21c4.39,-5.72 5.72,-12.61 7.47,-19.43c1.45,-6.02 4.74,-13.45 2.62,-19.65z" fill="#263238" id="svg_123"/>
    <path d="m263.32,37.62c-14.76,-16.14 -44.25,-32.76 -66.36,-24.24c0,0 0,0.13 0,0.1c23.76,-6.95 48.42,10.76 65.62,24.99c0.54,0.42 1.17,-0.4 0.75,-0.85z" fill="#263238" id="svg_124"/>
    <path d="m256.79,104.54s7.99,-21.56 17.47,-19.19s6.78,31.38 -1.99,37.46a10.22,10.22 0 0 1 -14.63,-1.84l-0.85,-16.44z" fill="#d3766a" id="svg_125"/>
    <path d="m273.33,93.6c0.16,0 0.24,0.15 0.12,0.25c-6.08,4.48 -8.02,11.79 -8.82,18.99c1.36,-2.99 3.77,-5.16 7.77,-3.63c0.21,0.07 0.12,0.4 -0.09,0.4a6.31,6.31 0 0 0 -6.14,3.87a31.08,31.08 0 0 0 -1.78,6.25c-0.16,0.7 -1.34,0.66 -1.3,-0.1a0.67,0.67 0 0 1 0,-0.16c-2.44,-8.61 1.17,-22.52 10.24,-25.87z" fill="#263238" id="svg_126"/>
    <path d="m229.45,200.22l31.38,93.56c1.23,2.72 0,5.1 -2.75,5.3l-49.25,3.72a7.98,7.98 0 0 1 -7.22,-4.48l-31.38,-93.56c-1.23,-2.73 0,-5.11 2.75,-5.32l49.22,-3.78a8.01,8.01 0 0 1 7.25,4.56z" fill="#37474f" id="svg_127"/>
    <path d="m223.6,200.61l31.38,93.56c1.23,2.72 0,5.11 -2.75,5.32l-49.24,3.78a8.01,8.01 0 0 1 -7.22,-4.56l-31.38,-93.56c-1.24,-2.72 0,-5.1 2.75,-5.3l49.3,-3.78a7.98,7.98 0 0 1 7.16,4.54z" fill="#455a64" id="svg_128"/>
    <path d="m210.46,206.01a4.2,4.2 0 1 0 3.77,-4.59a4.2,4.2 0 0 0 -3.77,4.59z" fill="#263238" id="svg_129"/>
    <path d="m418.68,407.41c-21.43,3.12 -48.48,-13.3 -118.56,-63.27c-9.71,-6.96 20.68,-88.51 31.38,-81.68c13.52,8.62 64.14,45.05 67.5,48.19c28.44,26.52 34.25,94.52 19.68,96.76z" fill="#d3766a" id="svg_130"/>
    <path d="m356.65,286.78s-20.11,-27.56 -35.16,-38.78c-20.16,-14.94 -43.74,-19.67 -53.8,-21.03c-20.92,-2.84 -73.22,4.74 -73.75,20.22c-0.42,14.02 52.78,3.56 52.78,3.56s-55.99,1.7 -53.39,18.66s63.69,1.33 63.69,1.33s-57.5,2.99 -52.05,20.11c4.12,12.9 60.24,1.84 60.24,1.84s-49.4,2.99 -45.74,16.44c4.06,14.85 56.49,7.91 56.49,7.91c15.2,32.58 35.67,41.95 51.06,46.86c3.72,1.18 29.63,-77.12 29.63,-77.12z" fill="#d3766a" id="svg_131"/>
    <path d="m266.13,248.92c-6.59,0 -13.25,-0.12 -19.81,0.42s-13.12,1.33 -19.61,2.48c-15.91,2.84 -25.4,7.11 -24.81,6.9c14.58,-4.71 38.05,-7.04 44.62,-7.59s13.08,-1.42 19.64,-1.97c0.16,-0.01 0.12,-0.24 -0.03,-0.24z" fill="#263238" id="svg_132"/>
    <path d="m268.53,272.59c-8.41,0.31 -16.77,0.31 -25.16,1s-16.23,2.08 -24.52,3.33c-0.64,0.09 -0.37,0.4 0.27,0.33c8.32,-0.93 16.11,-1.14 24.45,-1.96s16.66,-1.99 25,-2.51c0.18,0 0.18,-0.19 -0.03,-0.19z" fill="#263238" id="svg_133"/>
    <path d="m274.26,292.54c-12.88,-0.18 -25.78,2.02 -38.37,4.48c-0.63,0.12 -0.24,0.49 0.4,0.4c12.73,-1.73 22.7,-3.18 37.97,-4.48c0.22,0.01 0.27,-0.4 0,-0.4z" fill="#263238" id="svg_134"/>
    <path d="m379.7,296.28c5.56,3.66 10.91,7.62 16.09,11.82a98.39,98.39 0 0 1 7.47,6.62a40.77,40.77 0 0 1 6.44,7.79a105.64,105.64 0 0 1 8.65,18.08a90.42,90.42 0 0 1 5.05,19.32a88.39,88.39 0 0 0 -2.69,-9.58c-1.03,-3.15 -2.17,-6.26 -3.44,-9.32a113.69,113.69 0 0 0 -8.85,-17.69a37.99,37.99 0 0 0 -6.13,-7.62c-2.32,-2.35 -4.81,-4.48 -7.29,-6.72s-5.05,-4.3 -7.62,-6.41s-5.08,-4.23 -7.7,-6.28z" fill="#263238" id="svg_135"/>
   </g>
   <g id="freepik--Plant--inject-243">
    <path d="m97.78,380.8c19.61,19.25 22.9,48.87 18.77,74.93c-0.11,0.59 -1.02,0.43 -1.02,-0.12c0,-5.92 0.18,-11.85 0.15,-17.64c-0.11,-0.27 -0.19,-0.52 -0.3,-0.79c-5.12,-3.72 -9.83,-7.93 -12.75,-13.68c-3.27,-6.44 -4.56,-13.71 -7.11,-20.44c-0.24,-0.64 0.45,-0.45 0.9,-0.12c11.93,8.79 15.73,18.26 19.16,30.91a105.86,105.86 0 0 0 -2.07,-19.69c-2.58,-12.01 -7.68,-23.91 -16.3,-32.82a0.37,0.37 0 0 1 0.57,-0.54z" fill="#263238" id="svg_27"/>
    <path d="m94.09,383.04c-3.38,0.12 -5.5,5.51 -8.13,7.11a2.54,2.54 0 0 1 -3.72,-0.59c-2.61,-3.64 0.97,-8.12 4.34,-10.66c-2.37,0.98 -4.4,2.72 -6.99,3.21a2.43,2.43 0 0 1 -3.16,-1.88c-1.18,-4.95 5.08,-7.11 9.35,-7.26c-2.07,-1.45 -8,-5.36 -4.85,-7.27s10.14,3.66 12.42,5.5c3.33,2.71 7.31,6.75 7.46,10.98c0.19,4.95 -4.12,1.92 -6.72,0.88z" fill="#407BFF" id="svg_28"/>
    <path d="m94.09,383.04c-3.38,0.12 -5.5,5.51 -8.13,7.11a2.54,2.54 0 0 1 -3.72,-0.59c-2.61,-3.64 0.97,-8.12 4.34,-10.66c-2.37,0.98 -4.4,2.72 -6.99,3.21a2.43,2.43 0 0 1 -3.16,-1.88c-1.18,-4.95 5.08,-7.11 9.35,-7.26c-2.07,-1.45 -8,-5.36 -4.85,-7.27s10.14,3.66 12.42,5.5c3.33,2.71 7.31,6.75 7.46,10.98c0.19,4.95 -4.12,1.92 -6.72,0.88z" id="svg_29" opacity="0.1"/>
    <path d="m95.07,383.87c-4.31,-1.95 -12.59,0.86 -13.3,-0.77c-1.42,-3.32 5.19,-5.6 8.77,-6.04c-3.29,-0.89 -9.6,-2.31 -9.41,-5.49c0.24,-3.87 9.68,-0.54 14.45,3.12c6.02,4.62 5.92,9.08 4.98,9.96c-1.35,1.18 -4.77,-0.45 -5.49,-0.78z" fill="#407BFF" id="svg_30"/>
    <path d="m142.43,378.9c-20.33,18.43 -24.75,47.98 -21.61,74.14c0.09,0.59 1.01,0.46 1.03,-0.08c0.23,-5.92 0.27,-11.85 0.51,-17.64c0.12,-0.26 0.21,-0.51 0.33,-0.77c5.26,-3.55 10.12,-7.55 13.26,-13.2c3.55,-6.31 5.07,-13.52 7.83,-20.14c0.26,-0.64 -0.44,-0.47 -0.9,-0.17c-12.25,8.29 -16.41,17.65 -20.31,30.16a105.03,105.03 0 0 1 2.82,-19.61c3.03,-11.85 8.58,-23.59 17.53,-32.17c0.33,-0.32 -0.14,-0.86 -0.5,-0.53z" fill="#263238" id="svg_31"/>
    <path d="m146.03,381.27c3.36,0.25 5.27,5.71 7.83,7.39a2.52,2.52 0 0 0 3.74,-0.45c2.75,-3.55 -0.65,-8.15 -3.92,-10.78c2.37,1.08 4.29,2.89 6.86,3.47a2.43,2.43 0 0 0 3.23,-1.77c1.33,-4.9 -4.74,-7.35 -9.06,-7.62c2.12,-1.35 8.2,-5.04 5.12,-7.11s-10.27,3.27 -12.62,5.02c-3.44,2.57 -7.56,6.46 -7.87,10.66c-0.39,4.99 4.04,2.11 6.68,1.17z" fill="#407BFF" id="svg_32"/>
    <path d="m146.03,381.27c3.36,0.25 5.27,5.71 7.83,7.39a2.52,2.52 0 0 0 3.74,-0.45c2.75,-3.55 -0.65,-8.15 -3.92,-10.78c2.37,1.08 4.29,2.89 6.86,3.47a2.43,2.43 0 0 0 3.23,-1.77c1.33,-4.9 -4.74,-7.35 -9.06,-7.62c2.12,-1.35 8.2,-5.04 5.12,-7.11s-10.27,3.27 -12.62,5.02c-3.44,2.57 -7.56,6.46 -7.87,10.66c-0.39,4.99 4.04,2.11 6.68,1.17z" id="svg_33" opacity="0.1"/>
    <path d="m145.03,382.07c4.38,-1.79 12.55,1.34 13.32,-0.26c1.55,-3.27 -4.98,-5.79 -8.53,-6.37c3.33,-0.76 9.68,-1.94 9.61,-5.12c-0.09,-3.89 -9.64,-0.91 -14.56,2.56c-6.18,4.38 -6.31,8.84 -5.36,9.76c1.32,1.28 4.79,-0.27 5.52,-0.57z" fill="#407BFF" id="svg_34"/>
    <path d="m121.71,427.6a200.67,200.67 0 0 1 -6.31,29.16a0.72,0.72 0 0 1 -1.42,-0.3c1.34,-8.98 3.77,-17.77 5.11,-26.79a135.21,135.21 0 0 0 1.56,-27.5c-0.86,-15.13 -4.98,-31.24 -14.84,-43.08c-0.23,-0.28 0.24,-0.69 0.46,-0.43c19.77,23.07 16.59,51.33 16.59,53.87c2.81,-9.55 5.69,-20.48 16.28,-30.21c0.46,-0.41 0.82,-0.21 0.73,0.5c-1.9,17.7 -6.81,26.95 -17.08,36.42c-0.32,2.8 -0.69,5.59 -1.07,8.35z" fill="#263238" id="svg_35"/>
    <path d="m105.55,361.74c-3.55,-1.58 -8.46,2.95 -11.98,3.27c-1.86,0.17 -3.25,-0.57 -3.55,-2.49c-0.88,-5.08 5.09,-7.94 9.85,-8.85c-3,-0.19 -5.92,0.62 -8.87,-0.18a2.81,2.81 0 0 1 -2.37,-3.55c1.3,-5.71 8.87,-4.87 13.35,-2.83c-1.42,-2.54 -5.6,-9.57 -1.37,-9.99s8.68,8.91 10.12,11.97c2.1,4.48 4.18,10.66 2.22,15.14c-2.25,5.22 -5.2,-0.11 -7.38,-2.49z" fill="#407BFF" id="svg_36"/>
    <path d="m105.55,361.74c-3.55,-1.58 -8.46,2.95 -11.98,3.27c-1.86,0.17 -3.25,-0.57 -3.55,-2.49c-0.88,-5.08 5.09,-7.94 9.85,-8.85c-3,-0.19 -5.92,0.62 -8.87,-0.18a2.81,2.81 0 0 1 -2.37,-3.55c1.3,-5.71 8.87,-4.87 13.35,-2.83c-1.42,-2.54 -5.6,-9.57 -1.37,-9.99s8.68,8.91 10.12,11.97c2.1,4.48 4.18,10.66 2.22,15.14c-2.25,5.22 -5.2,-0.11 -7.38,-2.49z" id="svg_37" opacity="0.1"/>
    <path d="m106.16,363.1c-3.55,-4.21 -13.51,-5.45 -13.42,-7.5c0.19,-4.17 8.21,-3.2 12.14,-1.86c-2.96,-2.58 -8.79,-7.23 -7,-10.43c2.2,-3.9 10.32,4.31 13.42,10.51c3.92,7.82 1.65,12.42 0.17,12.84c-2.04,0.58 -4.74,-2.88 -5.31,-3.57z" fill="#407BFF" id="svg_38"/>
    <path d="m134.66,432.93l8.72,66.64l-53.08,0c1.09,-5.92 10.97,-66.72 10.97,-66.72l33.39,0.08z" fill="#407BFF" id="svg_39"/>
   </g>
  </g>
 </g>
</svg>