<?xml version="1.0"?>
<svg width="32" height="32" xmlns="http://www.w3.org/2000/svg" xmlns:svg="http://www.w3.org/2000/svg" version="1.1" xml:space="preserve">
 <g class="layer">
  <title>Layer 1</title>
  <g fill-opacity="0.3" id="svg_1">
   <g id="svg_2" transform="matrix(1 0 0 1 0 0)">
    <path d="m21,10l-0.6,0l1.3,-1.3c0.3,-0.3 0.4,-0.7 0.2,-1.1s-0.5,-0.6 -0.9,-0.6l-3,0c-0.6,0 -1,0.4 -1,1s0.4,1 1,1l0.6,0l-1.3,1.3c-0.3,0.3 -0.4,0.7 -0.2,1.1s0.5,0.6 0.9,0.6l3,0c0.6,0 1,-0.4 1,-1s-0.4,-1 -1,-1z" fill="#ffffff" id="svg_3"/>
   </g>
   <g id="svg_4">
    <path d="m28,8l-1.6,0l2.1,-2.3c0.3,-0.3 0.3,-0.7 0.2,-1.1c-0.1,-0.4 -0.5,-0.6 -0.9,-0.6l-3.8,0c-0.6,0 -1,0.4 -1,1s0.4,1 1,1l1.6,0l-2.1,2.3c-0.3,0.3 -0.3,0.7 -0.2,1.1c0.2,0.4 0.5,0.6 0.9,0.6l3.8,0c0.6,0 1,-0.4 1,-1s-0.4,-1 -1,-1z" fill="#ffffff" id="svg_5"/>
   </g>
  </g>
  <path d="m29.3,11.7c-0.4,0.2 -0.8,0.3 -1.3,0.3l-3.8,0c-0.1,0 -0.3,0 -0.4,0c-0.4,1.2 -1.5,2 -2.8,2l-3,0c-1.2,0 -2.3,-0.7 -2.8,-1.9c-0.4,-0.9 -0.3,-1.9 0.2,-2.6c-0.3,-0.4 -0.4,-1 -0.4,-1.5c0,-1.7 1.3,-3 3,-3l3,0c0,-0.7 0.2,-1.3 0.6,-1.8c-0.1,-0.1 -0.1,-0.1 -0.2,-0.1c-1.7,-0.7 -3.5,-1.1 -5.4,-1.1c-7.7,0 -14,6.3 -14,14s6.3,14 14,14s14,-6.3 14,-14c0,-1.5 -0.2,-2.9 -0.7,-4.3c0,0 0,0 0,0zm-21.6,6.1c-0.4,-0.4 -0.5,-1 -0.1,-1.4c0.4,-0.4 1,-0.5 1.4,-0.1c0.4,0.3 1.1,0.8 2,0.8s1.6,-0.4 2,-0.8c0.4,-0.4 1,-0.3 1.4,0.1s0.3,1 -0.1,1.4c-0.9,0.8 -2.1,1.2 -3.3,1.2s-2.4,-0.4 -3.3,-1.2zm11.3,6.2l-6,0c-0.6,0 -1,-0.4 -1,-1c0,-2.2 1.8,-4 4,-4s4,1.8 4,4c0,0.6 -0.4,1 -1,1zm5.3,-6.2c-0.9,0.8 -2.1,1.2 -3.3,1.2s-2.4,-0.4 -3.3,-1.2c-0.4,-0.4 -0.5,-1 -0.1,-1.4c0.4,-0.4 1,-0.5 1.4,-0.1c0.4,0.3 1.1,0.8 2,0.8s1.6,-0.4 2,-0.8c0.4,-0.4 1,-0.3 1.4,0.1c0.3,0.4 0.3,1 -0.1,1.4z" fill="#ffffff" fill-opacity="0.3" id="svg_6"/>
 </g>
</svg>