<?xml version="1.0"?>
<svg width="500" height="500" xmlns="http://www.w3.org/2000/svg" xmlns:svg="http://www.w3.org/2000/svg">
 <g class="layer">
  <title>Layer 1</title>
  <g id="svg_201">
   <g id="freepik--background-complete--inject-60">
    <path d="m24.47,99.45l-17.24,83.17c7.67,7.79 15.8,15.14 28.91,17.91l63.11,11.09l14.83,-97.76l-89.62,-14.4z" fill="#fafafa" id="svg_1"/>
    <polygon fill="#f5f5f5" id="svg_2" points="20.871017547779275,94.32104578230519 3.6354056239624697,177.49083445708857 32.550178369667265,195.39887090364755 95.66484539780959,206.48819866626582 114.30432146269777,112.64200101330516 20.871017547779275,94.32104578230519 "/>
    <path d="m15.4,173.06l-11.8,4.44s4.25,6.92 10.44,10.62a52.82,52.82 0 0 0 18.47,7.23s-13.74,-6.8 -17.12,-22.28z" fill="#e0e0e0" id="svg_3"/>
    <polygon fill="#ebebeb" id="svg_4" points="11.26814924299697,112.17012685930513 54.41026682151005,98.79217477015754 51.66153244184761,89.70836225483708 7.811590145812033,102.46107916328856 11.26814924299697,112.17012685930513 "/>
    <polygon fill="#ebebeb" id="svg_5" points="121.77190912783226,135.08016035019682 93.80089239671179,99.60616731903792 86.32151365766549,105.43394798616282 113.9386055068253,141.79273395576274 121.77190912783226,135.08016035019682 "/>
    <path d="m98.07,140.27c0,0.17 -15.96,-2.81 -35.58,-6.64s-35.5,-7.08 -35.46,-7.26s15.96,2.81 35.58,6.64s35.5,7.09 35.46,7.26z" fill="#e0e0e0" id="svg_6"/>
    <path d="m95.25,153.02c0,0.17 -15.96,-2.81 -35.58,-6.65s-35.54,-7.02 -35.46,-7.24s15.96,2.81 35.58,6.64s35.5,7.09 35.46,7.26z" fill="#e0e0e0" id="svg_7"/>
    <path d="m93.42,164.46c0,0.17 -15.96,-2.81 -35.57,-6.64s-35.5,-7.08 -35.47,-7.26s15.96,2.81 35.59,6.65s35.49,7.08 35.45,7.24z" fill="#e0e0e0" id="svg_8"/>
    <path d="m91.22,175.38c0,0.17 -15.96,-2.81 -35.58,-6.65s-35.5,-7.08 -35.46,-7.24s15.96,2.81 35.58,6.64s35.49,7.09 35.46,7.26z" fill="#e0e0e0" id="svg_9"/>
    <path d="m428.33,61.21l-22.31,54.37c-7.4,1.5 -14.91,2.57 -23.51,-0.91l-40.5,-18.06l29.34,-61.83l56.98,26.43z" fill="#fafafa" id="svg_10"/>
    <polygon fill="#f5f5f5" id="svg_11" points="432.3786204459466,59.64927734586763 410.082085007929,114.03405674065016 386.5585688773317,113.11388287388945 346.05901977376925,95.05246998746588 371.6941708168706,34.00230440251744 432.3786204459466,59.64927734586763 "/>
    <path d="m405.04,106.93l5.04,7.08a25.42,25.42 0 0 1 -10.12,2.09a36.71,36.71 0 0 1 -13.4,-3.01s10.56,1.49 18.49,-6.16z" fill="#e0e0e0" id="svg_12"/>
    <polygon fill="#ebebeb" id="svg_13" points="430.97475823152126,73.60527720031132 411.4033326391291,49.24420563947069 416.4996659813405,45.091612898675066 436.71995514175796,69.37010840921175 430.97475823152126,73.60527720031132 "/>
    <polygon fill="#ebebeb" id="svg_14" points="358.729106685827,43.99447659093403 388.4932914416531,34.46239518918992 390.5342107370234,40.70307537429517 360.6166649545012,50.87220615039996 358.729106685827,43.99447659093403 "/>
    <path d="m370.31,56.13c0.06,-0.15 10.44,4.09 23.18,9.44s23.02,9.89 22.95,10.04s-10.44,-4.08 -23.18,-9.44s-23.02,-9.89 -22.95,-10.04z" fill="#e0e0e0" id="svg_15"/>
    <path d="m367,64.55c0.06,-0.17 10.44,4.08 23.18,9.44s23,9.89 22.95,10.04s-10.45,-4.08 -23.18,-9.44s-23.02,-9.89 -22.95,-10.04z" fill="#e0e0e0" id="svg_16"/>
    <path d="m363.61,71.81c0.07,-0.17 10.45,4.08 23.18,9.44s23.02,9.89 22.95,10.04s-10.44,-4.08 -23.18,-9.44s-23,-9.89 -22.95,-10.04z" fill="#e0e0e0" id="svg_17"/>
    <path d="m360.66,78.93c0.06,-0.15 10.44,4.09 23.18,9.44s23,9.89 22.95,10.04s-10.45,-4.08 -23.19,-9.44s-23,-9.89 -22.93,-10.04z" fill="#e0e0e0" id="svg_18"/>
    <path d="m404.08,292.94c-18.07,-14.72 -20.56,-39.76 -18.16,-61.91c0.4,-3.7 0.28,-7.63 2.29,-10.76s6.29,-5.04 9.44,-3.23c2.65,1.5 3.62,4.79 4.97,7.55a21.71,21.71 0 0 0 8.08,8.95c2.27,1.4 5.13,2.36 7.56,1.25c3.33,-1.52 4.03,-5.9 4.28,-9.6q0.71,-10.31 1.4,-20.63a34.45,34.45 0 0 1 1.92,-10.87c1.4,-3.42 4.18,-6.48 7.76,-7.21s7.76,1.63 8.26,5.3a35.29,35.29 0 0 1 -0.24,4.59c0,1.55 0.57,3.29 1.99,3.82s3,-0.39 4.18,-1.39c4.08,-3.43 7.02,-8.05 9.79,-12.63s5.47,-9.3 9.23,-13.11s8.77,-6.67 14.07,-6.58s10.69,3.78 11.63,9.06s-2.47,10.35 -6.08,14.31a82.45,82.45 0 0 1 -18.36,15.06a6.82,6.82 0 0 0 -3.09,2.87c-0.98,2.36 1.18,5.01 3.54,6c2.69,1.12 5.69,1.06 8.54,1.6s5.9,2.05 6.76,4.85c1.18,3.88 -2.22,7.61 -5.51,9.96a70.38,70.38 0 0 1 -21.77,10.5c-2.78,0.8 -5.71,1.45 -8.03,3.2s-3.89,4.97 -2.77,7.66s4.47,3.79 7.35,3.47s5.53,-1.68 8.32,-2.49c5.21,-1.55 11.73,-0.71 14.65,3.92c1.92,3.03 1.8,7.08 0.47,10.41a27.13,27.13 0 0 1 -6.26,8.71a71.18,71.18 0 0 1 -31.85,19.03c-12.06,3.21 -23.03,3.54 -34.4,-1.64" fill="#f5f5f5" id="svg_19"/>
    <path d="m402.57,309.38a161.28,161.28 0 0 1 8.26,-29.94a330.13,330.13 0 0 1 15.75,-34.6l4.6,-8.86c1.51,-2.9 3.01,-5.79 4.66,-8.52a166.1,166.1 0 0 1 10.33,-15.12c3.54,-4.65 7.08,-8.93 10.35,-12.98s6.49,-7.62 9.52,-10.83a130.95,130.95 0 0 1 15.4,-14.03c1.95,-1.51 3.54,-2.63 4.54,-3.37l1.18,-0.85a2.48,2.48 0 0 1 0.42,-0.26a3.54,3.54 0 0 1 -0.39,0.32l-1.18,0.9c-1.03,0.78 -2.55,1.93 -4.46,3.48a136.92,136.92 0 0 0 -15.21,14.16c-3.01,3.21 -6.15,6.87 -9.44,10.85s-6.78,8.26 -10.29,12.98a168.45,168.45 0 0 0 -10.26,15.09c-1.63,2.71 -3.11,5.57 -4.64,8.48s-3.03,5.9 -4.59,8.85a339.12,339.12 0 0 0 -15.77,34.52a164.97,164.97 0 0 0 -8.39,29.8" fill="#e0e0e0" id="svg_20"/>
    <path d="m436.05,227.45a7.08,7.08 0 0 1 -0.24,-1.59c-0.12,-1.04 -0.25,-2.54 -0.37,-4.39c-0.25,-3.72 -0.42,-8.85 -0.59,-14.51s-0.4,-10.78 -0.71,-14.49c-0.14,-1.84 -0.28,-3.34 -0.39,-4.38a7.59,7.59 0 0 1 -0.08,-1.62a7.48,7.48 0 0 1 0.34,1.58c0.19,1.03 0.4,2.52 0.61,4.36c0.42,3.7 0.74,8.84 0.91,14.51s0.28,10.62 0.39,14.51c0,1.73 0.11,3.21 0.14,4.39a6.88,6.88 0 0 1 -0.02,1.62z" fill="#e0e0e0" id="svg_21"/>
    <path d="m484.12,222.11a9.83,9.83 0 0 1 -1.91,0.09c-1.18,0 -3,0 -5.18,0.12c-4.38,0.15 -10.42,0.57 -17.06,1.31s-12.63,1.71 -16.94,2.51c-2.16,0.39 -3.89,0.76 -5.1,1a9.44,9.44 0 0 1 -1.89,0.31a10.17,10.17 0 0 1 1.83,-0.58c1.18,-0.32 2.91,-0.76 5.06,-1.18c4.29,-0.93 10.29,-1.96 16.95,-2.73a170.14,170.14 0 0 1 17.13,-1.11c2.19,0 3.98,0 5.2,0.09a10.35,10.35 0 0 1 1.9,0.15z" fill="#e0e0e0" id="svg_22"/>
    <path d="m411.49,278.62a3.13,3.13 0 0 1 -0.27,-0.6l-0.68,-1.78c-0.59,-1.55 -1.38,-3.8 -2.36,-6.61c-1.89,-5.59 -4.25,-13.41 -6.74,-22.07s-4.72,-16.52 -6.54,-22.13c-0.86,-2.74 -1.58,-4.99 -2.11,-6.67c-0.22,-0.73 -0.41,-1.33 -0.55,-1.82a2.16,2.16 0 0 1 -0.15,-0.65a3.02,3.02 0 0 1 0.28,0.6l0.67,1.77c0.59,1.55 1.38,3.8 2.36,6.61c1.89,5.6 4.25,13.41 6.74,22.08s4.72,16.52 6.54,22.13c0.86,2.74 1.58,4.99 2.11,6.65l0.57,1.83a2.17,2.17 0 0 1 0.14,0.65z" fill="#e0e0e0" id="svg_23"/>
    <path d="m475.96,262.97a2.84,2.84 0 0 1 -0.65,0.21l-1.88,0.48l-6.91,1.69c-5.83,1.43 -13.86,3.48 -22.73,5.77s-16.94,4.28 -22.8,5.58c-2.94,0.66 -5.31,1.18 -6.96,1.47l-1.9,0.35a2.89,2.89 0 0 1 -0.68,0.08a2.84,2.84 0 0 1 0.65,-0.21l1.88,-0.48l6.91,-1.69c5.83,-1.42 13.86,-3.48 22.74,-5.77s17,-4.28 22.9,-5.59c2.94,-0.65 5.31,-1.18 6.96,-1.46l1.91,-0.35a2.82,2.82 0 0 1 0.57,-0.08z" fill="#e0e0e0" id="svg_24"/>
   </g>
   <g id="freepik--Floor--inject-60">
    <path d="m502.8,498.99c0,0.18 -111.62,0.31 -249.27,0.31s-249.3,-0.13 -249.3,-0.31s111.59,-0.31 249.3,-0.31s249.27,0.14 249.27,0.31z" fill="#263238" id="svg_25"/>
   </g>
   <g id="freepik--Note--inject-60">
    <path d="m154.8,49.44l28.47,86.78c11.3,3.15 22.82,5.65 36.57,1.18l64.79,-23.44l-38.52,-99.1l-91.31,34.58z" fill="#e0e0e0" id="svg_26"/>
    <polygon fill="#407BFF" id="svg_27" points="148.70475648064712,46.58985379719252 177.17122951359124,133.35775418213052 213.70695865771086,134.58467322203614 278.49681361218245,111.13195748099952 245.62998886119385,13.652251776396042 148.70475648064712,46.58985379719252 "/>
    <path d="m185.75,122.93l-8.59,10.43s7.67,4.19 15.44,4.36a56.84,56.84 0 0 0 21.11,-3.09s-16.52,0.93 -27.96,-11.7z" fill="#407BFF" id="svg_28"/>
    <path d="m185.75,122.93c-2.61,5.27 -5.25,11.47 -8.59,10.43c0,0 7.67,4.19 15.44,4.36a56.84,56.84 0 0 0 21.11,-3.09s-16.52,0.93 -27.96,-11.7z" id="svg_29" opacity="0.3"/>
    <polygon fill="#e0e0e0" id="svg_30" points="149.31820058743142,68.36736619873136 182.37377500002003,32.810789410684265 174.9533824568698,25.815093239364387 140.89505812721654,61.171111952085084 149.31820058743142,68.36736619873136 "/>
    <polygon fill="#e0e0e0" id="svg_31" points="264.59974600754504,30.581135866882505 219.54654581191608,12.484334345554998 215.67710068327324,21.9220409164991 260.89553004535264,41.0334026952637 264.59974600754504,30.581135866882505 "/>
    <path d="m245.29,48.11c0,0.15 -16.4,5.9 -36.74,12.82s-36.89,12.41 -36.96,12.25s16.39,-5.9 36.74,-12.82s36.9,-12.41 36.96,-12.25z" fill="#263238" id="svg_32"/>
    <path d="m249.45,61.49c0,0.17 -16.4,5.9 -36.74,12.84s-36.89,12.4 -36.94,12.25s16.39,-5.9 36.74,-12.84s36.94,-12.39 36.94,-12.25z" fill="#263238" id="svg_33"/>
    <path d="m253.9,73.15c0,0.15 -16.39,5.9 -36.74,12.82s-36.88,12.41 -36.94,12.25s16.4,-5.9 36.75,-12.82s36.88,-12.41 36.93,-12.25z" fill="#263238" id="svg_34"/>
    <path d="m257.71,84.51c0,0.17 -16.4,5.9 -36.74,12.84s-36.88,12.4 -36.94,12.25s16.39,-5.9 36.74,-12.84s36.85,-12.4 36.94,-12.25z" fill="#263238" id="svg_35"/>
   </g>
   <g id="freepik--character-2--inject-60">
    <path d="m301.36,333.05l-5.71,53.09s-11.12,-16.81 -18.65,-9.32c-7.17,7.15 -19.84,59.28 -19.84,59.28s-0.17,17 8.87,21.49c28.99,14.44 61.29,-12.69 61.29,-12.69l-4.61,-151.95l0,0a60.92,60.92 0 0 0 -21.34,40.1z" fill="#407BFF" id="svg_36"/>
    <path d="m399.15,296.15l-50.15,-4c-0.31,-5.9 0.11,-28.51 0.11,-28.51s-20.87,-3.24 -21.12,-24.1s3.35,-68.78 3.35,-68.78l0,0a72.48,72.48 0 0 1 72.86,9.17l3.09,2.36l-8.14,113.87z" fill="#b78876" id="svg_37"/>
    <path d="m349.07,263.34a48.53,48.53 0 0 0 27.2,-7.73s-6.43,15.01 -27.25,13.13l0.05,-5.4z" fill="#aa6550" id="svg_38"/>
    <path d="m404.73,203.9c0.35,-0.15 14.33,-4.24 13.87,10.03s-14.68,10.87 -14.69,10.45s0.81,-20.48 0.81,-20.48z" fill="#b78876" id="svg_39"/>
    <path d="m408.43,219.12c0.07,0 0.25,0.18 0.66,0.39a2.45,2.45 0 0 0 1.85,0.09c1.53,-0.51 2.88,-2.85 3.03,-5.43a8.33,8.33 0 0 0 -0.59,-3.54a2.85,2.85 0 0 0 -1.8,-1.97a1.25,1.25 0 0 0 -1.49,0.64c-0.2,0.39 -0.13,0.67 -0.2,0.7s-0.29,-0.25 -0.17,-0.84a1.68,1.68 0 0 1 0.59,-0.87a1.92,1.92 0 0 1 1.38,-0.32a3.54,3.54 0 0 1 2.54,2.36a8.62,8.62 0 0 1 0.73,4c-0.19,2.87 -1.75,5.51 -3.82,6.04a2.64,2.64 0 0 1 -2.27,-0.45c-0.42,-0.46 -0.5,-0.78 -0.45,-0.8z" fill="#aa6550" id="svg_40"/>
    <path d="m335.94,203.06a2.98,2.98 0 0 0 2.88,3.01a2.84,2.84 0 0 0 3.07,-2.69a2.98,2.98 0 0 0 -2.87,-3.01a2.87,2.87 0 0 0 -3.08,2.69z" fill="#263238" id="svg_41"/>
    <path d="m335.29,200.11c0.37,0.39 2.63,-1.29 5.83,-1.27s5.56,1.62 5.9,1.18c0.17,-0.18 -0.21,-0.88 -1.18,-1.63a8.19,8.19 0 0 0 -4.72,-1.45a7.87,7.87 0 0 0 -4.65,1.5c-1.03,0.8 -1.36,1.5 -1.18,1.68z" fill="#263238" id="svg_42"/>
    <path d="m367.34,204.23a2.98,2.98 0 0 0 2.87,3.01a2.87,2.87 0 0 0 3.08,-2.69a3,3 0 0 0 -2.88,-3.01a2.85,2.85 0 0 0 -3.07,2.69z" fill="#263238" id="svg_43"/>
    <path d="m366.8,200.7c0.38,0.39 2.63,-1.29 5.84,-1.27s5.56,1.62 5.9,1.18c0.18,-0.17 -0.2,-0.87 -1.18,-1.62a8.26,8.26 0 0 0 -4.72,-1.46a7.93,7.93 0 0 0 -4.65,1.5c-1.03,0.81 -1.37,1.51 -1.19,1.68z" fill="#263238" id="svg_44"/>
    <path d="m355.17,224.48c0,-0.18 -1.98,-0.52 -5.2,-0.93c-0.83,-0.08 -1.59,-0.25 -1.73,-0.81a4.22,4.22 0 0 1 0.54,-2.42q1.18,-2.97 2.42,-6.24c3.37,-8.87 5.8,-16.17 5.44,-16.3s-3.37,6.96 -6.74,15.83c-0.8,2.18 -1.58,4.27 -2.36,6.28a4.64,4.64 0 0 0 -0.42,3.21a2.01,2.01 0 0 0 1.34,1.18a5.27,5.27 0 0 0 1.39,0.2c3.29,0.19 5.31,0.2 5.32,0.01z" fill="#263238" id="svg_45"/>
    <path d="m365.97,188.14c0.32,0.87 3.54,0.46 7.28,0.91s6.81,1.47 7.3,0.7c0.22,-0.38 -0.31,-1.18 -1.53,-2.04a12.8,12.8 0 0 0 -11.1,-1.18c-1.38,0.52 -2.08,1.19 -1.95,1.62z" fill="#263238" id="svg_46"/>
    <path d="m336.47,190.83c0.57,0.72 2.77,0 5.43,-0.07s4.91,0.5 5.43,-0.27c0.22,-0.37 -0.13,-1.1 -1.11,-1.78a7.83,7.83 0 0 0 -8.74,0.26c-0.94,0.76 -1.25,1.5 -1,1.86z" fill="#263238" id="svg_47"/>
    <path d="m321.18,157.59a7.7,7.7 0 0 1 2.84,-6.89a5.49,5.49 0 0 1 7.08,0.53a6.37,6.37 0 0 1 5.47,-7.73c3.41,-0.21 6.31,2.36 9.59,3.26s6.65,0.12 9.74,-1.12s5.97,-2.96 9.1,-4.11a26.69,26.69 0 0 1 34.13,15.67c4.57,-1.43 9.74,0.9 12.56,4.72s3.54,8.94 2.97,13.68a43.85,43.85 0 0 1 -2.36,9.37c0,0.27 0,0.53 0,0.8c-0.22,11.47 -1.52,24.94 -6.42,25.02c-8.53,0.13 -6.49,-15.95 -6.49,-15.95c-10.48,-4.03 -6.57,-19.72 -9.19,-22.11s-8.09,-7.9 -30.01,3.29c-8.52,4.35 -19.83,4.22 -26.01,2.82l-0.54,-0.12l-0.13,0a1.84,1.84 0 0 1 -0.18,-0.07a19.67,19.67 0 0 1 -5.63,-2.36a11.12,11.12 0 0 1 -4.62,-5.16a6.05,6.05 0 0 1 1.18,-6.52a13.39,13.39 0 0 1 -3.09,-7.03z" fill="#263238" id="svg_48"/>
    <path d="m440.18,427.07l1.57,29.62l3.54,42.47l-134.05,0l5.83,-62.83l-11.42,-99.27c0.99,-35.08 14.46,-49.67 42.02,-53.02l-2.17,0.27c3.8,-0.45 0,0 2.17,-0.27a88.76,88.76 0 0 0 53.48,0l0,0c8.26,0.35 15.11,2.89 22.14,4.25c22.14,4.24 40.37,21.34 44.83,36.24c3.65,12.26 30.01,118.57 30.01,118.57l-52.49,0l-5.46,-16.03z" fill="#407BFF" id="svg_49"/>
    <path d="m352.44,234.34a14.57,14.57 0 0 0 1.86,3.65a4.85,4.85 0 0 0 3.44,2.01a4.39,4.39 0 0 0 3.67,-2.01a6.9,6.9 0 0 0 1.03,-4.18c0,-1.32 -0.66,-2.89 -1.97,-3.04a3.29,3.29 0 0 0 -1.59,0.34l-6.88,2.8" fill="#aa6550" id="svg_50"/>
    <path d="m355.19,240a9.9,9.9 0 0 0 3.68,-0.45a5.27,5.27 0 0 0 2.77,-2.52a5.51,5.51 0 0 0 0.08,-4.49a4.94,4.94 0 0 0 -0.59,-1.04c-0.28,-0.28 -0.22,-0.27 -0.52,-0.22a10.12,10.12 0 0 0 -1.11,0.44l-1.18,0.46c-1.47,0.59 -2.81,1.11 -3.93,1.53c-2.25,0.84 -3.68,1.29 -3.75,1.18s1.24,-0.88 3.41,-1.93c1.09,-0.52 2.36,-1.18 3.83,-1.78l1.11,-0.5a12.98,12.98 0 0 1 1.26,-0.52a1.59,1.59 0 0 1 1.01,0a1.75,1.75 0 0 1 0.76,0.6a5.58,5.58 0 0 1 0.78,1.3a6.44,6.44 0 0 1 -0.21,5.51a5.83,5.83 0 0 1 -3.54,2.82a5.46,5.46 0 0 1 -2.98,0.12c-0.59,-0.19 -0.91,-0.42 -0.88,-0.5z" fill="#263238" id="svg_51"/>
    <path d="m305.42,421.15l-31.57,-96.93l-2.85,-16.27s-8.59,-36.29 -8.98,-39.87c-0.44,-4.15 -2.55,-4.93 -4.06,-4.72c-2.36,0.42 -3.74,3.54 -3.47,7.08c0.09,1.18 2.36,20.64 2.36,20.64a46.27,46.27 0 0 0 -4.33,-4.84c-3.27,-3.33 -10.24,-4.72 -17.14,-3.72s-8.75,1.85 -8.49,4.55a3.42,3.42 0 0 0 1.64,2.47a6.76,6.76 0 0 0 4.72,1.09c11.08,-1.4 14.7,4.21 14.7,4.21l0.38,2.12s-7.27,-4.08 -12.41,-1.47a6.64,6.64 0 0 0 -2.01,1.56a8.73,8.73 0 0 0 -6.12,13.76c0.85,1.18 2.36,2.24 3.72,1.8a4.72,4.72 0 0 0 1.84,-1.4a6.77,6.77 0 0 1 0.91,-0.84l1.88,5.82s4.93,12.85 6.44,18.67l15.34,97.6a24.51,24.51 0 0 0 28.44,20.33l0,0a24.5,24.5 0 0 0 19.08,-31.64z" fill="#b78876" id="svg_52"/>
    <path d="m270.51,323.23c-1.97,0.78 -4.22,-0.5 -5.52,-2.17s-1.97,-3.76 -3.14,-5.53c-3.54,-5.31 -10.78,-7.23 -14.01,-12.69c-0.46,-0.77 -0.78,-1.84 -0.13,-2.44s1.57,-0.27 2.36,0l19.39,8.15" fill="#b78876" id="svg_53"/>
    <path d="m269.42,308.59a9.11,9.11 0 0 0 -2.01,-1.1c-1.32,-0.64 -3.26,-1.51 -5.65,-2.58l-8.42,-3.68l-2.45,-1.05a4.14,4.14 0 0 0 -3.1,-0.53a1.76,1.76 0 0 0 -1.04,1.7a3.75,3.75 0 0 0 0.48,1.65a14.16,14.16 0 0 0 1.86,2.48c2.89,3.02 6.38,4.72 9,6.88a15.74,15.74 0 0 1 3.3,3.41c0.84,1.18 1.42,2.54 2.08,3.69a7.43,7.43 0 0 0 4.72,4.11c1.56,0.29 2.36,-0.31 2.29,-0.33a5.9,5.9 0 0 1 -2.17,-0.12a7.16,7.16 0 0 1 -4.11,-4.06c-0.6,-1.18 -1.18,-2.49 -2.01,-3.85a16.3,16.3 0 0 0 -3.43,-3.7c-2.69,-2.28 -6.16,-4.05 -8.81,-6.85a12.53,12.53 0 0 1 -1.7,-2.23c-0.44,-0.76 -0.47,-1.57 0,-1.7s1.37,0.15 2.19,0.51l2.45,1.01l8.53,3.46c2.44,0.96 4.42,1.72 5.79,2.23a8.26,8.26 0 0 0 2.19,0.66z" fill="#aa6550" id="svg_54"/>
    <path d="m248.58,297.14a8.51,8.51 0 0 0 -1.68,-3.61a6.67,6.67 0 0 0 -3.65,-2.09a17.19,17.19 0 0 0 -5.33,-0.19a27.37,27.37 0 0 1 -5.53,0.11a8.94,8.94 0 0 1 -4.31,-1.59a3.54,3.54 0 0 1 -1.4,-2.76a1.91,1.91 0 0 1 0.26,-1.1c0.07,0 0,0.4 0,1.09a3.27,3.27 0 0 0 1.44,2.36a8.64,8.64 0 0 0 4.05,1.32a29.23,29.23 0 0 0 5.39,-0.18a16.68,16.68 0 0 1 5.57,0.28a7.01,7.01 0 0 1 3.89,2.43a6.29,6.29 0 0 1 1.25,2.82a2.22,2.22 0 0 1 0.05,1.11z" fill="#aa6550" id="svg_55"/>
    <path d="m254.41,269.12a22.86,22.86 0 0 1 0.47,3.86c0.25,2.65 0.55,5.82 0.9,9.31s0.74,6.64 1.04,9.3a22.14,22.14 0 0 1 0.34,3.87a17.16,17.16 0 0 1 -0.88,-3.79c-0.41,-2.36 -0.88,-5.65 -1.26,-9.3s-0.6,-6.96 -0.68,-9.36a17.5,17.5 0 0 1 0.08,-3.89z" fill="#aa6550" id="svg_56"/>
    <path d="m244.66,301.99a5.25,5.25 0 0 1 -1.18,-0.32a3.54,3.54 0 0 0 -3.01,0.18a1.91,1.91 0 0 0 -0.83,1.72a9.85,9.85 0 0 0 0.45,2.49a4.33,4.33 0 0 1 -0.13,3.09a3.7,3.7 0 0 1 -2.8,1.86a4.25,4.25 0 0 1 -3.19,-0.99a5.36,5.36 0 0 1 -1.72,-2.55a17.13,17.13 0 0 1 -0.46,-4.98a9.6,9.6 0 0 1 0.65,-3.3a2.36,2.36 0 0 1 0.68,-1.04s-0.19,0.4 -0.4,1.18a11.57,11.57 0 0 0 -0.38,3.22a17.91,17.91 0 0 0 0.59,4.72a4.19,4.19 0 0 0 4.13,2.98a3,3 0 0 0 2.22,-1.45a3.69,3.69 0 0 0 0.11,-2.57a10.42,10.42 0 0 1 -0.39,-2.68a2.48,2.48 0 0 1 1.18,-2.16a3.72,3.72 0 0 1 3.39,0c0.74,0.31 1.16,0.54 1.09,0.59z" fill="#aa6550" id="svg_57"/>
    <path d="m234.26,309.39s0.19,0.39 0,1.11a3.42,3.42 0 0 1 -2.04,2.24a4.53,4.53 0 0 1 -4.4,-0.86a7.37,7.37 0 0 1 -2.44,-4.91a8.98,8.98 0 0 1 1.1,-5.37a8.41,8.41 0 0 1 3.17,-3.15a8.15,8.15 0 0 1 2.82,-1a2.36,2.36 0 0 1 1.1,0a14.32,14.32 0 0 0 -3.63,1.47a8.26,8.26 0 0 0 -3.79,7.97a6.84,6.84 0 0 0 2.14,4.45a4,4 0 0 0 3.75,0.88a3.23,3.23 0 0 0 1.95,-1.82c0.25,-0.63 0.21,-1.03 0.28,-1.03z" fill="#aa6550" id="svg_58"/>
    <path d="m249.04,320.94a3.07,3.07 0 0 1 1.85,-0.18a7.24,7.24 0 0 1 4.31,2.02l-0.63,0.26a18.88,18.88 0 0 1 0.15,-2.64c0.58,-5.12 2.98,-8.67 3.13,-8.54s-1.8,3.7 -2.36,8.64a24.6,24.6 0 0 0 -0.18,2.55l0,0.88l-0.61,-0.63a7.68,7.68 0 0 0 -3.86,-2.08c-1.12,-0.2 -1.8,-0.2 -1.8,-0.28z" fill="#aa6550" id="svg_59"/>
    <path d="m245.11,287.91c0.19,0.07 -0.41,1.55 -2.04,2.45s-3.19,0.7 -3.15,0.5s1.37,-0.35 2.77,-1.18s2.22,-1.89 2.42,-1.77z" fill="#aa6550" id="svg_60"/>
    <path d="m330.43,287.9s-0.44,0.47 -1.18,1.38a13.96,13.96 0 0 0 -2.74,4.39a5.78,5.78 0 0 0 -0.31,1.71a3.8,3.8 0 0 0 0.45,1.78a6.25,6.25 0 0 0 3.4,2.52a33.4,33.4 0 0 0 10.79,1.52c2.03,0 4.22,0.12 6.46,0.25l3.43,0.4c1.18,0.13 2.36,0.45 3.54,0.66a35.93,35.93 0 0 1 14.16,6.3a25.95,25.95 0 0 1 5.9,6.15a21.9,21.9 0 0 1 1.12,1.91c0.34,0.7 0.58,1.37 0.86,2.05a24.03,24.03 0 0 1 1.18,4.31a27.39,27.39 0 0 1 -2.77,18.13a26.44,26.44 0 0 1 -13.94,11.9a27.25,27.25 0 0 1 -8.68,1.72a33.72,33.72 0 0 1 -8.4,-1.01a52.41,52.41 0 0 0 -7.72,-1.38a13.28,13.28 0 0 0 -7.01,1.24a18,18 0 0 0 -5.25,4.26c-1.47,1.65 -2.73,3.39 -3.96,5.03c-2.44,3.29 -5.04,6.19 -8.06,7.72a9.97,9.97 0 0 1 -4.49,1.18a10.1,10.1 0 0 1 -3.83,-0.71a8.47,8.47 0 0 1 -2.63,-1.66a6.29,6.29 0 0 1 -1.32,-1.86a4.08,4.08 0 0 1 -0.41,-1.82c0.08,0 0.11,0.65 0.64,1.71a6.49,6.49 0 0 0 1.34,1.7a8.26,8.26 0 0 0 2.55,1.49a9.37,9.37 0 0 0 7.85,-0.63c2.83,-1.5 5.3,-4.32 7.68,-7.62c1.18,-1.65 2.45,-3.42 3.95,-5.14a18.79,18.79 0 0 1 5.47,-4.59a14.33,14.33 0 0 1 7.54,-1.42a54.42,54.42 0 0 1 7.89,1.36a32.73,32.73 0 0 0 8.12,0.96a26.56,26.56 0 0 0 8.26,-1.68a25.36,25.36 0 0 0 13.3,-11.37a26.28,26.28 0 0 0 2.67,-17.32a24.48,24.48 0 0 0 -1.18,-4.12c-0.28,-0.66 -0.52,-1.34 -0.81,-1.93a16.87,16.87 0 0 0 -1.04,-1.79a25.03,25.03 0 0 0 -5.57,-5.9a35.18,35.18 0 0 0 -13.71,-6.21c-1.18,-0.22 -2.36,-0.54 -3.46,-0.67l-3.37,-0.44c-2.22,-0.15 -4.34,-0.25 -6.41,-0.32a33.61,33.61 0 0 1 -11.02,-1.76a6.84,6.84 0 0 1 -3.56,-2.84a4.25,4.25 0 0 1 -0.46,-2.06a6.08,6.08 0 0 1 0.39,-1.85a13.08,13.08 0 0 1 3.01,-4.4a6.51,6.51 0 0 1 1.36,-1.22z" fill="#fafafa" id="svg_61"/>
    <path d="m420.17,366.56a8.87,8.87 0 0 1 -0.57,-2.65a21.78,21.78 0 0 1 0.48,-7.4a28.56,28.56 0 0 1 4.59,-10.02a32.94,32.94 0 0 1 9.9,-9.13a41.51,41.51 0 0 1 12.6,-4.72a54.27,54.27 0 0 1 10.91,-1.12a60.79,60.79 0 0 1 7.36,0.37a9.99,9.99 0 0 1 2.65,0.47c0,0.21 -3.83,-0.21 -10,0a59.68,59.68 0 0 0 -10.69,1.37a42.47,42.47 0 0 0 -12.21,4.72a32.9,32.9 0 0 0 -9.61,8.74a28.87,28.87 0 0 0 -4.65,9.56a24.51,24.51 0 0 0 -0.86,7.15a17.77,17.77 0 0 1 0.09,2.67z" fill="#fafafa" id="svg_62"/>
    <path d="m484.63,387.09a8.53,8.53 0 0 1 -1.39,2.08a33.57,33.57 0 0 1 -4.72,4.87a38.67,38.67 0 0 1 -8.51,5.47a38,38 0 0 1 -24.3,2.94a38.49,38.49 0 0 1 -9.57,-3.3a33.73,33.73 0 0 1 -5.77,-3.6a8.15,8.15 0 0 1 -1.84,-1.69c0.14,-0.19 2.83,2.16 7.99,4.51a39.63,39.63 0 0 0 41.44,-5c4.42,-3.53 6.48,-6.45 6.67,-6.28z" fill="#fafafa" id="svg_63"/>
    <path d="m425.37,383.29a5.31,5.31 0 0 1 -1.07,0.45a8.16,8.16 0 0 0 -2.7,1.79a13.07,13.07 0 0 0 -2.71,4.35a40.97,40.97 0 0 0 -1.91,6.64a77.15,77.15 0 0 1 -1.91,8.26a19.7,19.7 0 0 1 -2.04,4.4a17.38,17.38 0 0 1 -3.44,3.85a26.85,26.85 0 0 1 -9.74,4.92c-3.63,1.09 -7.48,1.68 -11.35,2.43a47.59,47.59 0 0 0 -20.16,8.4a32.88,32.88 0 0 0 -6.72,6.77a29.71,29.71 0 0 0 -3.83,7.39a25.46,25.46 0 0 0 -1.25,11.94c0.42,2.84 1.07,4.33 0.94,4.38a4.72,4.72 0 0 1 -0.5,-1.06a10.94,10.94 0 0 1 -0.46,-1.34a16.45,16.45 0 0 1 -0.46,-1.89a24.84,24.84 0 0 1 0.9,-12.29a30.01,30.01 0 0 1 3.82,-7.7a33.74,33.74 0 0 1 6.87,-7.08a47.86,47.86 0 0 1 20.62,-8.71c3.9,-0.77 7.72,-1.34 11.24,-2.36a25.95,25.95 0 0 0 9.37,-4.64a16.24,16.24 0 0 0 3.26,-3.54a18.93,18.93 0 0 0 1.98,-4.13a80.82,80.82 0 0 0 2.03,-8.18a39.34,39.34 0 0 1 2.11,-6.75a12.98,12.98 0 0 1 3.03,-4.42a7.36,7.36 0 0 1 2.94,-1.69a3.54,3.54 0 0 1 1.17,-0.19z" fill="#fafafa" id="svg_64"/>
    <path d="m393.77,378.37a4.95,4.95 0 0 1 0.61,2.42a10.42,10.42 0 0 1 -1.89,6.52a10.05,10.05 0 0 1 -3.54,3.22a9.07,9.07 0 0 1 -2.56,0.93a10.17,10.17 0 0 1 -2.88,0.12a11.22,11.22 0 0 1 -5.66,-2.29a10.02,10.02 0 0 1 -3.66,-5.47a9.32,9.32 0 0 1 -0.06,-4.34a9.51,9.51 0 0 1 1.89,-3.7a19.05,19.05 0 0 1 2.58,-2.82a9.18,9.18 0 0 1 1.5,-1.12a3.95,3.95 0 0 1 1.85,-0.65l0.15,1.05l-0.58,0.14l-0.29,-1.01a10.02,10.02 0 0 1 6.5,0.35a10.52,10.52 0 0 1 4.11,2.84a8.87,8.87 0 0 1 1.68,2.71c0.25,0.7 0.31,1.09 0.26,1.1a16.35,16.35 0 0 0 -2.36,-3.39a10.5,10.5 0 0 0 -3.95,-2.45a9.31,9.31 0 0 0 -5.9,-0.15l-0.29,-1.01l0.58,-0.17l0.17,1.06a5.33,5.33 0 0 0 -2.64,1.53a19.08,19.08 0 0 0 -2.36,2.7a7.77,7.77 0 0 0 -1.58,7.08a9.04,9.04 0 0 0 3.2,4.83a10.38,10.38 0 0 0 5.05,2.11a9.26,9.26 0 0 0 2.56,-0.06a8.58,8.58 0 0 0 2.29,-0.77a9.44,9.44 0 0 0 3.31,-2.83a10.43,10.43 0 0 0 2.11,-6c-0.04,-1.59 -0.31,-2.44 -0.19,-2.48z" fill="#fafafa" id="svg_65"/>
    <path d="m317.64,339.9a0.83,0.83 0 0 1 0,0.32c0,0.24 0,0.54 0,0.92c0,0.86 -0.11,2.05 -0.18,3.54c-0.19,3.09 -0.37,7.56 -0.61,13.08c-0.46,11.05 -0.92,26.32 -1.27,43.2s-0.58,32.16 -0.74,43.21c-0.08,5.5 -0.15,9.96 -0.2,13.11c0,1.5 -0.06,2.69 -0.07,3.54c0,0.38 0,0.68 0,0.93a1.11,1.11 0 0 1 0,0.32a0.94,0.94 0 0 1 0,-0.32c0,-0.25 0,-0.55 0,-0.93c0,-0.86 0,-2.05 0,-3.54l0,-13.09c0,-11.07 0.2,-26.34 0.57,-43.24s0.87,-32.15 1.45,-43.2c0.31,-5.52 0.55,-9.99 0.81,-13.07c0.12,-1.51 0.21,-2.7 0.28,-3.54c0,-0.38 0.07,-0.68 0.09,-0.93a1.31,1.31 0 0 1 -0.13,-0.31z" fill="#263238" id="svg_66"/>
    <g id="svg_67" opacity="0.2">
     <path d="m295.1,449.53c6.58,3.15 15.18,-2.9 18.55,-9.37c0,0 1.76,-14.27 1.52,-21.57c-0.46,-13.5 0.53,-26.86 0.07,-40.36a42.34,42.34 0 0 1 -9.63,21.92c-1.45,1.71 -3.08,3.41 -3.62,5.58c-0.97,3.89 2.01,10.89 3.92,14.42c5.9,10.78 -6.96,29.49 -10.38,29.1" id="svg_68"/>
    </g>
    <g id="svg_69" opacity="0.2">
     <path d="m418.29,361.47q3.22,40.35 6.46,80.7a23.48,23.48 0 0 0 1.42,7.47a8.07,8.07 0 0 0 5.43,4.95c3.82,0.78 7.54,-2.51 8.61,-6.26s0.22,-7.75 -0.72,-11.54c-1.6,-6.45 -3.41,-12.85 -5.23,-19.24q-7.89,-27.84 -15.8,-55.67" id="svg_70"/>
    </g>
    <path d="m344.35,499.25a15.41,15.41 0 0 0 1.8,-4.28c0.66,-2.91 0.25,-7.42 -2.02,-12.29c-1.11,-2.44 -2.68,-4.98 -4.26,-7.76a33.98,33.98 0 0 1 -3.99,-9.53a22.71,22.71 0 0 1 0.83,-11.42c1.18,-3.8 2.89,-7.49 4.27,-11.36a33.89,33.89 0 0 0 0.59,-22.57a33.03,33.03 0 0 0 -4.47,-8.94a34.81,34.81 0 0 0 -5.96,-6.41a35.39,35.39 0 0 0 -11.08,-6.18c-2.87,-0.96 -4.54,-1.18 -4.52,-1.32a4.02,4.02 0 0 1 1.18,0.11a23.25,23.25 0 0 1 3.43,0.77a33.61,33.61 0 0 1 11.48,5.9a34.51,34.51 0 0 1 6.24,6.48a33.94,33.94 0 0 1 4.72,9.19a34.67,34.67 0 0 1 -0.52,23.33c-1.42,3.94 -3.14,7.61 -4.27,11.3a21.6,21.6 0 0 0 -0.87,10.83a32.77,32.77 0 0 0 3.78,9.27c1.52,2.8 3.07,5.37 4.16,7.9c2.22,5.06 2.52,9.77 1.68,12.76a11.57,11.57 0 0 1 -1.45,3.23c-0.44,0.71 -0.72,1.01 -0.76,0.99z" fill="#fafafa" id="svg_71"/>
    <path d="m455.1,305.17a6.54,6.54 0 0 1 -1.18,2.36a17.29,17.29 0 0 1 -5.12,4.98a21.98,21.98 0 0 1 -10.06,3.33a33.48,33.48 0 0 1 -12.85,-1.64a26.97,26.97 0 0 1 -11.22,-6.51a16.62,16.62 0 0 1 -3.27,-4.72a15.51,15.51 0 0 1 -1.27,-4.84a12.21,12.21 0 0 1 1.32,-7.02a7.51,7.51 0 0 1 0.59,-0.96a4.01,4.01 0 0 1 0.52,-0.65c0.29,-0.32 0.47,-0.48 0.51,-0.45s-0.53,0.78 -1.18,2.27a12.61,12.61 0 0 0 -0.87,6.71a14.95,14.95 0 0 0 1.32,4.51a16.17,16.17 0 0 0 3.16,4.35a26.4,26.4 0 0 0 10.77,6.13a33.54,33.54 0 0 0 12.4,1.69a21.67,21.67 0 0 0 9.69,-2.94a18.96,18.96 0 0 0 5.19,-4.51a25.29,25.29 0 0 1 1.56,-2.1z" fill="#fafafa" id="svg_72"/>
    <path d="m438.95,432.07s-0.06,-0.11 -0.13,-0.33s-0.18,-0.58 -0.31,-0.99c-0.26,-0.91 -0.64,-2.18 -1.12,-3.81l-4.01,-14.07c-3.35,-11.93 -7.95,-28.31 -12.98,-46.48c-2.52,-9.08 -4.92,-17.7 -7.08,-25.61a86.87,86.87 0 0 1 -2.51,-11.35a34.74,34.74 0 0 1 0,-10.13a21.85,21.85 0 0 1 6.68,-12.84a15.78,15.78 0 0 1 3.31,-2.23l0.96,-0.4a1.09,1.09 0 0 1 0.33,-0.12a18.67,18.67 0 0 0 -4.45,2.93a21.79,21.79 0 0 0 -6.39,12.73a34.32,34.32 0 0 0 0.11,9.99a86.99,86.99 0 0 0 2.55,11.27c2.19,7.88 4.61,16.52 7.15,25.6c5.01,18.16 9.56,34.59 12.85,46.53c1.62,5.9 2.91,10.75 3.83,14.16c0.42,1.64 0.77,2.94 1,3.86c0.11,0.41 0.19,0.74 0.25,1a1.29,1.29 0 0 1 -0.04,0.31z" fill="#263238" id="svg_73"/>
    <path d="m390.9,170.83a11.01,11.01 0 0 0 0,-2.52a9.85,9.85 0 0 0 -3.26,-5.9a13.26,13.26 0 0 0 -9.44,-3.1c-3.86,0 -7.96,1.3 -12.21,2.73c-2.12,0.7 -4.24,1.37 -6.31,1.83a31.98,31.98 0 0 1 -6.1,0.74a33.37,33.37 0 0 1 -10.29,-1.34a31.85,31.85 0 0 1 -6.43,-2.74a16.62,16.62 0 0 1 -1.62,-0.99a2.74,2.74 0 0 1 -0.53,-0.4s0.8,0.45 2.27,1.18a34.54,34.54 0 0 0 6.44,2.51a33.49,33.49 0 0 0 10.13,1.18a32.93,32.93 0 0 0 5.99,-0.76c2.04,-0.46 4.12,-1.18 6.25,-1.83c4.24,-1.43 8.42,-2.71 12.39,-2.71a13.58,13.58 0 0 1 9.7,3.35a9.87,9.87 0 0 1 3.21,6.15a5.7,5.7 0 0 1 -0.2,2.63z" fill="#455a64" id="svg_74"/>
    <path d="m407.13,206.09s-0.12,-0.14 -0.28,-0.44s-0.38,-0.74 -0.65,-1.33a26.63,26.63 0 0 1 -1.65,-5.18a28.31,28.31 0 0 1 -0.54,-8.07a70.78,70.78 0 0 1 1.86,-9.7a18.93,18.93 0 0 0 0,-9.58a9.65,9.65 0 0 0 -1.99,-3.65a7.34,7.34 0 0 0 -3,-1.96a6.82,6.82 0 0 0 -5.16,0.13a9.2,9.2 0 0 0 -1.59,1.12a3.92,3.92 0 0 1 1.49,-1.33a6.95,6.95 0 0 1 5.4,-0.33a7.75,7.75 0 0 1 3.23,2.03a10.24,10.24 0 0 1 2.16,3.81a19.32,19.32 0 0 1 0,9.89a75.35,75.35 0 0 0 -1.9,9.61a29.59,29.59 0 0 0 0.4,7.93a30.96,30.96 0 0 0 1.45,5.18c0.51,1.19 0.81,1.84 0.77,1.86z" fill="#455a64" id="svg_75"/>
    <path d="m392.91,169.14a4.48,4.48 0 0 1 0,-0.84c0,-0.6 0,-1.39 0.09,-2.36a28.1,28.1 0 0 0 -0.97,-8.67a15.49,15.49 0 0 0 -2.78,-5.26a10.81,10.81 0 0 0 -5.59,-3.69a14.06,14.06 0 0 0 -7.47,0.31a34.21,34.21 0 0 0 -7.47,3.39a60.26,60.26 0 0 1 -7.41,3.8a22.5,22.5 0 0 1 -7.63,1.53a24.13,24.13 0 0 1 -6.98,-0.85a27.4,27.4 0 0 1 -5.66,-2.36a23.04,23.04 0 0 1 -6.71,-5.73a14.99,14.99 0 0 1 -1.37,-1.98a4.13,4.13 0 0 1 -0.4,-0.73a3.81,3.81 0 0 1 0.51,0.66a17.07,17.07 0 0 0 1.44,1.9a24.05,24.05 0 0 0 6.74,5.5a27.23,27.23 0 0 0 5.59,2.23a24.11,24.11 0 0 0 6.84,0.78a22.11,22.11 0 0 0 7.42,-1.52a61.01,61.01 0 0 0 7.33,-3.79a34.99,34.99 0 0 1 7.61,-3.42a14.69,14.69 0 0 1 7.77,-0.28a11.23,11.23 0 0 1 5.84,3.93a15.48,15.48 0 0 1 2.81,5.46a26.26,26.26 0 0 1 0.79,8.79c-0.06,1.05 -0.14,1.85 -0.21,2.36a3.44,3.44 0 0 1 -0.12,0.86z" fill="#455a64" id="svg_76"/>
    <path d="m361.75,464.13l88.25,-13.15l-1.42,-7.86l47.42,0l1.38,12.08a36.49,36.49 0 0 1 -35.47,43.39l-102.89,-1.18l2.73,-33.28z" fill="#b78876" id="svg_77"/>
    <path d="m368.12,465.65c-0.47,0.15 -6.42,-2.51 -11.74,-4.98a38.47,38.47 0 0 0 -18.07,-3.54l-24.53,1.25s1.51,4.05 4.12,5.49s17.85,1.75 17.85,1.75l-0.79,0.8a17.61,17.61 0 0 1 -12.2,5.34l-2.36,0.06a22.87,22.87 0 0 1 -5.12,-1l-6.05,-2.44c-1.83,-0.83 -3.76,-0.7 -4.57,1.18c-0.72,1.66 -0.19,3.96 4.81,6.48c2.78,1.4 13.14,4.99 13.14,4.99a24.16,24.16 0 0 0 0.6,4.36c0.45,1.51 4.52,3.01 4.52,3.01a54.89,54.89 0 0 0 3.61,6.49c0.47,0.53 4.16,1.68 8.08,2.78a34.72,34.72 0 0 0 19.32,-0.15l9.36,-2.78l0,-28.47" fill="#b78876" id="svg_78"/>
    <path d="m334.56,484.24a27.94,27.94 0 0 1 -12.38,-3.26c0.07,-0.17 2.75,0.87 6.16,1.76s6.24,1.32 6.22,1.5z" fill="#aa6550" id="svg_79"/>
    <path d="m333.7,489.99a6.15,6.15 0 0 1 -3.44,-0.25a6.26,6.26 0 0 1 -3.1,-1.53a23.59,23.59 0 0 1 3.27,0.94a23.72,23.72 0 0 1 3.28,0.84z" fill="#aa6550" id="svg_80"/>
    <path d="m473.28,471.55c-0.12,0 -0.7,-1.71 -2.11,-4.29a33.03,33.03 0 0 0 -2.83,-4.32a36.63,36.63 0 0 0 -4.28,-4.64a37.43,37.43 0 0 0 -5.07,-3.76a34.02,34.02 0 0 0 -4.59,-2.36c-2.73,-1.12 -4.53,-1.52 -4.49,-1.64a5.54,5.54 0 0 1 1.29,0.26a11.48,11.48 0 0 1 1.46,0.39c0.57,0.18 1.18,0.35 1.91,0.64a30.09,30.09 0 0 1 4.72,2.27a35.01,35.01 0 0 1 5.19,3.79a36.16,36.16 0 0 1 4.33,4.72a30.22,30.22 0 0 1 2.75,4.46c0.37,0.65 0.6,1.29 0.85,1.83a11.68,11.68 0 0 1 0.53,1.42a5.24,5.24 0 0 1 0.35,1.25z" fill="#aa6550" id="svg_81"/>
    <path d="m338.18,463.44a11.04,11.04 0 0 1 -1.89,2.02a30.92,30.92 0 0 1 -5.34,4.05a21.23,21.23 0 0 1 -6.26,2.42a8.77,8.77 0 0 1 -2.76,0.29c-0.06,-0.22 4.25,-0.61 8.71,-3.24a40.75,40.75 0 0 0 5.37,-3.85a14.27,14.27 0 0 1 2.18,-1.69z" fill="#aa6550" id="svg_82"/>
   </g>
   <g id="freepik--character-1--inject-60">
    <path d="m84.39,435.46c2.1,0 -16.07,48.82 -20.75,61.29c-0.52,1.38 -0.87,2.6 -0.87,2.6l127.2,0.21l-1.5,-118.36a1.77,1.77 0 0 0 0,-0.24l-10.62,-84.66a2.1,2.1 0 0 0 -1.52,-1.76c-5.04,-1.36 -23.19,-6.04 -37.08,-6.56c-16.27,-0.6 -39.82,2.63 -39.82,2.63s-21.15,2.1 -32.83,6.35a2.08,2.08 0 0 0 -1.36,2.25l19.15,136.25z" fill="#407BFF" id="svg_83"/>
    <path d="m143.12,382.96a8.67,8.67 0 0 1 -0.64,1.55a14.59,14.59 0 0 1 -0.9,1.73a23.7,23.7 0 0 1 -1.34,2.21a27.57,27.57 0 0 1 -1.86,2.54a32.09,32.09 0 0 1 -2.36,2.7a41.41,41.41 0 0 1 -6.37,5.25a42.58,42.58 0 0 1 -7.36,3.75c-1.18,0.41 -2.36,0.84 -3.43,1.11a27.68,27.68 0 0 1 -3.07,0.68a24.4,24.4 0 0 1 -2.56,0.35a14,14 0 0 1 -1.96,0.13a7.59,7.59 0 0 1 -1.66,0c0,-0.13 2.36,-0.12 6.1,-0.87a30.31,30.31 0 0 0 3.01,-0.76c1.09,-0.28 2.19,-0.72 3.36,-1.18a43.65,43.65 0 0 0 7.23,-3.74a42.86,42.86 0 0 0 6.31,-5.13c0.86,-0.91 1.71,-1.75 2.36,-2.63a28.31,28.31 0 0 0 1.9,-2.45c2.22,-3.1 3.13,-5.3 3.24,-5.24z" fill="#263238" id="svg_84"/>
    <g id="svg_85" opacity="0.2">
     <path d="m67.08,487.48a37.43,37.43 0 0 0 36.49,-4.57c4.59,-3.33 8.43,-7.68 13.39,-10.45c6.87,-3.82 15.04,-4.19 22.89,-4.72c10.49,-0.76 21.07,-2.04 30.93,-5.7a12.36,12.36 0 0 0 5.41,-3.27c1.36,-1.64 1.82,-4.22 0.48,-5.9s-3.87,-1.79 -6.05,-1.72c-32.89,0.97 -62.95,3.6 -94.97,11.21" id="svg_86"/>
    </g>
    <path d="m102.53,166.2c10.17,-10.36 26.21,-16.52 39.5,-10.62c8.94,3.92 15.01,12.3 22.85,18.1c5.71,4.22 12.76,7.49 15.76,13.93c2.64,5.67 1.37,12.29 0.73,18.52s-0.19,13.41 4.64,17.41c2.52,2.09 5.9,2.93 8.72,4.55c5.75,3.29 9.15,9.7 10.38,16.2s0.57,13.2 -0.09,19.8l-27.38,5.21l-4.49,-7.56l-1.55,11.86l-34.94,3.15l-34.12,-110.55z" fill="#263238" id="svg_87"/>
    <path d="m98.01,177.5l0,7.61l-2.16,114.21c-0.19,13.24 12.48,24.5 26.66,24.6l0,0c14.31,0.09 20.15,-10.62 20.56,-24.03c0.42,-14.03 1.18,-28.8 1.18,-28.8s18.16,-2.5 22.56,-25.95c2.18,-11.68 2.12,-30.92 1.57,-46.67a24.93,24.93 0 0 0 -26.84,-23.98l-43.53,3.02z" fill="#ffbe9d" id="svg_88"/>
    <path d="m162.06,213.6a3.01,3.01 0 0 1 -3,2.96a2.89,2.89 0 0 1 -3.04,-2.81a3.03,3.03 0 0 1 3,-2.97a2.89,2.89 0 0 1 3.04,2.82z" fill="#263238" id="svg_89"/>
    <path d="m163.84,208.32c-0.39,0.39 -2.63,-1.38 -5.9,-1.45s-5.69,1.47 -6.03,1.06c-0.17,-0.18 0.24,-0.87 1.3,-1.6a8.19,8.19 0 0 1 4.84,-1.34a7.94,7.94 0 0 1 4.72,1.65c0.94,0.79 1.26,1.51 1.07,1.69z" fill="#263238" id="svg_90"/>
    <path d="m129.99,213.6a3.02,3.02 0 0 1 -3,2.96a2.89,2.89 0 0 1 -3.04,-2.81a3.03,3.03 0 0 1 3,-2.97a2.89,2.89 0 0 1 3.04,2.82z" fill="#263238" id="svg_91"/>
    <path d="m131.82,208.05c-0.39,0.38 -2.63,-1.38 -5.9,-1.46s-5.69,1.49 -6.03,1.07c-0.17,-0.18 0.24,-0.88 1.3,-1.6a8.26,8.26 0 0 1 4.84,-1.36a7.99,7.99 0 0 1 4.72,1.65c0.94,0.8 1.26,1.52 1.07,1.7z" fill="#263238" id="svg_92"/>
    <path d="m142.97,232.55c0,-0.19 2.03,-0.48 5.31,-0.81c0.84,-0.06 1.63,-0.2 1.78,-0.77a4.2,4.2 0 0 0 -0.48,-2.48c-0.72,-2.04 -1.49,-4.16 -2.29,-6.41c-3.16,-9.1 -5.43,-16.52 -5.06,-16.7s3.23,7.16 6.39,16.27c0.77,2.24 1.5,4.38 2.18,6.43a4.72,4.72 0 0 1 0.34,3.27a2.08,2.08 0 0 1 -1.4,1.18a5.27,5.27 0 0 1 -1.42,0.15c-3.3,0.06 -5.34,0.01 -5.36,-0.13z" fill="#263238" id="svg_93"/>
    <path d="m144.16,271.09a59.98,59.98 0 0 1 -31.36,-9.3s7.21,16.41 30.88,14.85l0.47,-5.56z" fill="#eb996e" id="svg_94"/>
    <path d="m141.38,240.31a5.9,5.9 0 0 0 -5.2,-2.36a5.37,5.37 0 0 0 -3.75,1.89a3.41,3.41 0 0 0 -0.37,3.87a3.96,3.96 0 0 0 4.25,1.18a12.5,12.5 0 0 0 4.22,-2.36a3.47,3.47 0 0 0 0.96,-0.94a1.07,1.07 0 0 0 0,-1.18" fill="#eb996e" id="svg_95"/>
    <path d="m133.33,234.49c0.53,0 0.44,3.54 3.39,6.11s6.74,2.3 6.75,2.8c0,0.22 -0.86,0.67 -2.45,0.66a8.73,8.73 0 0 1 -5.63,-2.14a7.63,7.63 0 0 1 -2.62,-5.11c-0.11,-1.49 0.32,-2.35 0.57,-2.32z" fill="#263238" id="svg_96"/>
    <path d="m132.86,198.57c-0.35,0.87 -3.54,0.37 -7.42,0.72s-6.95,1.31 -7.43,0.51c-0.21,-0.39 0.34,-1.18 1.62,-2.03a12.98,12.98 0 0 1 11.31,-0.93c1.38,0.6 2.06,1.32 1.92,1.73z" fill="#263238" id="svg_97"/>
    <path d="m163.96,201.75c-0.72,0.72 -3.42,-0.13 -6.71,-0.26s-6.06,0.33 -6.69,-0.46c-0.27,-0.38 0.19,-1.11 1.43,-1.77a10.74,10.74 0 0 1 5.49,-1.06a10.62,10.62 0 0 1 5.31,1.63c1.13,0.79 1.5,1.57 1.18,1.92z" fill="#263238" id="svg_98"/>
    <path d="m73.67,294.8s-37.94,8.9 -45.3,44.83c-3.39,16.52 -8.12,111.45 13.99,126.23c28.54,19.04 64.88,1.72 64.88,1.72l-4.72,-45.91l-23.59,0l-3.17,-50.3c0.92,3.93 -2.09,-76.56 -2.09,-76.56z" fill="#407BFF" id="svg_99"/>
    <path d="m208.63,452.81a29.34,29.34 0 0 0 26.32,-30.45l-15.5,-65.86s-10.05,-56.51 -41.82,-61.6l10.83,86.12l-1.04,18.16s0.5,12.01 1.71,34.52l19.5,19.12z" fill="#407BFF" id="svg_100"/>
    <path d="m212.74,411.6a39.76,39.76 0 0 0 -5.71,0.63a23.24,23.24 0 0 0 -18.24,18.62a39.49,39.49 0 0 0 -0.51,5.73a6.25,6.25 0 0 1 -0.18,-1.56a20.31,20.31 0 0 1 0.26,-4.26a22.87,22.87 0 0 1 18.62,-18.9a21.58,21.58 0 0 1 4.26,-0.35a6.15,6.15 0 0 1 1.5,0.09z" fill="#263238" id="svg_101"/>
    <path d="m114.86,163.57c4.27,5.73 6.3,10.13 8.86,20.34c1.26,4.99 -2.81,8.52 -6.84,11.57a3.24,3.24 0 0 1 -5.13,-1.89l0,0s1.39,15.63 -4.26,22.64c-2.64,3.29 -2.76,7.5 -2.14,11.05a18.76,18.76 0 0 0 5.05,9.56c6.56,6.89 8.38,18.13 3.86,26.58a71.31,71.31 0 0 0 -3.6,6.42a9.67,9.67 0 0 0 -0.74,4.15a3.3,3.3 0 0 1 -2.8,3.54a258.58,258.58 0 0 1 -58.63,1.76a3.22,3.22 0 0 1 -2.87,-2.43c-1.53,-6.56 1.03,-13.64 4.29,-19.54c3.66,-6.67 8.26,-13.06 9.57,-20.55c1.18,-7.08 -0.74,-14.65 2.09,-21.23c3.54,-8.06 12.98,-11.87 17.7,-19.26c4.47,-6.97 4.11,-16.11 8.1,-23.36c5.14,-9.32 17.78,-13.61 27.52,-9.36" fill="#263238" id="svg_102"/>
    <path d="m115.94,172.22c7.42,3.82 10.85,12.89 18.06,17.09c6.56,3.82 14.75,2.82 22.26,1.69c-0.27,-1.66 -0.55,-3.34 -0.84,-5a13.67,13.67 0 0 0 2.78,4.05a4.57,4.57 0 0 0 4.57,1.09c2.52,-1.01 2.85,-4.48 2.22,-7.08a24.49,24.49 0 0 0 -6.56,-11.11a33.28,33.28 0 0 0 -43.4,-3.47" fill="#263238" id="svg_103"/>
    <path d="m185.51,340.15a4.72,4.72 0 0 1 0.07,0.93c0,0.66 0,1.55 0.08,2.65c0,2.36 0.17,5.65 0.34,9.77c0.34,8.26 1.11,19.63 2.04,32.19s1.63,23.96 1.85,32.22c0.12,4.13 0.18,7.47 0.14,9.78q0,1.66 0,2.65a5.16,5.16 0 0 1 0,0.93a4.72,4.72 0 0 1 -0.07,-0.93c0,-0.66 0,-1.55 -0.08,-2.65c0,-2.36 -0.17,-5.64 -0.34,-9.77c-0.33,-8.26 -1.11,-19.62 -2.03,-32.19s-1.64,-23.95 -1.86,-32.21c-0.12,-4.13 -0.17,-7.48 -0.14,-9.79q0,-1.66 0,-2.65a7.08,7.08 0 0 1 0,-0.93z" fill="#263238" id="svg_104"/>
    <path d="m78.97,421.68a2.8,2.8 0 0 1 -0.08,-0.66c0,-0.51 -0.07,-1.18 -0.13,-1.9c-0.09,-1.73 -0.22,-4.08 -0.38,-6.96c-0.34,-5.9 -0.86,-14 -1.47,-22.98s-1.18,-17.01 -1.59,-22.97c-0.19,-2.87 -0.34,-5.23 -0.46,-6.96c0,-0.77 -0.07,-1.39 -0.09,-1.89a2.69,2.69 0 0 1 0,-0.67a3.31,3.31 0 0 1 0.11,0.66c0,0.5 0.13,1.12 0.21,1.89c0.17,1.72 0.39,4.07 0.66,6.95c0.52,5.9 1.18,13.98 1.77,22.96s1.06,17.11 1.29,22.99c0.11,2.95 0.19,5.33 0.2,6.97l0,1.9a2.5,2.5 0 0 1 -0.02,0.67z" fill="#263238" id="svg_105"/>
    <path d="m78.97,421.68c0,0.11 -1.18,0.17 -3.09,0.79a13.76,13.76 0 0 0 -9.28,11.04c-0.29,1.93 -0.14,3.16 -0.25,3.17s-0.12,-0.29 -0.19,-0.85a10.62,10.62 0 0 1 0,-2.36a13.34,13.34 0 0 1 3.04,-7.18a13.61,13.61 0 0 1 6.56,-4.22a11.53,11.53 0 0 1 2.36,-0.4c0.54,-0.06 0.85,-0.04 0.85,0.01z" fill="#263238" id="svg_106"/>
    <path d="m107.19,467.59a3.31,3.31 0 0 1 -0.14,-0.73c-0.07,-0.54 -0.15,-1.24 -0.27,-2.1c-0.21,-1.9 -0.51,-4.51 -0.87,-7.72c-0.7,-6.58 -1.64,-15.56 -2.68,-25.47c-0.34,-3.44 -0.68,-6.78 -0.99,-9.87l0.29,0.27l-18.88,-0.12l-5.49,-0.08l-1.46,0a2.17,2.17 0 0 1 -0.51,0a1.76,1.76 0 0 1 0.51,-0.06l1.46,0l5.49,-0.08l18.88,-0.11l0.26,0l0,0.27l1.01,9.86c0.97,9.92 1.84,18.88 2.49,25.51c0.28,3.21 0.52,5.83 0.68,7.73c0.07,0.86 0.12,1.57 0.17,2.11a3.54,3.54 0 0 1 0.05,0.59z" fill="#263238" id="svg_107"/>
    <path d="m107.19,467.59a7.53,7.53 0 0 1 -0.9,0.32l-2.58,0.83c-2.25,0.71 -5.52,1.7 -9.6,2.78a120.06,120.06 0 0 1 -14.53,3.02a50.14,50.14 0 0 1 -18.12,-0.86a77.48,77.48 0 0 1 -9.08,-2.55c-1.43,-0.52 -2.83,-1.04 -4.19,-1.6c-0.67,-0.28 -1.34,-0.55 -1.98,-0.9l-0.97,-0.48l-0.91,-0.58a22.1,22.1 0 0 1 -5.69,-5.58a38.8,38.8 0 0 1 -3.54,-5.98a69.82,69.82 0 0 1 -3.54,-9.36c-0.35,-1.18 -0.61,-2.01 -0.77,-2.61a6.91,6.91 0 0 1 -0.22,-0.93a5.27,5.27 0 0 1 0.34,0.9l0.87,2.57a78.65,78.65 0 0 0 3.73,9.23a39.5,39.5 0 0 0 3.54,5.9a21.65,21.65 0 0 0 5.59,5.4l0.87,0.55l0.93,0.47c0.61,0.33 1.29,0.59 1.96,0.87c1.34,0.55 2.74,1.07 4.16,1.57a76.93,76.93 0 0 0 9.01,2.52a50.46,50.46 0 0 0 17.92,0.91a128.44,128.44 0 0 0 14.5,-2.88c4.08,-1.04 7.36,-1.97 9.64,-2.6l2.62,-0.72a4.72,4.72 0 0 1 0.93,-0.22z" fill="#263238" id="svg_108"/>
    <path d="m87.17,191.52a15.1,15.1 0 0 0 -3.46,-16.52a16.96,16.96 0 0 0 -16.69,-3.61a12.84,12.84 0 0 0 -6.52,4.53c-2.89,3.99 -2.36,9.86 0.66,13.79a17.38,17.38 0 0 0 12.89,6.26a33.03,33.03 0 0 0 14.37,-2.97" fill="#263238" id="svg_109"/>
    <path d="m126.4,378.62c8.26,6.81 27.68,22.92 27.68,22.92l10.87,-1.93l-32.94,-27.71a4.38,4.38 0 0 0 -5.98,0.34l0,0a4.35,4.35 0 0 0 0.38,6.38z" fill="#455a64" id="svg_110"/>
    <path d="m125.58,375.08l-4.27,-3.86a2.1,2.1 0 0 1 -0.2,-2.9l0,0a2.1,2.1 0 0 1 3.01,-0.19l4.12,3.78l-2.65,3.17z" fill="#455a64" id="svg_111"/>
    <path d="m138.25,377.16a14.52,14.52 0 0 1 -2.65,3.24a15.08,15.08 0 0 1 -3.09,2.83a14.72,14.72 0 0 1 2.65,-3.26a14.4,14.4 0 0 1 3.09,-2.82z" fill="#263238" id="svg_112"/>
    <path d="m138.56,390.72a20.88,20.88 0 0 1 -3.29,-2.15c-1.96,-1.42 -4.61,-3.47 -7.41,-5.9a12.34,12.34 0 0 1 -3.47,-4a5.7,5.7 0 0 1 -0.11,-4.33a5.51,5.51 0 0 1 1.75,-2.36c0.55,-0.41 0.92,-0.54 0.93,-0.51s-0.29,0.24 -0.78,0.7a5.63,5.63 0 0 0 -1.49,2.36a5.34,5.34 0 0 0 0.21,3.95a12.42,12.42 0 0 0 3.36,3.76c2.77,2.42 5.37,4.52 7.27,6.02a31.24,31.24 0 0 1 3.02,2.45z" fill="#263238" id="svg_113"/>
    <path d="m102.9,425.35c7.83,-2.62 16.14,-0.85 23.96,-3.48a20.67,20.67 0 0 0 7.4,-3.65c2.49,-2.21 3.75,-5.45 5.73,-8.12c5.9,-7.97 16.98,-9.63 26.86,-10.62a20.06,20.06 0 0 1 6.91,0.09a6.76,6.76 0 0 1 5.03,4.34c0.64,2.23 -0.8,5.01 -3.11,5.25c2.17,0.09 3.68,2.29 4.08,4.42s0,4.33 0.33,6.48c0.4,3.02 2.05,5.84 1.96,8.88c-0.13,4.16 -3.54,7.6 -7.43,9.2s-8.1,1.82 -12.22,2.36c-20.29,2.85 -35.63,14.36 -55.2,23.05" fill="#ffbe9d" id="svg_114"/>
    <path d="m179.94,416.37a2.78,2.78 0 0 0 3.99,0.81a4.26,4.26 0 0 0 1.53,-4.12a9.64,9.64 0 0 0 -1.96,-4.15a54.74,54.74 0 0 0 -5.66,-6.26l-6.25,5.26l8.35,8.46z" fill="#ffbe9d" id="svg_115"/>
    <path d="m177.63,409.51c0,0.2 -3.85,-0.12 -8.48,0.6s-8.26,2.11 -8.26,1.93a8.53,8.53 0 0 1 2.29,-1.06a32.41,32.41 0 0 1 5.9,-1.49a31.07,31.07 0 0 1 6.08,-0.32a8.66,8.66 0 0 1 2.48,0.33z" fill="#eb996e" id="svg_116"/>
    <path d="m180.39,421.8c0,0.19 -3.22,-0.47 -7.2,-0.35s-7.14,0.9 -7.17,0.71a23.13,23.13 0 0 1 14.37,-0.35z" fill="#eb996e" id="svg_117"/>
    <path d="m179.73,418.16c-0.11,0 0,-0.92 -0.18,-2.36a12.38,12.38 0 0 0 -1.9,-5.24a11.44,11.44 0 0 0 -0.8,-1.1l-0.18,-0.22l0.19,-0.19a5.71,5.71 0 0 0 1.64,-4.15c0,-1.18 -0.35,-1.84 -0.27,-1.88a3.01,3.01 0 0 1 0.66,1.85a5.71,5.71 0 0 1 -1.6,4.61l0,-0.41a12.59,12.59 0 0 1 0.86,1.18a11.37,11.37 0 0 1 1.82,5.54a5.51,5.51 0 0 1 -0.24,2.36z" fill="#eb996e" id="svg_118"/>
    <path d="m179.96,415.7l10.29,9.65l1.31,5.73l-9.51,-2.15c-1.37,-4.84 -2.37,-9.45 -2.09,-13.24z" fill="#455a64" id="svg_119"/>
    <path d="m166.02,427.99c-0.21,0.38 -55.54,27.65 -55.54,27.65l0,5.9l56.46,-29.37l70.04,-2.61l0,-4.15l-70.96,2.58z" fill="#f5f5f5" id="svg_120"/>
    <path d="m110.48,462.36c0.39,-0.26 61.09,-5.73 61.09,-5.73l65.42,-27.13l-70.04,2.64l-56.46,29.37l0,0.85z" fill="#263238" id="svg_121"/>
    <path d="m168.59,447.83c-0.48,-3.19 2.56,-5.9 5.66,-6.76s6.42,-0.51 9.56,-1.18a41.81,41.81 0 0 0 5.83,-2.08c9.67,-3.7 20.29,-3.9 30.67,-4.05a6.58,6.58 0 0 1 -2.36,8.05a10.83,10.83 0 0 1 -0.32,7.76a24.31,24.31 0 0 1 -4.33,6.64a14.85,14.85 0 0 1 -5.11,4.28a16.88,16.88 0 0 1 -6.56,1.01c-6.96,0.14 -14.42,0.15 -20.16,-3.75c-4.47,-3.04 -7.56,-8.26 -12.74,-9.79l1.18,0" fill="#ffbe9d" id="svg_122"/>
    <path d="m214.96,443.98a5.37,5.37 0 0 1 -1.32,0.13l-3.63,0.12c-3.07,0.07 -7.3,0.12 -11.97,0.14l-6.61,0a9.07,9.07 0 0 1 -2.91,-0.44a4.54,4.54 0 0 1 -2.11,-1.55a2.77,2.77 0 0 1 -0.54,-2.09a2.69,2.69 0 0 1 0.73,-1.45a1.47,1.47 0 0 1 1.18,-0.52a2.68,2.68 0 0 0 -1.06,0.68a2.36,2.36 0 0 0 0,3.11a4.11,4.11 0 0 0 1.92,1.32a8.9,8.9 0 0 0 2.76,0.35l6.59,0c4.72,0 8.91,0 11.97,0l3.63,0.07a5.21,5.21 0 0 1 1.37,0.11z" fill="#eb996e" id="svg_123"/>
    <path d="m211.39,449.8a9.59,9.59 0 0 1 -1.66,0.32c-1.09,0.18 -2.65,0.4 -4.6,0.59a44.42,44.42 0 0 1 -6.9,0.15a50.08,50.08 0 0 1 -8.33,-1.39a65,65 0 0 0 -15.06,-1.85c-1.95,0 -3.54,0.07 -4.61,0.13a9.92,9.92 0 0 1 -1.71,0a8.74,8.74 0 0 1 1.69,-0.28a44.97,44.97 0 0 1 4.62,-0.33a58.48,58.48 0 0 1 15.21,1.69a54.53,54.53 0 0 0 8.26,1.44a50.02,50.02 0 0 0 6.83,0c1.95,-0.13 3.54,-0.29 4.6,-0.39a8.38,8.38 0 0 1 1.68,-0.07z" fill="#eb996e" id="svg_124"/>
    <path d="m205.63,456.03a5.65,5.65 0 0 1 -1.31,0.24c-0.84,0.12 -2.06,0.27 -3.54,0.4a43.45,43.45 0 0 1 -11.89,-0.39c-4.66,-0.88 -8.26,-3.27 -11.05,-4.36a27.52,27.52 0 0 0 -4.66,-1.43a3.76,3.76 0 0 1 1.32,0.07a16.01,16.01 0 0 1 3.54,0.96c2.89,1.03 6.49,3.3 11.02,4.16a49.15,49.15 0 0 0 11.8,0.55l3.54,-0.2a5.6,5.6 0 0 1 1.24,0z" fill="#eb996e" id="svg_125"/>
    <g id="svg_126" opacity="0.2">
     <path d="m189.94,424.36a39.54,39.54 0 0 1 3.44,-12.49a19.26,19.26 0 0 1 8.88,-9.08a12.8,12.8 0 0 1 12.4,0.76a6.5,6.5 0 0 1 2.48,2.96a3.54,3.54 0 0 1 -0.6,3.66c-1.3,1.39 -3.54,1.18 -5.4,1.09a22.77,22.77 0 0 0 -21.03,12.67" id="svg_127"/>
    </g>
    <g id="svg_128" opacity="0.2">
     <path d="m87.49,420.77c4.72,-8.46 3.02,-19.06 -0.58,-28.03s-8.97,-17.22 -11.71,-26.5a163.48,163.48 0 0 0 8.08,55.45" id="svg_129"/>
    </g>
    <path d="m95.79,291.39s5.72,13.48 26.37,12.62s21.31,-16.87 21.31,-16.87l13.81,14.69l-13.12,27.03l-17.62,13.15l-24.01,-9.86l-19.78,-15.34l13.05,-25.42z" fill="#407BFF" id="svg_130"/>
    <g id="svg_131" opacity="0.5">
     <path d="m47.45,349.03c0.21,0.26 -2.48,2.78 -6.03,5.63s-6.58,4.93 -6.8,4.66s2.48,-2.77 6.02,-5.62s6.59,-4.94 6.81,-4.67z" fill="#fafafa" id="svg_132"/>
    </g>
    <path d="m57.16,334.49c-0.11,0.31 -3.36,-0.61 -6.89,-2.8s-5.83,-4.65 -5.6,-4.88s2.82,1.76 6.24,3.85s6.35,3.5 6.25,3.83z" fill="#fafafa" id="svg_133"/>
    <path d="m74.85,336.07c0.28,0.21 -2.36,4 -5.3,8.81s-5.21,8.82 -5.52,8.67s1.45,-4.45 4.48,-9.32s6.09,-8.38 6.34,-8.16z" fill="#fafafa" id="svg_134"/>
    <path d="m59.71,377.06c-0.24,0.21 -2.96,-2.57 -5.34,-6.69s-3.47,-7.86 -3.16,-7.96s1.88,3.34 4.22,7.34s4.55,7.08 4.28,7.31z" fill="#fafafa" id="svg_135"/>
    <path d="m43.88,396.89c-0.33,0 -1.03,-2.95 -1.53,-6.7s-0.65,-6.83 -0.32,-6.88s1.03,2.96 1.53,6.71s0.63,6.82 0.32,6.87z" fill="#fafafa" id="svg_136"/>
    <g id="svg_137" opacity="0.5">
     <path d="m58.79,402.3c-0.29,-0.17 1.18,-3.33 3.39,-7.08s4.15,-6.62 4.45,-6.45s-1.18,3.34 -3.39,7.08s-4.15,6.58 -4.45,6.45z" fill="#fafafa" id="svg_138"/>
    </g>
    <path d="m41.47,422.84c-0.25,0.22 -2.88,-2.36 -5.44,-6.09s-4.01,-7.08 -3.73,-7.26s2.23,2.9 4.72,6.56s4.71,6.56 4.45,6.78z" fill="#fafafa" id="svg_139"/>
    <path d="m65,419.45c0.24,0.24 -2.48,3.36 -6.05,6.97s-6.68,6.36 -6.92,6.12s2.47,-3.36 6.05,-6.98s6.68,-6.35 6.92,-6.11z" fill="#fafafa" id="svg_140"/>
    <g id="svg_141" opacity="0.5">
     <path d="m51.63,461.84c-0.22,0.24 -2.84,-1.93 -5.23,-5.36s-3.54,-6.61 -3.26,-6.74s1.95,2.74 4.27,6.03s4.46,5.82 4.21,6.06z" fill="#fafafa" id="svg_142"/>
    </g>
    <path d="m81.99,453.26c0.17,0.29 -2.74,2.27 -6.48,4.4s-6.92,3.63 -7.08,3.34s2.74,-2.27 6.48,-4.4s6.91,-3.63 7.08,-3.34z" fill="#fafafa" id="svg_143"/>
    <path d="m93.82,443.49c-0.21,0.25 -2.96,-1.85 -5.46,-5.29s-3.67,-6.69 -3.36,-6.81s1.93,2.78 4.35,6.09s4.72,5.75 4.47,6z" fill="#fafafa" id="svg_144"/>
    <path d="m114.69,375.55c0.21,0.27 -2.91,2.96 -6.97,5.99s-7.5,5.27 -7.72,5s2.93,-2.95 6.98,-5.98s7.5,-5.27 7.7,-5.01z" fill="#fafafa" id="svg_145"/>
    <path d="m92.7,374.11c-0.34,0 -0.28,-3.27 0.12,-7.22s1,-7.08 1.34,-7.08s0.28,3.27 -0.12,7.22s-1.01,7.14 -1.34,7.08z" fill="#fafafa" id="svg_146"/>
    <g id="svg_147" opacity="0.5">
     <path d="m112.98,346.5c-0.19,0.27 -3.85,-1.98 -7.86,-5.41s-6.82,-6.68 -6.58,-6.9s3.41,2.58 7.39,5.97s7.26,6.06 7.05,6.35z" fill="#fafafa" id="svg_148"/>
    </g>
    <path d="m97.75,312.03c0.26,0.22 -2.36,3.69 -5.76,7.75s-6.44,7.16 -6.7,6.95s2.36,-3.69 5.76,-7.75s6.44,-7.16 6.7,-6.95z" fill="#fafafa" id="svg_149"/>
    <g id="svg_150" opacity="0.5">
     <path d="m80.3,308.33c-0.19,0.31 -2.82,-1.05 -6.25,-2.19s-6.28,-1.7 -6.28,-2.05s3.11,-0.33 6.7,0.88s6,3.08 5.83,3.36z" fill="#fafafa" id="svg_151"/>
    </g>
    <path d="m124.65,324.22c-0.32,-0.09 0.24,-2.96 1.25,-6.41s2.1,-6.16 2.36,-6.06s-0.22,2.96 -1.18,6.41s-2.1,6.17 -2.43,6.06z" fill="#fafafa" id="svg_152"/>
    <path d="m135.26,351.38c-0.34,0 -0.46,-2.83 -0.26,-6.28s0.64,-6.22 0.97,-6.21s0.46,2.83 0.26,6.28s-0.64,6.23 -0.97,6.21z" fill="#fafafa" id="svg_153"/>
    <path d="m152.72,371.75c-0.21,0.27 -2.8,-1.45 -5.77,-3.85s-5.21,-4.54 -5,-4.8s2.8,1.45 5.77,3.85s5.18,4.54 5,4.8z" fill="#fafafa" id="svg_154"/>
    <path d="m171.25,343.31c0.22,0.25 -2.08,2.65 -5.14,5.36s-5.73,4.72 -5.9,4.44s2.08,-2.65 5.14,-5.36s5.67,-4.7 5.9,-4.44z" fill="#fafafa" id="svg_155"/>
    <g id="svg_156" opacity="0.5">
     <path d="m162.72,329.87c-0.19,0.28 -3.1,-1.32 -6.24,-3.93s-5.26,-5.18 -5.03,-5.4s2.71,1.9 5.8,4.45s5.65,4.6 5.46,4.88z" fill="#fafafa" id="svg_157"/>
    </g>
    <path d="m184.17,305.93c0.27,0.19 -1.18,2.63 -3.68,4.99s-5.04,3.66 -5.21,3.37s1.95,-1.98 4.36,-4.26s4.25,-4.34 4.53,-4.11z" fill="#fafafa" id="svg_158"/>
    <g id="svg_159" opacity="0.5">
     <path d="m169.42,303.68c0,0.33 -3.81,0.06 -8.26,-1.09s-7.94,-2.68 -7.82,-3s3.69,0.7 8.13,1.8s8,1.92 7.95,2.28z" fill="#fafafa" id="svg_160"/>
    </g>
    <g id="svg_161" opacity="0.5">
     <path d="m196.81,341.81c-0.32,-0.07 0.41,-4.72 2.1,-10.17s3.63,-9.72 3.94,-9.6s-1.11,4.52 -2.76,9.96s-2.94,9.89 -3.28,9.82z" fill="#fafafa" id="svg_162"/>
    </g>
    <path d="m202.89,367.84c-0.25,0.22 -3.16,-2.45 -6.51,-6s-5.9,-6.61 -5.6,-6.84s3.15,2.45 6.5,6s5.86,6.61 5.62,6.84z" fill="#fafafa" id="svg_163"/>
    <g id="svg_164" opacity="0.5">
     <path d="m212.29,382.57c-0.34,0 -0.55,-3.87 -0.47,-8.64s0.42,-8.61 0.77,-8.61s0.54,3.87 0.46,8.64s-0.42,8.62 -0.76,8.61z" fill="#fafafa" id="svg_165"/>
    </g>
    <path d="m202.75,406.85c-0.27,0.19 -2.8,-2.9 -5.13,-7.22s-3.54,-8.13 -3.24,-8.26s2.02,3.42 4.33,7.66s4.33,7.62 4.05,7.82z" fill="#fafafa" id="svg_166"/>
    <path d="m227.11,411.29c0.25,0.24 -1.39,2.22 -3.65,4.42s-4.28,3.79 -4.52,3.54s1.4,-2.23 3.66,-4.44s4.27,-3.78 4.51,-3.53z" fill="#fafafa" id="svg_167"/>
    <g id="svg_168" opacity="0.5">
     <path d="m167.79,383.62c-0.31,-0.09 0.78,-3.96 3.54,-8s6,-6.43 6.21,-6.17s-2.52,2.97 -5.19,6.88s-4.22,7.42 -4.55,7.29z" fill="#fafafa" id="svg_169"/>
    </g>
    <path d="m99,415.98c-0.33,-0.08 0.25,-3.54 1.29,-7.83s2.17,-7.63 2.5,-7.55s-0.26,3.6 -1.3,7.85s-2.17,7.62 -2.49,7.54z" fill="#fafafa" id="svg_170"/>
    <path d="m127.94,418.87c-0.19,0.28 -3.13,-1.31 -6.56,-3.54s-6.08,-4.28 -5.9,-4.57s3.11,1.3 6.56,3.54s6.12,4.28 5.9,4.57z" fill="#fafafa" id="svg_171"/>
    <path d="m126.53,397.97c-0.28,0.19 -1.66,-1.38 -3.09,-3.54s-2.36,-4 -2.06,-4.19s1.66,1.38 3.09,3.54s2.3,4 2.06,4.19z" fill="#fafafa" id="svg_172"/>
    <path d="m139.3,402.73c0.19,0.27 -1.05,1.47 -2.77,2.69s-3.28,1.97 -3.48,1.7s1.05,-1.49 2.77,-2.7s3.28,-1.99 3.48,-1.69z" fill="#fafafa" id="svg_173"/>
    <g id="svg_174" opacity="0.5">
     <path d="m105.94,487.54c-0.34,-0.11 0.21,-2.78 0.7,-6.09s0.76,-6.03 1.11,-6.03s0.61,2.8 0.11,6.21s-1.6,6.02 -1.91,5.91z" fill="#fafafa" id="svg_175"/>
    </g>
    <g id="svg_176" opacity="0.5">
     <path d="m135.34,477.93c-0.29,0.17 -2.54,-3.22 -5,-7.55s-4.24,-8 -3.94,-8.16s2.54,3.21 5,7.55s4.24,8.03 3.94,8.16z" fill="#fafafa" id="svg_177"/>
    </g>
    <g id="svg_178" opacity="0.5">
     <path d="m166.52,464.82c0.27,0.2 -2.68,4.52 -6.59,9.64s-7.31,9.1 -7.59,8.9s2.69,-4.52 6.61,-9.64s7.31,-9.11 7.57,-8.9z" fill="#fafafa" id="svg_179"/>
    </g>
    <g id="svg_180" opacity="0.5">
     <path d="m175.31,489.87c0,0.33 -3.86,1.18 -8.72,1.88s-8.85,1 -8.9,0.67s3.85,-1.18 8.72,-1.89s8.85,-1 8.9,-0.66z" fill="#fafafa" id="svg_181"/>
    </g>
    <path d="m176.66,477.24c-0.34,-0.08 0,-2.6 0.08,-5.69s0,-5.63 0.41,-5.67s0.97,2.5 0.81,5.72s-0.99,5.72 -1.31,5.64z" fill="#fafafa" id="svg_182"/>
    <path d="m134.56,491.94c-0.12,0.29 -3.31,-0.76 -6.64,-3.16s-5.36,-5.07 -5.11,-5.27s2.61,1.98 5.83,4.27s6.06,3.83 5.92,4.16z" fill="#fafafa" id="svg_183"/>
    <path d="m84.53,490.08c-0.33,-0.08 0,-2.78 0.87,-6.02s1.75,-5.8 2.08,-5.72s-0.07,2.77 -0.88,6.02s-1.73,5.8 -2.06,5.72z" fill="#fafafa" id="svg_184"/>
    <path d="m79.09,191.68c0.07,-0.09 1.42,1.06 3.88,2.36a29.65,29.65 0 0 0 4.52,1.97a32.25,32.25 0 0 0 5.9,1.31a31.38,31.38 0 0 0 6.03,0.06a27.13,27.13 0 0 0 4.86,-0.9c2.71,-0.76 4.27,-1.57 4.33,-1.46a5.21,5.21 0 0 1 -1.07,0.63a11.15,11.15 0 0 1 -1.32,0.6a18.39,18.39 0 0 1 -1.82,0.66a25.55,25.55 0 0 1 -4.92,1.04a29.85,29.85 0 0 1 -6.16,0a29.37,29.37 0 0 1 -5.99,-1.39a25.84,25.84 0 0 1 -4.55,-2.12c-0.63,-0.34 -1.18,-0.73 -1.62,-1.05a11.1,11.1 0 0 1 -1.18,-0.9c-0.59,-0.47 -0.92,-0.77 -0.88,-0.8z" fill="#455a64" id="svg_185"/>
    <path d="m109.56,205.26a6.04,6.04 0 0 1 -1.29,0.39c-0.84,0.21 -2.05,0.5 -3.54,0.76a32.45,32.45 0 0 1 -12.08,0.07a18.88,18.88 0 0 1 -10.44,-5.9a13.08,13.08 0 0 1 -1.98,-3.11a4.28,4.28 0 0 1 -0.42,-1.27a20.89,20.89 0 0 0 2.74,4.11a19.29,19.29 0 0 0 10.24,5.63a35.39,35.39 0 0 0 11.89,0.11c1.52,-0.21 2.75,-0.42 3.54,-0.57a5.82,5.82 0 0 1 1.34,-0.2z" fill="#455a64" id="svg_186"/>
    <path d="m67.55,277.46a1.18,1.18 0 0 1 -0.15,-0.17c-0.08,-0.12 -0.24,-0.28 -0.4,-0.53a6.74,6.74 0 0 1 -0.93,-2.36a10.79,10.79 0 0 1 2.58,-8.77a22.41,22.41 0 0 1 4.94,-4.16c1.93,-1.27 4.11,-2.44 6.24,-3.88a18.98,18.98 0 0 0 5.67,-5.56a9.98,9.98 0 0 0 1.42,-3.89a12.03,12.03 0 0 0 -0.22,-4.29a53.71,53.71 0 0 0 -2.98,-8.13a22.41,22.41 0 0 1 -1.99,-7.95a21.11,21.11 0 0 1 4.05,-13.07a19.69,19.69 0 0 1 6.95,-6.13l1.32,-0.64l1.01,-0.35a4.91,4.91 0 0 1 0.85,-0.25a5.29,5.29 0 0 1 -0.8,0.37l-0.98,0.41l-1.29,0.67a20.15,20.15 0 0 0 -6.71,6.17a20.93,20.93 0 0 0 -3.83,12.8a21.88,21.88 0 0 0 1.98,7.74a53.48,53.48 0 0 1 3.03,8.26a12.89,12.89 0 0 1 0.22,4.51a10.48,10.48 0 0 1 -1.5,4.13a19.48,19.48 0 0 1 -5.9,5.71c-2.17,1.44 -4.35,2.6 -6.28,3.85a21.93,21.93 0 0 0 -4.88,4.01a10.72,10.72 0 0 0 -2.69,8.43a8.39,8.39 0 0 0 1.27,3.08z" fill="#455a64" id="svg_187"/>
    <path d="m98.98,277.88a3.4,3.4 0 0 1 -0.68,-0.39a5.57,5.57 0 0 1 -1.52,-1.65a7.9,7.9 0 0 1 -1.06,-3.4a12.69,12.69 0 0 1 0.52,-4.72c0.96,-3.46 3.85,-6.61 6.02,-10.62a13.25,13.25 0 0 0 1.78,-6.72a18.24,18.24 0 0 0 -1.9,-7.28c-2.24,-4.72 -5.69,-8.52 -8.07,-12.46a26.13,26.13 0 0 1 -2.78,-5.9a14.38,14.38 0 0 1 -0.58,-5.69a11.2,11.2 0 0 1 3.44,-7.37a7.7,7.7 0 0 1 1.89,-1.18a3.54,3.54 0 0 1 0.73,-0.26a11.4,11.4 0 0 0 -2.47,1.65a11.23,11.23 0 0 0 -3.16,7.23a13.94,13.94 0 0 0 0.64,5.5a25.15,25.15 0 0 0 2.77,5.79c1.18,1.92 2.64,3.85 4.09,5.9a42.32,42.32 0 0 1 4.05,6.62a18.38,18.38 0 0 1 1.95,7.54a13.9,13.9 0 0 1 -1.88,7c-2.27,4.02 -5.16,7.08 -6.11,10.43a12.78,12.78 0 0 0 -0.59,4.54a8.01,8.01 0 0 0 0.92,3.3a7.01,7.01 0 0 0 2.01,2.14z" fill="#455a64" id="svg_188"/>
    <path d="m145.53,189.32s-0.17,0 -0.45,-0.19a10.62,10.62 0 0 1 -1.18,-0.74a14.01,14.01 0 0 1 -3.39,-3.79a41.8,41.8 0 0 1 -3.27,-6.77c-0.54,-1.3 -1.18,-2.65 -1.84,-3.99a24.56,24.56 0 0 0 -2.6,-3.89a26.65,26.65 0 0 0 -13.64,-8.79a36.22,36.22 0 0 0 -6.78,-0.97a8.55,8.55 0 0 1 1.85,-0.11a24.77,24.77 0 0 1 5.04,0.65a26.19,26.19 0 0 1 14,8.82a25.09,25.09 0 0 1 2.68,4c0.72,1.37 1.29,2.75 1.82,4.06a46.67,46.67 0 0 0 3.11,6.76a15.45,15.45 0 0 0 3.17,3.82c0.91,0.77 1.5,1.07 1.46,1.12z" fill="#455a64" id="svg_189"/>
    <path d="m161.99,189.23a2.17,2.17 0 0 1 -0.64,-0.07a9.12,9.12 0 0 1 -1.77,-0.46a15.34,15.34 0 0 1 -5.63,-3.65a34.07,34.07 0 0 1 -5.83,-8.07c-1.85,-3.24 -3.65,-6.97 -6.42,-10.22a20.17,20.17 0 0 0 -10.02,-6.24a39.11,39.11 0 0 0 -9.73,-1.31c-2.82,-0.06 -5.1,0 -6.68,0.12l-1.82,0.07a2.36,2.36 0 0 1 -0.64,0a2.24,2.24 0 0 1 0.63,-0.11l1.82,-0.19c1.57,-0.13 3.86,-0.32 6.69,-0.31a37.75,37.75 0 0 1 9.89,1.18a20.43,20.43 0 0 1 10.32,6.39c2.85,3.34 4.64,7.08 6.44,10.35a34.85,34.85 0 0 0 5.65,8.02a15.77,15.77 0 0 0 5.4,3.74c1.46,0.57 2.34,0.67 2.32,0.74z" fill="#455a64" id="svg_190"/>
    <path d="m189.84,265.79c-0.06,0 0.31,-0.84 0.7,-2.36a22.53,22.53 0 0 0 0.71,-6.65a22.3,22.3 0 0 0 -2.5,-9.53a22.77,22.77 0 0 0 -3.37,-4.78c-1.37,-1.52 -2.94,-2.96 -4.51,-4.47a39.73,39.73 0 0 1 -4.38,-4.72a29.27,29.27 0 0 1 -3.15,-5.08a29.95,29.95 0 0 1 -2.78,-9.7a27.36,27.36 0 0 1 0.07,-6.81a14.44,14.44 0 0 1 0.32,-1.82a2.45,2.45 0 0 1 0.18,-0.63c0.06,0 -0.13,0.88 -0.26,2.48a29.73,29.73 0 0 0 0.12,6.71a31.18,31.18 0 0 0 2.87,9.51a29.63,29.63 0 0 0 3.11,4.97a41.41,41.41 0 0 0 4.32,4.61c1.58,1.51 3.15,2.96 4.54,4.52a22.79,22.79 0 0 1 3.42,4.92a22.34,22.34 0 0 1 2.44,9.78a21.48,21.48 0 0 1 -0.91,6.74a12.12,12.12 0 0 1 -0.65,1.73a2.14,2.14 0 0 1 -0.28,0.58z" fill="#455a64" id="svg_191"/>
    <path d="m60.6,188.3a4.38,4.38 0 0 1 0.15,-1.18a11.6,11.6 0 0 1 1.12,-2.94a12.62,12.62 0 0 1 18.33,-4.38a11.05,11.05 0 0 1 2.36,2.11a3.54,3.54 0 0 1 0.66,0.97a21.62,21.62 0 0 0 -3.27,-2.71a12.54,12.54 0 0 0 -17.7,4.24a21.91,21.91 0 0 0 -1.66,3.89z" fill="#455a64" id="svg_192"/>
    <path d="m72.04,193.26a10.25,10.25 0 0 1 0.33,-2.68a11.88,11.88 0 0 1 2.8,-5.9a6.29,6.29 0 0 1 6.25,-1.58a3.89,3.89 0 0 1 1.68,1.18c0.29,0.38 0.38,0.64 0.35,0.65a5.51,5.51 0 0 0 -2.16,-1.38a6.06,6.06 0 0 0 -5.69,1.6a12.82,12.82 0 0 0 -2.81,5.58a14.44,14.44 0 0 1 -0.76,2.52z" fill="#455a64" id="svg_193"/>
    <path d="m87.03,175.98a51.02,51.02 0 0 0 -3.1,6.43a55.82,55.82 0 0 0 -1.6,6.95a18.56,18.56 0 0 1 4.72,-13.38l-0.01,0z" fill="#407BFF" id="svg_194"/>
   </g>
   <g id="freepik--speech-bubble--inject-60">
    <path d="m275.76,204.74a3.67,3.67 0 1 0 3.67,-3.67a3.67,3.67 0 0 0 -3.67,3.67z" fill="#455a64" id="svg_195"/>
    <circle cx="264.73" cy="204.74" fill="#455a64" id="svg_196" r="3.67"/>
    <path d="m246.41,202.9a3.67,3.67 0 1 0 5.01,-1.34a3.67,3.67 0 0 0 -5.01,1.34z" fill="#455a64" id="svg_197"/>
    <path d="m264.51,161.86a3.21,3.21 0 0 0 -0.74,0l-2.18,0.06c-0.47,0 -1.01,0 -1.6,0.07l-1.92,0.27l-2.24,0.32l-2.51,0.63a40.72,40.72 0 0 0 -12.1,5.29a42.97,42.97 0 0 0 -19.71,32.27a44.16,44.16 0 0 0 -0.12,5.9c0.07,1 0,2.01 0.19,3.01l0.46,3.03a43.47,43.47 0 0 0 4.08,11.97a46.42,46.42 0 0 0 7.82,10.75a45.01,45.01 0 0 0 11.27,8.09a40.94,40.94 0 0 0 13.71,4.19a29.23,29.23 0 0 0 3.67,0.32a35.01,35.01 0 0 0 3.69,0a44.02,44.02 0 0 0 7.42,-0.93a43.35,43.35 0 0 0 14.71,-6.15l-0.45,0l15.03,6.04l0.9,0.35l-0.26,-0.92c-1.51,-5.52 -3,-10.89 -4.41,-16.08l-0.08,0.4a43,43 0 0 0 8.02,-18.37a39.17,39.17 0 0 0 0.59,-9.44a29.92,29.92 0 0 0 -0.44,-4.52c-0.11,-0.74 -0.22,-1.47 -0.33,-2.21s-0.37,-1.42 -0.53,-2.12a43.01,43.01 0 0 0 -16.78,-24.46a41.02,41.02 0 0 0 -9.98,-5.26l-2.24,-0.8l-2.14,-0.54l-1.96,-0.48c-0.63,-0.13 -1.18,-0.19 -1.79,-0.27c-1.18,-0.15 -2.14,-0.34 -3.01,-0.39l-2.22,-0.07l-1.34,0c-0.31,0 -0.46,0 -0.46,0l0.46,0l1.34,0.11l2.19,0.14c0.86,0.07 1.85,0.29 2.98,0.46a42.75,42.75 0 0 1 34.21,31.71c0.17,0.7 0.38,1.38 0.51,2.09s0.21,1.44 0.33,2.16a30.67,30.67 0 0 1 0.39,4.45a38.2,38.2 0 0 1 -0.6,9.21a42.47,42.47 0 0 1 -7.95,18.06l-0.13,0.18l0.06,0.22q2.12,7.79 4.38,16.08l0.64,-0.57l-15.02,-6.05l-0.24,-0.09l-0.22,0.14a42.47,42.47 0 0 1 -14.43,6.06a43.15,43.15 0 0 1 -7.24,0.92a30.88,30.88 0 0 1 -3.62,-0.07a27.91,27.91 0 0 1 -3.54,-0.29a40.41,40.41 0 0 1 -13.43,-4.11a41.97,41.97 0 0 1 -18.71,-18.42a42.47,42.47 0 0 1 -4.08,-11.7c-0.15,-1 -0.31,-1.98 -0.45,-2.97s-0.13,-1.97 -0.21,-2.95a44.66,44.66 0 0 1 0.09,-5.77a42.47,42.47 0 0 1 19.21,-31.85a40.89,40.89 0 0 1 11.96,-5.39l2.48,-0.66l2.23,-0.37l1.9,-0.32c0.59,0 1.12,-0.07 1.59,-0.12l2.17,-0.15a4.51,4.51 0 0 0 0.74,-0.08z" fill="#455a64" id="svg_198"/>
   </g>
   <path fill="#FF0000" id="svg_200" stroke="#000000"/>
  </g>
 </g>
</svg>