<?xml version="1.0"?>
<svg width="500" height="500" xmlns="http://www.w3.org/2000/svg" xmlns:svg="http://www.w3.org/2000/svg">
 <g class="layer">
  <title>Layer 1</title>
  <g id="freepik--Notebook--inject-130">
   <path d="m359.03,281.22l-282.79,0a14.9,14.9 0 0 1 -14.59,-13.63l-12.64,-180.34a12.56,12.56 0 0 1 12.67,-13.63l282.73,0a14.91,14.91 0 0 1 14.59,13.63l12.7,180.34a12.56,12.56 0 0 1 -12.67,13.63z" fill="#263238" id="svg_47"/>
   <path d="m439.92,428.4l-318.64,0c-8.45,0 -16.97,-5.46 -18.91,-12.07l-36.9,-125.41c-1.58,-5.36 3.28,-9.69 10.77,-9.69l282.79,0c7.5,0 16.07,4.34 19.07,9.69l70.42,125.41c3.7,6.61 -0.15,12.07 -8.6,12.07z" fill="#263238" id="svg_48"/>
   <path d="m362.43,281.22l-282.77,0a14.89,14.89 0 0 1 -14.59,-13.63l-12.71,-180.34a12.58,12.58 0 0 1 12.67,-13.63l282.79,0a14.9,14.9 0 0 1 14.59,13.63l12.71,180.34a12.58,12.58 0 0 1 -12.68,13.63z" fill="#407BFF" id="svg_49"/>
   <path d="m81.97,269.87a5.92,5.92 0 0 1 -5.77,-5.39l-12.27,-174.12a4.96,4.96 0 0 1 5,-5.37l276.57,0a5.92,5.92 0 0 1 5.76,5.37l12.27,174.12a4.97,4.97 0 0 1 -5,5.39l-276.56,0z" fill="#fff" id="svg_50"/>
   <ellipse cx="171.86" cy="270.65" id="svg_51" opacity="0.2" rx="1.37" ry="1.47" transform="matrix(1.02802 -1.06417 1.06417 1.02802 -257.852 -15.703)"/>
   <path d="m443.33,428.4l-318.65,0c-8.45,0 -16.96,-5.46 -18.91,-12.07l-36.9,-125.41c-1.57,-5.36 3.28,-9.69 10.79,-9.69l282.77,0c7.5,0 16.07,4.34 19.07,9.69l70.4,125.41c3.71,6.61 -0.12,12.07 -8.57,12.07z" fill="#407BFF" id="svg_52"/>
   <path d="m107.52,361.42c-3.17,0 -6.35,-1.95 -7.07,-4.32l-19.44,-63.93c-0.65,-2.12 1.26,-3.85 4.25,-3.85l278.48,0a9.31,9.31 0 0 1 7.55,3.85l35.29,63.96c1.3,2.37 -0.21,4.32 -3.37,4.32l-295.67,-0.03z" id="svg_53" opacity="0.2"/>
   <path d="m235.09,417.24a5.18,5.18 0 0 1 -4.59,-2.75l-16.28,-41.67c-0.55,-1.41 0.52,-2.56 2.38,-2.56l85.08,0a5.36,5.36 0 0 1 4.57,2.56l19.34,41.67c0.71,1.48 -0.3,2.75 -2.22,2.75l-88.29,0z" id="svg_54" opacity="0.2"/>
   <polygon fill="none" id="svg_55" points="202.91049194335938,129.10142517089844 209.4060516357422,139.08889770507812 215.901611328125,149.09117126464844 238.96896362304688,149.09117126464844 243.99969482421875,139.10369873046875 249.04522705078125,129.1310272216797 242.54965209960938,119.12876892089844 236.05410766601562,109.14129638671875 212.98675537109375,109.14129638671875 207.9412384033203,119.11395263671875 202.91049194335938,129.10142517089844 "/>
   <polygon fill="none" id="svg_56" points="249.44473266601562,128.87948608398438 272.49725341796875,128.87948608398438 277.54278564453125,118.89201354980469 282.5735168457031,108.91934204101562 276.0779724121094,98.91708374023438 269.5824279785156,88.92961120605469 246.52984619140625,88.92961120605469 241.48434448242188,98.91708374023438 236.45358276367188,108.88975524902344 242.93435668945312,118.87722778320312 249.44473266601562,128.87948608398438 "/>
   <polygon fill="none" id="svg_57" points="288.8471374511719,189.9731903076172 283.8016052246094,199.9458770751953 278.7708740234375,209.933349609375 285.26641845703125,219.92080688476562 291.7619934082031,229.92306518554688 314.8145751953125,229.92306518554688 319.86004638671875,219.93560791015625 324.90557861328125,209.96295166015625 318.4100341796875,199.96066284179688 311.9144592285156,189.9731903076172 288.8471374511719,189.9731903076172 "/>
   <polygon fill="none" id="svg_58" points="285.91748046875,149.5498504638672 280.8867492675781,159.53732299804688 275.8412170410156,169.50997924804688 282.3367919921875,179.5122528076172 288.8323059082031,189.49972534179688 311.89971923828125,189.49972534179688 316.930419921875,179.5270538330078 321.9759521484375,169.53958129882812 315.4803771972656,159.55210876464844 308.9848327636719,149.5498504638672 285.91748046875,149.5498504638672 "/>
   <polygon fill="none" id="svg_59" points="272.9115905761719,129.10142517089844 279.4071350097656,139.08889770507812 285.9026794433594,149.09117126464844 308.97003173828125,149.09117126464844 314.0007629394531,139.10369873046875 319.0462646484375,129.1310272216797 312.5506896972656,119.12876892089844 306.05517578125,109.14129638671875 282.9878234863281,109.14129638671875 277.95709228515625,119.11395263671875 272.9115905761719,129.10142517089844 "/>
   <polygon fill="none" id="svg_60" points="135.42478942871094,169.2880401611328 140.45553588867188,159.31536865234375 145.5010528564453,149.32789611816406 139.00550842285156,139.34042358398438 132.5099334716797,129.33816528320312 109.44258117675781,129.33816528320312 104.411865234375,139.3256378173828 99.3663330078125,149.3131103515625 105.86189270019531,159.30056762695312 112.35743713378906,169.2880401611328 135.42478942871094,169.2880401611328 "/>
   <polygon fill="none" id="svg_61" points="132.90943908691406,129.10142517089844 139.4049835205078,139.08889770507812 145.90054321289062,149.09117126464844 168.95310974121094,149.09117126464844 173.99862670898438,139.10369873046875 179.04415893554688,129.1310272216797 172.54859924316406,119.12876892089844 166.0530548095703,109.14129638671875 142.9856719970703,109.14129638671875 137.94017028808594,119.11395263671875 132.90943908691406,129.10142517089844 "/>
   <polygon fill="none" id="svg_62" points="118.21676635742188,250.134765625 141.2693328857422,250.134765625 146.31483459472656,240.14727783203125 151.36036682128906,230.17462158203125 144.86480712890625,220.17236328125 138.36924743652344,210.18487548828125 115.30191040039062,210.18487548828125 110.27116394042969,220.15756225585938 105.22566223144531,230.14501953125 111.72122192382812,240.13250732421875 118.21676635742188,250.134765625 "/>
   <polygon fill="none" id="svg_63" points="179.42884826660156,128.87948608398438 202.49620056152344,128.87948608398438 207.54173278808594,118.89201354980469 212.57244873046875,108.91934204101562 206.07688903808594,98.91708374023438 199.5813446044922,88.92961120605469 176.52877807617188,88.92961120605469 171.4832763671875,98.91708374023438 166.437744140625,108.88975524902344 172.9333038330078,118.87722778320312 179.42884826660156,128.87948608398438 "/>
   <polygon fill="none" id="svg_64" points="138.35446166992188,209.71142578125 143.3851776123047,199.72393798828125 148.4307098388672,189.7512664794922 141.93515014648438,179.74900817871094 135.43960571289062,169.76153564453125 112.37225341796875,169.76153564453125 107.34150695800781,179.74900817871094 102.29598999023438,189.72166442871094 108.79153442382812,199.70913696289062 115.28709411621094,209.71142578125 138.35446166992188,209.71142578125 "/>
   <polygon fill="none" id="svg_65" points="215.91641235351562,149.5498504638672 210.87088012695312,159.53732299804688 205.8401641845703,169.50997924804688 212.33572387695312,179.5122528076172 218.83126831054688,189.49972534179688 241.88385009765625,189.49972534179688 246.92935180664062,179.5270538330078 251.974853515625,169.53958129882812 245.47930908203125,159.55210876464844 238.9837646484375,149.5498504638672 215.91641235351562,149.5498504638672 "/>
   <polygon fill="none" id="svg_66" points="247.3436279296875,179.74900817871094 242.29812622070312,189.72166442871094 248.79367065429688,199.70913696289062 255.28924560546875,209.71142578125 278.3565979003906,209.71142578125 283.402099609375,199.72393798828125 288.4328308105469,189.7512664794922 281.9372863769531,179.74900817871094 275.44171142578125,169.76153564453125 252.37435913085938,169.76153564453125 247.3436279296875,179.74900817871094 "/>
   <polygon fill="none" id="svg_67" points="205.44065856933594,169.76153564453125 182.37330627441406,169.76153564453125 177.3425750732422,179.74900817871094 172.2970733642578,189.72166442871094 178.79261779785156,199.70913696289062 185.28817749023438,209.71142578125 208.35552978515625,209.71142578125 213.38623046875,199.72393798828125 218.4317626953125,189.7512664794922 211.93621826171875,179.74900817871094 205.44065856933594,169.76153564453125 "/>
   <polygon fill="none" id="svg_68" points="132.49514770507812,128.87948608398438 137.52587890625,118.89201354980469 142.57138061523438,108.91934204101562 136.07583618164062,98.91708374023438 129.5802764892578,88.92961120605469 106.51292419433594,88.92961120605469 101.48220825195312,98.91708374023438 96.43669128417969,108.88975524902344 102.93223571777344,118.87722778320312 109.42779541015625,128.87948608398438 132.49514770507812,128.87948608398438 "/>
   <polygon fill="none" id="svg_69" points="184.888671875,209.96295166015625 178.3931121826172,199.96066284179688 171.912353515625,189.9731903076172 148.84500122070312,189.9731903076172 143.79946899414062,199.9458770751953 138.7687530517578,209.933349609375 145.24949645996094,219.92080688476562 151.74505615234375,229.92306518554688 174.8124237060547,229.92306518554688 179.85792541503906,219.93560791015625 184.888671875,209.96295166015625 "/>
   <polygon fill="none" id="svg_70" points="285.503173828125,149.32789611816406 279.00762939453125,139.34042358398438 272.5120849609375,129.33816528320312 249.45950317382812,129.33816528320312 244.41397094726562,139.3256378173828 239.38327026367188,149.3131103515625 245.864013671875,159.30056762695312 252.35955810546875,169.2880401611328 275.42694091796875,169.2880401611328 280.4724426269531,159.31536865234375 285.503173828125,149.32789611816406 "/>
   <polygon fill="none" id="svg_71" points="278.3713684082031,210.18487548828125 255.30401611328125,210.18487548828125 250.2733154296875,220.15756225585938 245.227783203125,230.14501953125 251.72332763671875,240.13250732421875 258.2189025878906,250.134765625 281.2862243652344,250.134765625 286.3169860839844,240.14727783203125 291.3625183105469,230.17462158203125 284.866943359375,220.17236328125 278.3713684082031,210.18487548828125 "/>
   <polygon fill="none" id="svg_72" points="208.3703155517578,210.18487548828125 185.30296325683594,210.18487548828125 180.27224731445312,220.15756225585938 175.22671508789062,230.14501953125 181.72227478027344,240.13250732421875 188.21783447265625,250.134765625 211.28518676757812,250.134765625 216.31591796875,240.14727783203125 221.36141967773438,230.17462158203125 214.86587524414062,220.17236328125 208.3703155517578,210.18487548828125 "/>
   <polygon fill="none" id="svg_73" points="254.90451049804688,209.96295166015625 248.3941650390625,199.96066284179688 241.91342163085938,189.9731903076172 218.8460693359375,189.9731903076172 213.800537109375,199.9458770751953 208.7698211669922,209.933349609375 215.265380859375,219.92080688476562 221.76092529296875,229.92306518554688 244.8134765625,229.92306518554688 249.8590087890625,219.93560791015625 254.90451049804688,209.96295166015625 "/>
   <polygon fill="none" id="svg_74" points="202.51101684570312,129.33816528320312 179.44363403320312,129.33816528320312 174.4129180908203,139.3256378173828 169.36740112304688,149.3131103515625 175.86294555664062,159.30056762695312 182.35850524902344,169.2880401611328 205.42587280273438,169.2880401611328 210.47137451171875,159.31536865234375 215.50210571289062,149.32789611816406 209.00656127929688,139.34042358398438 202.51101684570312,129.33816528320312 "/>
   <polygon fill="none" id="svg_75" points="145.91534423828125,149.5498504638672 140.8698272705078,159.53732299804688 135.83908081054688,169.50997924804688 142.33465576171875,179.5122528076172 148.83021545410156,189.49972534179688 171.88275146484375,189.49972534179688 176.92828369140625,179.5270538330078 181.95901489257812,169.53958129882812 175.47825622558594,159.55210876464844 168.98269653320312,149.5498504638672 145.91534423828125,149.5498504638672 "/>
   <path d="m74.77,244.23l6.98,-13.85l23.07,0l6.5,10l6.5,9.99l-5.05,9.99l-4.79,9.51l0.52,0l4.69,-9.29l5.05,-9.99l23.07,0l6.5,10l6.02,9.28l0.56,0l-6.23,-9.53l-6.5,-10l5.05,-9.97l5.05,-9.99l23.04,0l6.5,10l6.5,9.99l-5.03,9.99l-4.81,9.51l0.52,0l4.71,-9.29l5.03,-9.99l23.07,0l6.5,10l6.02,9.28l0.56,0l-6.18,-9.53l-6.38,-10l5.03,-9.97l5.05,-9.99l23.05,0l6.5,10l6.5,9.99l-5.03,9.99l-4.81,9.51l0.52,0l4.63,-9.26l5.03,-9.99l23.08,0l6.5,10l6.02,9.28l0.56,0l-6.18,-9.53l-6.5,-10l5.03,-9.97l5.05,-9.99l23.07,0l6.5,10l6.5,9.99l-5.1,9.96l-4.81,9.51l0.53,0l4.69,-9.29l5.03,-9.99l23.11,0l6.5,10l4.73,7.28l0.3,-0.4l-4.57,-7.13l-6.5,-10l5.03,-9.97l4.44,-8.88l0,-0.9l-4.81,9.53l-5.05,9.99l-23.16,0l-6.5,-10l-6.5,-9.99l5.05,-9.99l5.03,-9.97l23.07,0l12.71,19.55l-0.07,-0.96l-12.24,-18.84l9.57,-18.97l0,-0.92l-9.93,19.66l-23.13,0l-6.5,-9.99l-6.5,-10l5.05,-9.97l5.05,-9.99l23.05,0l12.81,19.72l-0.07,-0.96l-12.33,-18.98l9.65,-19.1l0,-0.9l-10,19.8l-23.13,0l-6.5,-10l-6.45,-9.99l5.03,-9.99l5.05,-9.97l23.07,0l12.87,19.81l0,-0.96l-12.43,-19.1l9.72,-19.24l0,-0.9l-10.24,19.96l-23.05,0l-6.5,-10l-6.48,-10.03l5.03,-9.99l5.03,-9.93l23.07,0l6.5,9.99l6.47,9.97l0,-0.96l-6.14,-9.29l-6.5,-10l1.86,-3.68l-0.52,0l-1.75,3.46l-23.01,0l-2.26,-3.46l-0.55,0l2.41,3.71l-5.05,9.99l-5.03,9.97l-23.07,0l-6.5,-9.99l-6.5,-10l1.86,-3.68l-0.52,0l-1.76,3.46l-23.05,0l-2.19,-3.46l-0.55,0l2.41,3.71l-5.05,9.99l-5.03,9.97l-23.14,0l-6.5,-9.99l-6.54,-10l1.86,-3.68l-0.52,0l-1.76,3.46l-23.02,0l-2.25,-3.46l-0.56,0l2.43,3.71l-5.05,9.99l-5.03,9.97l-23.07,0l-6.5,-9.99l-6.5,-10l1.86,-3.68l-0.52,0l-1.76,3.46l-23.07,0l-2.25,-3.46l-0.49,0l2.43,3.71l-5.05,9.99l-5.05,9.97l-23.13,0l-8.69,-13.32l0,0.96l8.23,12.65l-6.44,12.74l0.07,0.9l6.78,-13.42l23.07,0l6.48,9.99l6.5,10l-5.03,9.97l-5.05,9.99l-23.01,0l-6.48,-10l-2.28,-3.51l0,0.96l1.82,2.8l6.5,9.99l-5.05,9.99l-1.48,2.96l0,0.9l1.81,-3.58l5.05,-9.99l23.05,0l6.5,10l6.5,9.99l-5.03,9.99l-5.05,9.97l-22.92,0l-6.5,-9.99l-2.37,-3.64l0,0.95l1.91,2.96l6.5,9.99l-5.05,9.97l-1.48,3.05l0,0.9l1.88,-3.73l5.05,-9.97l23.05,0l6.5,9.99l6.5,10l-5.03,9.97l-5.05,9.99l-22.98,0l-8.95,-13.82l0.07,0.96l8.49,13.07l-6.64,13.15l0.06,0.83zm100.01,-14.31l-23.04,0l-6.55,-10l-6.48,-9.99l5.03,-9.99l5.05,-9.97l23.05,0l6.5,9.99l6.5,10l-5.03,9.97l-5.02,9.99zm100.61,-60.66l-23.04,0l-6.55,-9.96l-6.5,-9.99l5.05,-9.99l5.05,-9.97l23.05,0l6.5,9.99l6.5,9.99l-5.03,9.99l-5.02,9.94zm0,0.46l6.5,10l6.5,9.99l-5.03,9.97l-5,10.03l-23.07,0l-6.53,-9.99l-6.5,-10l5.05,-9.97l5.03,-9.99l23.05,-0.04zm-29.96,-10.21l6.5,9.99l-5.05,9.99l-5.05,9.97l-23.01,0l-6.5,-9.99l-6.48,-9.96l5.03,-9.97l5.05,-9.99l23.07,0l6.44,9.96zm-27,30.24l-5.05,9.97l-5.03,9.99l-23.07,0l-6.5,-9.99l-6.5,-10l5.05,-9.97l5.03,-9.99l23.07,0l6.5,10l6.5,9.99zm-7.96,-30.44l-5.05,9.99l-23.07,0l-6.5,-10l-6.5,-9.99l5.05,-9.99l5.03,-9.97l23.07,0l6.5,9.99l6.5,9.99l-5.03,9.99zm-34.99,0.24l6.48,9.99l-5.03,9.99l-5.1,9.97l-22.99,0l-6.5,-9.99l-6.5,-10l5.03,-9.97l5.05,-9.99l23.07,0l6.5,10zm40.84,80.6l-5.03,9.99l-23.07,0l-6.5,-10l-6.5,-9.99l5.05,-9.99l5.03,-9.97l23.07,0l6.5,9.99l6.5,10l-5.05,9.97zm28.5,-10.22l-23.05,0l-6.5,-10l-6.45,-9.99l5.03,-9.99l5.05,-9.97l23.07,0l6.5,9.99l6.48,10l-5.03,9.97l-5.09,9.99zm41.43,10.22l-5.03,9.99l-22.99,0l-6.5,-10l-6.5,-9.99l5.05,-9.99l5.03,-9.97l23.05,0l6.5,9.99l6.5,10l-5.1,9.97zm32.17,-40.2l6.5,10l-5.05,9.97l-5.05,9.99l-23.05,0l-6.5,-10l-6.5,-9.99l5.03,-9.99l5.05,-9.97l23.07,0l6.5,9.99zm-2.96,-40.41l6.5,9.99l-5.05,9.99l-5.03,9.97l-23.04,0l-6.5,-9.99l-6.5,-10l5.05,-9.97l5.03,-9.99l23.07,0l6.47,10zm-32.55,-50.41l23.07,0l6.5,9.99l6.5,10l-5.05,9.97l-5.03,9.99l-22.98,0l-6.5,-10l-6.5,-9.99l5.05,-9.99l4.94,-9.97zm-41.43,-10.24l5.05,-9.97l23.07,0l6.48,9.99l6.5,10l-5.03,9.97l-5.09,10.05l-23.01,0l-6.48,-10l-6.5,-9.99l5.02,-10.05zm-28.5,10.24l23.07,0l6.5,9.99l6.5,10l-5.05,9.97l-5.03,9.99l-23.05,0l-6.5,-10l-6.51,-9.97l5.03,-9.99l5.05,-9.99zm-41.43,-10.24l5.05,-9.97l23.05,0l6.5,9.99l6.5,10l-5.03,9.97l-5.1,10.05l-23.07,0l-6.5,-10l-6.5,-9.99l5.1,-10.05zm-28.5,10.24l23.01,0l6.5,9.99l6.5,10l-5.05,9.97l-5.05,9.99l-23.05,0l-6.5,-10l-6.5,-9.99l5.03,-9.99l5.1,-9.97zm-40.05,9.74l-6.5,-9.99l5.05,-9.99l5.03,-9.97l23.07,0l6.5,9.99l6.5,10l-5.05,9.97l-5.03,9.99l-23.13,0l-6.44,-10zm2.96,40.42l-6.63,-9.97l5.05,-9.99l5.03,-9.97l23.07,0l6.5,9.99l6.5,9.99l-5.05,9.99l-5.03,9.99l-23.02,0l-6.41,-10.02zm2.96,40.42l-6.63,-9.99l5.05,-9.97l5.03,-9.99l23.07,0l6.5,10l6.5,9.99l-5.05,9.97l-5.03,9.99l-23.05,0l-6.38,-10zm1.48,20.43l5.05,-9.97l23.07,0l6.5,9.99l6.5,10l-5.05,9.97l-5.03,9.99l-23.2,0l-6.5,-10l-6.48,-9.97l5.15,-10z" fill="#e0e0e0" id="svg_76"/>
   <polygon fill="#e0e0e0" id="svg_77" points="84.37773132324219,269.87298583984375 75.63314819335938,256.42315673828125 75.69233703613281,257.38494873046875 83.81547546386719,269.87298583984375 84.37773132324219,269.87298583984375 "/>
   <path d="m272.67,251.51l-102.33,0a8.2,8.2 0 0 1 -8.06,-7.63l-3.92,-70.4a7.16,7.16 0 0 1 7.21,-7.63l102.36,0a8.18,8.18 0 0 1 8.05,7.63l3.86,70.4a7.16,7.16 0 0 1 -7.16,7.63z" fill="#407BFF" id="svg_78"/>
   <path d="m165.55,165.91a7.16,7.16 0 0 0 -7.21,7.63l3.92,70.4a8.2,8.2 0 0 0 8.06,7.63l51.17,0l-4.76,-85.67l-51.18,0z" id="svg_79" opacity="0.2"/>
   <path d="m211.11,231.31l1.18,-22.37a13.32,13.32 0 0 1 -6.21,-10.36a11.67,11.67 0 0 1 11.84,-12.47a13.32,13.32 0 0 1 13.09,12.35a11.66,11.66 0 0 1 -5.05,10.36l3.65,22.37l-18.51,0.12z" id="svg_80" opacity="0.2"/>
   <path d="m229.09,198.47a11.27,11.27 0 0 0 -11.13,-10.53a9.85,9.85 0 0 0 -9.94,10.53a11.25,11.25 0 0 0 6.27,9.37l-1.12,21.48l14.2,0l-3.51,-21.48a9.84,9.84 0 0 0 5.22,-9.37z" fill="#263238" id="svg_81"/>
   <path d="m265.26,160.79l-13.54,0l-0.83,-14.69a37.8,37.8 0 0 0 -37.23,-35.27a33.05,33.05 0 0 0 -33.31,35.27l0.81,14.69l-13.54,0l-0.81,-14.69a45.72,45.72 0 0 1 46.09,-48.83c26.91,0 50.03,21.9 51.54,48.83l0.81,14.69z" fill="#407BFF" id="svg_82"/>
  </g>
 </g>
</svg>