<?xml version="1.0"?>
<svg width="500" height="500" xmlns="http://www.w3.org/2000/svg" xmlns:svg="http://www.w3.org/2000/svg" xmlns:xlink="http://www.w3.org/1999/xlink">
 <!-- Created with SVG-edit - https://github.com/SVG-Edit/svgedit-->
 <defs>
  <symbol id="svg_26" viewBox="0 0 500 500" xmlns="http://www.w3.org/2000/svg">
   <g id="svg_25">
    <rect fill="#ebebeb" height="11.19" transform="translate(839.3 694.78) rotate(180)" width="35.16" x="402.07" y="341.8"/>
    <rect fill="#ebebeb" height="11.19" transform="translate(878.52 308.79) rotate(180)" width="35.16" x="421.68" y="148.8"/>
    <path d="m421.68,367.1l17.7,-0.3l8.75,-0.12l8.71,0l-0.46,0.46l0,-11.19l0.5,0.5l-17.58,-0.07l-8.79,-0.09l-8.79,-0.11l0.24,-0.23l-0.28,11.15zm0,0l-0.23,-11.19l0,-0.24l0.24,0l8.79,-0.11l8.79,-0.08l17.58,-0.07l0.5,0l0,0.5l0,11.19l0,0.45l-0.45,0l-8.87,0l-8.83,-0.12l-17.52,-0.33z" fill="#ebebeb"/>
    <path d="m129.85,339.15l17.7,-0.29l8.75,-0.12l8.71,-0.05l-0.46,0.46l0,-11.19l0.5,0.5l-17.58,-0.07l-8.79,-0.08l-8.79,-0.11l0.24,-0.24l-0.28,11.19zm0,0l-0.24,-11.15l0,-0.24l0.24,0l8.79,-0.11l8.79,-0.08l17.58,-0.07l0.5,0l0,0.5l0,11.19l0,0.46l-0.51,0l-8.87,0l-8.83,-0.12l-17.45,-0.38z" fill="#ebebeb"/>
    <path d="m149.46,353.26l17.7,-0.29l8.75,-0.12l8.71,-0.05l-0.46,0.46l0,-11.19l0.5,0.5l-17.66,-0.07l-8.79,-0.08l-8.79,-0.11l0.24,-0.24l-0.2,11.19zm0,0l-0.23,-11.19l0,-0.24l0.24,0l8.79,-0.11l8.79,-0.08l17.58,-0.07l0.5,0l0,0.5l0,11.19l0,0.46l-0.45,0l-8.87,0l-8.83,-0.12l-17.52,-0.34z" fill="#ebebeb"/>
    <rect fill="#ebebeb" height="11.19" transform="translate(373.15 667.11) rotate(180)" width="35.16" x="169" y="327.96"/>
    <rect fill="#ebebeb" height="11.19" transform="translate(121.48 723) rotate(180)" width="35.16" x="43.16" y="355.91"/>
    <rect fill="#ebebeb" height="11.19" transform="translate(160.7 101.06) rotate(180)" width="35.16" x="62.77" y="44.93"/>
    <path d="m43.16,70.23l17.7,-0.29l8.75,-0.12l8.71,0l-0.46,0.45l0,-11.19l0.5,0.5l-17.58,-0.07l-8.78,-0.12l-8.79,-0.11l0.19,-0.28l-0.24,11.23zm0,0l-0.24,-11.23l0,-0.23l0.24,0l8.84,-0.07l8.79,-0.09l17.58,-0.07l0.5,0l0,0.46l0,11.19l0,0.46l-0.45,0l-8.87,0l-8.83,-0.12l-17.56,-0.3z" fill="#ebebeb"/>
    <path d="m402.07,56.12l17.7,-0.29l8.75,-0.12l8.71,0l-0.46,0.45l0,-11.19l0.5,0.5l-17.58,-0.07l-8.79,-0.08l-8.79,-0.11l0.24,-0.24l-0.28,11.15zm0,0l-0.24,-11.19l0,-0.23l0.24,0l8.79,-0.11l8.79,-0.09l17.58,-0.07l0.5,0l0,0.5l-0.05,11.19l0,0.46l-0.45,0l-8.87,0l-8.83,-0.12l-17.46,-0.34z" fill="#ebebeb"/>
    <circle cx="416.93" cy="81.48" fill="#ebebeb" r="43.09" transform="translate(-5.86 122.91) rotate(-16.66)"/>
    <circle cx="418.9" cy="82.44" fill="#dbdbdb" r="41.11" transform="translate(146.97 411.57) rotate(-61.57)"/>
    <circle cx="418.9" cy="82.44" fill="#fff" r="38.52" transform="translate(-4.7 135.72) rotate(-18.3)"/>
    <path d="m456.55,74.26c-17.54,10.63 -46.37,28.06 -62.48,37.62a38.5,38.5 0 0 1 -10.52,-14.15l53.28,-49.39a38.59,38.59 0 0 1 19.72,25.92z" fill="#ebebeb" opacity="0.5"/>
    <path d="m457.39,83.78a38,38 0 0 1 -2.54,12.52l-48,22.72a38,38 0 0 1 -6.07,-2.61c14.47,-8.41 40.99,-23.64 56.61,-32.63z" fill="#ebebeb" opacity="0.5"/>
    <rect fill="#c7c7c7" height="5.84" width="0.74" x="418.53" y="46.72"/>
    <rect fill="#c7c7c7" height="5.84" transform="translate(26.9 208.47) rotate(-30)" width="0.75" x="402.13" y="51.11"/>
    <rect fill="#c7c7c7" height="5.84" transform="translate(138.04 371.18) rotate(-60)" width="0.74" x="390.13" y="63.12"/>
    <rect fill="#c7c7c7" height="0.74" width="5.84" x="383.18" y="82.06"/>
    <rect fill="#c7c7c7" height="0.74" transform="matrix(0.87, -0.5, 0.5, 0.87, 2.91, 208.54)" width="5.84" x="387.58" y="98.47"/>
    <rect fill="#c7c7c7" height="0.74" transform="translate(105.47 404.22) rotate(-60.04)" width="5.84" x="399.59" y="110.47"/>
    <rect fill="#c7c7c7" height="5.84" width="0.74" x="418.53" y="112.32"/>
    <rect fill="#c7c7c7" height="5.84" transform="translate(2.9 232.5) rotate(-30)" width="0.74" x="434.93" y="107.92"/>
    <rect fill="#c7c7c7" height="5.84" transform="translate(138.03 436.77) rotate(-59.99)" width="0.74" x="446.94" y="95.92"/>
    <rect fill="#c7c7c7" height="0.74" width="5.84" x="448.79" y="82.06"/>
    <rect fill="#c7c7c7" height="0.74" transform="translate(26.95 232.61) rotate(-30.01)" width="5.84" x="444.39" y="65.66"/>
    <rect fill="#c7c7c7" height="0.74" transform="translate(171.03 404.13) rotate(-60.03)" width="5.84" x="432.39" y="53.66"/>
    <polygon fill="#c7c7c7" points="419.46 49.36 420.73 85.04 417.08 84.99 418.47 49.35 419.46 49.36"/>
    <polygon fill="#a6a6a6" points="441.69 70 417.68 85.31 415.94 82.11 441.21 69.12 441.69 70"/>
    <path d="m420.15,82.44a1.25,1.25 0 1 1 -1.25,-1.25a1.24,1.24 0 0 1 1.25,1.25z" fill="#c7c7c7"/>
   </g>
   <g id="svg_24">
    <polygon fill="#263238" points="36.71 462.77 90.03 462.52 143.35 462.44 250 462.27 356.64 462.43 409.97 462.52 463.29 462.77 409.97 463.01 356.64 463.1 250 463.27 143.35 463.1 90.03 463.01 36.71 462.77"/>
   </g>
   <g id="svg_23">
    <path d="m71,335.65s0.92,0 2,4c0.57,2.19 -2.79,20.76 -2.46,40.48c0.25,14.8 1,31 2.11,40.25c0,0 1.08,2.17 4.63,1.51a230.87,230.87 0 0 1 -4.63,-42.29c-0.15,-13.87 2.66,-29.71 2.58,-40.5a9.38,9.38 0 0 1 0.91,-3.76l-5.14,0.31z" fill="#455a64"/>
    <path d="m74.28,330.51s-4.15,-3.09 -4,-7.81s1.8,-8.38 4.11,-10.61s3.12,-2.09 3.12,-2.09s2.59,-0.34 4.16,5.09s3.12,10 1.25,12.8c-3.59,5.27 -8.64,2.62 -8.64,2.62z" fill="#407BFF"/>
    <path d="m74.28,330.51s-4.15,-3.09 -4,-7.81s1.8,-8.38 4.11,-10.61s3.12,-2.09 3.12,-2.09s2.59,-0.34 4.16,5.09s3.12,10 1.25,12.8c-3.59,5.27 -8.64,2.62 -8.64,2.62z" opacity="0.3"/>
    <path d="m67.37,323.45s-1.78,-4.6 -0.18,-8.09s2.79,-3.5 3.14,-3.59s2.62,0.57 3.46,3.92s0.82,5.72 0.28,7.11s-2.74,2.42 -2.74,2.42a4.46,4.46 0 0 1 -3.96,-1.77z" fill="#407BFF"/>
    <path d="m67.37,323.45s-1.78,-4.6 -0.18,-8.09s2.79,-3.5 3.14,-3.59s2.62,0.57 3.46,3.92s0.82,5.72 0.28,7.11s-2.74,2.42 -2.74,2.42a4.46,4.46 0 0 1 -3.96,-1.77z" opacity="0.2"/>
    <path d="m67.57,313.91s-1.88,0.49 -2.43,3.71a21.83,21.83 0 0 0 0.35,7.67c0.2,0.69 0.74,7.3 4.19,9.93s4.12,1 4.12,1a7.11,7.11 0 0 0 3,-5.56a25.83,25.83 0 0 0 -1,-9.9c-0.94,-2.83 -1.31,-4.42 -3.24,-5.44s-4.31,-1.77 -4.99,-1.41z" fill="#407BFF"/>
    <path d="m67.57,313.91s-1.88,0.49 -2.43,3.71a21.83,21.83 0 0 0 0.35,7.67c0.2,0.69 0.74,7.3 4.19,9.93s4.12,1 4.12,1a7.11,7.11 0 0 0 3,-5.56a25.83,25.83 0 0 0 -1,-9.9c-0.94,-2.83 -1.31,-4.42 -3.24,-5.44s-4.31,-1.77 -4.99,-1.41z" opacity="0.1"/>
    <path d="m76.28,337s-4.16,0.66 -5.36,-5.3s0.22,-7.92 0.5,-8.76s-0.07,-1.77 0.59,-2.79s1.08,-0.8 1.91,-2.17s1.09,-3.39 1.77,-4a2.8,2.8 0 0 1 2.27,-0.82a23.4,23.4 0 0 1 3.54,1.47c1,0.38 0.71,2.29 1.37,3.11s2.58,3.19 1.78,7.73s-1.36,7.58 -3.37,9.29s-3.63,2.24 -5,2.24z" fill="#407BFF"/>
    <path d="m70.39,336.7c-0.72,0.11 -2.45,0.17 -4.55,-2.39c-2.57,-3.13 -2.31,-7.62 -2.48,-8.77a40.79,40.79 0 0 0 -1.09,-6.54c-0.63,-1.71 -0.47,-2.69 -0.28,-2.81s1.75,0.46 2.58,2.48s2.6,3.89 2.89,6.86s0.15,7.23 1.79,9s3.43,1.33 3,2.15a15.54,15.54 0 0 1 -1.86,0.02z" fill="#407BFF"/>
    <path d="m71.82,383.8s-2.48,-8 5.26,-22.61s14.76,-19 14.76,-19s-0.07,8.13 -6.87,21.63s-12.11,19.38 -13.15,19.98z" fill="#455a64"/>
    <path d="m88.05,348.45c0.23,-0.42 0.32,0 0.1,0.4c-2.75,5.18 -12.24,20.8 -15.3,31.57c-0.13,0.45 -0.5,0 -0.35,-0.46c6,-18.16 12.76,-26.24 15.55,-31.51z" fill="#37474f"/>
    <path d="m91.3,370.58s0.52,-10.19 -2.27,-12.77s-3.39,-1.91 -4.21,-2.11a7.73,7.73 0 0 0 -2.88,0.55s4.22,0.95 5.18,3.82l4.18,10.51z" fill="#407BFF"/>
    <path d="m91.3,370.58s0.52,-10.19 -2.27,-12.77s-3.39,-1.91 -4.21,-2.11a7.73,7.73 0 0 0 -2.88,0.55s4.22,0.95 5.18,3.82l4.18,10.51z" opacity="0.2"/>
    <path d="m95.75,373.68a6.69,6.69 0 0 1 0.9,4.63c-2.27,22 -7.87,33.7 -17.05,48c0,0 -1.81,4.62 0.45,3.58c0,0 14.48,-15.3 18.25,-50.53c0,0 0.17,-4 2.78,-5.7c0,0.01 -4.9,-1.16 -5.33,0.02z" fill="#455a64"/>
    <path d="m95,351.72a2.45,2.45 0 0 1 2.56,2.14c0.54,2.36 4.81,15.16 3,18.84s-2.56,2.1 -4.18,2.3c-1.77,0.26 -5.6,-2.31 -6.25,-4.4s-1.77,-6.38 -1.43,-8.83s-0.35,-9.97 6.3,-10.05z" fill="#407BFF"/>
    <path d="m95,351.72a2.45,2.45 0 0 1 2.56,2.14c0.54,2.36 4.81,15.16 3,18.84s-2.56,2.1 -4.18,2.3c-1.77,0.26 -5.6,-2.31 -6.25,-4.4s-1.77,-6.38 -1.43,-8.83s-0.35,-9.97 6.3,-10.05z" opacity="0.1"/>
    <path d="m106.17,350.47s2.11,1.78 2.19,3.8s1.15,11 -1.17,15.41s-4.26,5.63 -7.51,5.61s2.47,-22.6 2.47,-22.6s2.85,-3.48 4.02,-2.22z" fill="#407BFF"/>
    <path d="m106.17,350.47s2.11,1.78 2.19,3.8s1.15,11 -1.17,15.41s-4.26,5.63 -7.51,5.61s2.47,-22.6 2.47,-22.6s2.85,-3.48 4.02,-2.22z" opacity="0.2"/>
    <path d="m101.6,351.75s3.19,0.15 4.36,2.52a19.23,19.23 0 0 1 1.69,10.16c-0.54,3.43 -1.27,11.83 -8.63,10.83c-5.56,-0.76 -6.78,-8.26 -6.51,-14.46c0.19,-4.55 3,-5.25 4.58,-6.88a7,7 0 0 1 4.51,-2.17z" fill="#407BFF"/>
    <path d="m98.94,375.18s-6.13,0.88 -8.82,-2.85s-1.79,-6.38 -2.24,-9a17.16,17.16 0 0 0 -1.45,-4.57s1.68,0.81 3,5.85s5.57,10.11 9.51,10.57z" fill="#407BFF"/>
    <path d="m80.12,429.21s2.66,-11.29 14,-21.94c10.81,-10.2 17.61,-10.51 19.55,-11.52l0.23,-0.14c1.57,-1.13 -7.18,11 -14.77,17.88s-13.79,13.32 -19.01,15.72z" fill="#455a64"/>
    <path d="m105.54,402.35c-9.54,6.12 -16.37,13.85 -22.25,22.49c-0.27,0.4 -0.55,1.22 -0.28,0.83a100.44,100.44 0 0 1 22.3,-22.83c0.38,-0.29 0.63,-0.74 0.23,-0.49z" fill="#37474f"/>
    <path d="m57.81,355.54s4.87,-1.73 6.12,-6.29s0.74,-8.54 -0.81,-11.36s-2.35,-2.95 -2.35,-2.95s-2.37,-1.09 -5.47,3.64s-5.93,8.65 -5,11.86c1.9,6.14 7.51,5.1 7.51,5.1z" fill="#407BFF"/>
    <path d="m57.81,355.54s4.87,-1.73 6.12,-6.29s0.74,-8.54 -0.81,-11.36s-2.35,-2.95 -2.35,-2.95s-2.37,-1.09 -5.47,3.64s-5.93,8.65 -5,11.86c1.9,6.14 7.51,5.1 7.51,5.1z" opacity="0.3"/>
    <path d="m59.53,360.31s-0.92,0 -2,4c-1,3.84 -5.43,30.78 4.83,53.35c0,0 0.94,3.86 -2.61,3.21c0,0 -10.93,-26.28 -4.45,-57.11a5.62,5.62 0 0 0 -0.91,-3.76l5.14,0.31z" fill="#455a64"/>
    <path d="m66.49,350.83s3.06,-3.83 2.51,-7.68s-1.64,-4.17 -2,-4.36s-2.67,-0.23 -4.46,2.73s-2.46,5.23 -2.36,6.71s1.91,3.12 1.91,3.12a4.5,4.5 0 0 0 4.4,-0.52z" fill="#407BFF"/>
    <path d="m66.49,350.83s3.06,-3.83 2.51,-7.68s-1.64,-4.17 -2,-4.36s-2.67,-0.23 -4.46,2.73s-2.46,5.23 -2.36,6.71s1.91,3.12 1.91,3.12a4.5,4.5 0 0 0 4.4,-0.52z" opacity="0.2"/>
    <path d="m69.11,341.65s1.65,1 1.23,4.26a21.82,21.82 0 0 1 -2.6,7.22c-0.38,0.61 -2.85,6.76 -6.93,8.26s-4.22,-0.26 -4.22,-0.26a7.12,7.12 0 0 1 -1.27,-6.21a25.67,25.67 0 0 1 3.88,-9.17c1.73,-2.43 2.56,-3.84 4.7,-4.24s4.67,-0.41 5.21,0.14z" fill="#407BFF"/>
    <path d="m69.11,341.65s1.65,1 1.23,4.26a21.82,21.82 0 0 1 -2.6,7.22c-0.38,0.61 -2.85,6.76 -6.93,8.26s-4.22,-0.26 -4.22,-0.26a7.12,7.12 0 0 1 -1.27,-6.21a25.67,25.67 0 0 1 3.88,-9.17c1.73,-2.43 2.56,-3.84 4.7,-4.24s4.67,-0.41 5.21,0.14z" opacity="0.1"/>
    <path d="m54,361.14s3.78,1.86 6.68,-3.49s2.12,-7.63 2.11,-8.52s0.58,-1.66 0.26,-2.84s-0.81,-1.08 -1.2,-2.63s0,-3.57 -0.52,-4.31a2.79,2.79 0 0 0 -1.93,-1.46a21.88,21.88 0 0 0 -3.81,0.37c-1.08,0.06 -1.35,2 -2.23,2.57s-3.41,2.29 -4,6.85s-0.93,7.65 0.49,9.88s2.82,3.2 4.15,3.58z" fill="#407BFF"/>
    <path d="m59.71,362.59c0.65,0.32 2.28,0.89 5.05,-0.94c3.38,-2.23 4.45,-6.6 4.94,-7.65a42,42 0 0 1 3,-6c1.1,-1.45 1.23,-2.43 1.09,-2.6s-1.81,-0.08 -3.19,1.62s-3.6,2.98 -4.8,5.72s-2.27,6.87 -4.36,8.08s-3.66,0.26 -3.5,1.17a14,14 0 0 0 1.77,0.6z" fill="#407BFF"/>
    <path d="m56.74,406.2s2.48,-8 -5.27,-22.61s-14.76,-19 -14.76,-19s0.08,8.13 6.88,21.63s12.11,19.38 13.15,19.98z" fill="#455a64"/>
    <path d="m40.5,370.84c-0.22,-0.41 -0.31,0 -0.09,0.41c2.74,5.18 12.23,20.79 15.29,31.57c0.13,0.45 0.5,0 0.36,-0.46c-6.01,-18.16 -12.77,-26.25 -15.56,-31.52z" fill="#37474f"/>
    <polygon fill="#407BFF" points="42.59 462.77 112.81 462.77 109.71 429.31 109.03 421.93 46.37 421.93 45.69 429.31 42.59 462.77"/>
    <polygon opacity="0.1" points="45.9 426.95 109.71 429.31 109.03 421.93 46.37 421.93 45.9 426.95"/>
    <rect fill="#407BFF" height="8.89" transform="translate(155.39 840.2) rotate(180)" width="70.69" x="42.35" y="415.66"/>
   </g>
   <g id="svg_22">
    <rect fill="#fff" height="242.94" width="331.88" x="84.06" y="55.48"/>
    <path d="m415.94,298.43l-331.88,0.15l-0.15,0l0,-0.15l-0.1,-242.95l0,-0.25l0.25,0l331.88,0.15l0.11,0l0,0.1l-0.11,242.95zm0,0l-0.11,-242.95l0.11,0.11l-331.88,0.14l0.25,-0.25l-0.1,243l-0.15,-0.16l331.88,0.11z" fill="#263238"/>
    <rect fill="#263238" height="9.35" width="331.88" x="84.06" y="55.48"/>
    <path d="m93.08,60.16a1.89,1.89 0 1 1 -1.89,-1.89a1.89,1.89 0 0 1 1.89,1.89z" fill="#407BFF"/>
    <path d="m100.77,60.16a1.89,1.89 0 1 1 -1.89,-1.89a1.89,1.89 0 0 1 1.89,1.89z" fill="#fff"/>
    <path d="m108.46,60.16a1.89,1.89 0 1 1 -1.89,-1.89a1.89,1.89 0 0 1 1.89,1.89z" fill="#455a64"/>
    <path d="m129.2,115a1.43,1.43 0 0 1 -0.9,1.8a2,2 0 0 1 -0.56,0.08l0,0a1.8,1.8 0 0 1 -1,-0.29a2.43,2.43 0 0 1 -0.82,-0.89a6.91,6.91 0 0 1 -0.54,-3.08a2.18,2.18 0 0 0 -0.31,-1.1a2.31,2.31 0 0 0 -0.77,-0.75a4.77,4.77 0 0 0 -1.43,-0.61l-3,0l0,5.56a1.43,1.43 0 0 1 -1.44,1.41a1.41,1.41 0 0 1 -1.41,-1.41l0,-15.11a1.39,1.39 0 0 1 1.41,-1.41l4.57,0a5.48,5.48 0 0 1 3.48,9.72a3.9,3.9 0 0 1 0.9,1a4.87,4.87 0 0 1 0.85,2.77a6.28,6.28 0 0 0 0.1,1.51a1.41,1.41 0 0 1 0.87,0.8zm-3.59,-10.31a2.64,2.64 0 0 0 -2.64,-2.66l-3.16,0l0,5.28l3.19,0a2.63,2.63 0 0 0 2.61,-2.6l0,-0.02z" fill="#263238"/>
    <path d="m133.35,115.74l0,-15.13a1.39,1.39 0 0 1 1.41,-1.41l8.39,0a1.42,1.42 0 0 1 1.41,1.41a1.45,1.45 0 0 1 -1.41,1.44l-7,0l0,4.69l6,0a1.43,1.43 0 0 1 0,2.85l-6,0l0,4.72l7,0a1.42,1.42 0 0 1 0,2.84l-8.31,0c-0.05,0 -0.05,0 -0.05,0l0,0a1.41,1.41 0 0 1 -1.44,-1.41z" fill="#263238"/>
    <path d="m148,112.69a1.34,1.34 0 0 1 1.87,-0.18a8.44,8.44 0 0 0 4.9,2a5.55,5.55 0 0 0 3.2,-0.95a2.33,2.33 0 0 0 1.11,-1.85a1.51,1.51 0 0 0 -0.23,-0.82a2.54,2.54 0 0 0 -0.77,-0.77a10.41,10.41 0 0 0 -3.52,-1.21l-0.05,0a14.08,14.08 0 0 1 -3.31,-1a5.48,5.48 0 0 1 -2.38,-2a3.87,3.87 0 0 1 -0.59,-2.1a4.76,4.76 0 0 1 2.05,-3.75a7.6,7.6 0 0 1 4.44,-1.35a10,10 0 0 1 5.59,2a1.32,1.32 0 0 1 0.36,1.82a1.3,1.3 0 0 1 -1.82,0.38a7.47,7.47 0 0 0 -4.13,-1.64a5,5 0 0 0 -2.88,0.87a2.05,2.05 0 0 0 -1,1.62a1.24,1.24 0 0 0 0.18,0.72a2.59,2.59 0 0 0 0.69,0.66a8.58,8.58 0 0 0 3.29,1.16l0,0a15.17,15.17 0 0 1 3.54,1.08a6,6 0 0 1 2.56,2.13a4.09,4.09 0 0 1 0.62,2.18a4.94,4.94 0 0 1 -2.21,4a8,8 0 0 1 -4.74,1.47a11.06,11.06 0 0 1 -6.57,-2.57a1.36,1.36 0 0 1 -0.2,-1.9z" fill="#263238"/>
    <path d="m165.67,115.74l0,-15.13a1.38,1.38 0 0 1 1.41,-1.41l8.39,0a1.42,1.42 0 0 1 1.41,1.41a1.45,1.45 0 0 1 -1.41,1.44l-6.95,0l0,4.69l6,0a1.43,1.43 0 0 1 0,2.85l-6,0l0,4.72l6.95,0a1.42,1.42 0 0 1 0,2.84l-8.31,0c-0.06,0 -0.06,0 -0.06,0l0,0a1.4,1.4 0 0 1 -1.43,-1.41z" fill="#263238"/>
    <path d="m191.86,102.05l-4.08,0l0,13.69a1.41,1.41 0 0 1 -2.82,0l0,-13.69l-4.06,0a1.43,1.43 0 0 1 -1.41,-1.44a1.39,1.39 0 0 1 1.41,-1.41l11,0a1.4,1.4 0 0 1 1.41,1.41a1.45,1.45 0 0 1 -1.45,1.44z" fill="#263238"/>
    <path d="m123.32,136.89l-3.15,0l0,5.57a1.43,1.43 0 0 1 -2.85,0l0,-15.14a1.41,1.41 0 0 1 1.41,-1.41l4.59,0a5.49,5.49 0 1 1 0,11l0,-0.02zm-3.15,-2.89l3.15,0a2.64,2.64 0 1 0 0,-5.28l-3.15,0l0,5.28z" fill="#263238"/>
    <path d="m139.64,139.64l-6.24,0l-1.25,3.36a1.43,1.43 0 0 1 -2.67,-1l5.67,-15.1a1.42,1.42 0 0 1 1.36,-0.9a1.4,1.4 0 0 1 1.36,0.9l5.67,15.1a1.47,1.47 0 0 1 -0.85,1.85a1.44,1.44 0 0 1 -0.49,0.08a1.4,1.4 0 0 1 -1.31,-0.9l-1.25,-3.39zm-1,-2.83l-2.08,-5.51l-2.08,5.51l4.16,0z" fill="#263238"/>
    <path d="m146.05,139.4a1.34,1.34 0 0 1 1.87,-0.18a8.31,8.31 0 0 0 4.9,2a5.58,5.58 0 0 0 3.21,-0.95a2.29,2.29 0 0 0 1.1,-1.85a1.51,1.51 0 0 0 -0.23,-0.82a2.66,2.66 0 0 0 -0.77,-0.77a10.43,10.43 0 0 0 -3.52,-1.2l-0.05,0a14.08,14.08 0 0 1 -3.31,-1a5.54,5.54 0 0 1 -2.38,-2a3.92,3.92 0 0 1 -0.59,-2.11a4.74,4.74 0 0 1 2.05,-3.74a7.61,7.61 0 0 1 4.44,-1.36a10.1,10.1 0 0 1 5.59,2a1.32,1.32 0 0 1 0.36,1.82a1.29,1.29 0 0 1 -1.82,0.39a7.47,7.47 0 0 0 -4.13,-1.64a4.89,4.89 0 0 0 -2.87,0.87a2,2 0 0 0 -1,1.61a1.22,1.22 0 0 0 0.18,0.72a2.45,2.45 0 0 0 0.69,0.67a8.94,8.94 0 0 0 3.23,1.14l0.05,0a15.17,15.17 0 0 1 3.54,1.07a6,6 0 0 1 2.56,2.13a4.14,4.14 0 0 1 0.62,2.18a4.94,4.94 0 0 1 -2.21,4a8,8 0 0 1 -4.74,1.46a11.08,11.08 0 0 1 -6.57,-2.56a1.37,1.37 0 0 1 -0.2,-1.88z" fill="#263238"/>
    <path d="m162.9,139.4a1.34,1.34 0 0 1 1.87,-0.18a8.31,8.31 0 0 0 4.9,2a5.58,5.58 0 0 0 3.21,-0.95a2.29,2.29 0 0 0 1.1,-1.85a1.51,1.51 0 0 0 -0.23,-0.82a2.66,2.66 0 0 0 -0.77,-0.77a10.36,10.36 0 0 0 -3.51,-1.2l-0.06,0a13.86,13.86 0 0 1 -3.3,-1a5.51,5.51 0 0 1 -2.39,-2a4,4 0 0 1 -0.59,-2.11a4.74,4.74 0 0 1 2.05,-3.74a7.61,7.61 0 0 1 4.44,-1.36a10.1,10.1 0 0 1 5.59,2a1.32,1.32 0 0 1 0.36,1.82a1.29,1.29 0 0 1 -1.82,0.39a7.47,7.47 0 0 0 -4.13,-1.64a4.92,4.92 0 0 0 -2.87,0.87a2,2 0 0 0 -1,1.61a1.22,1.22 0 0 0 0.18,0.72a2.45,2.45 0 0 0 0.69,0.67a9,9 0 0 0 3.21,1.13l0.05,0a15.17,15.17 0 0 1 3.54,1.07a6.06,6.06 0 0 1 2.57,2.13a4.22,4.22 0 0 1 0.61,2.18a5,5 0 0 1 -2.2,4a8.07,8.07 0 0 1 -4.75,1.46a11.08,11.08 0 0 1 -6.57,-2.56a1.37,1.37 0 0 1 -0.18,-1.87z" fill="#263238"/>
    <path d="m203.58,128l-6.29,15a0.68,0.68 0 0 1 -0.12,0.24l0,0a1.53,1.53 0 0 1 -0.13,0.16c0,0.05 0,0.05 0,0.07a1,1 0 0 0 -0.18,0.13l0,0c-0.08,0 -0.13,0.13 -0.23,0.15l0,0s0,0 0,0a1.23,1.23 0 0 0 -0.21,0.05l0,0a0.64,0.64 0 0 1 -0.25,0a0.66,0.66 0 0 1 -0.24,0l-0.07,0a1,1 0 0 0 -0.18,-0.05s0,0 -0.05,0a0.44,0.44 0 0 1 -0.23,-0.15l0,0l-0.18,-0.13l0,-0.07c0,-0.06 -0.08,-0.11 -0.1,-0.16s-0.05,0 -0.05,0a0.66,0.66 0 0 1 -0.11,-0.24l-3.36,-8l-3.6,8a1.33,1.33 0 0 1 -0.1,0.24a0,0 0 0 0 0,0l-0.16,0.16c0,0.05 0,0.05 0,0.07a0.65,0.65 0 0 0 -0.16,0.13l-0.05,0c-0.08,0 -0.15,0.13 -0.2,0.15l0,0a0,0 0 0 0 0,0a0.44,0.44 0 0 0 -0.2,0.05l-0.08,0a0.61,0.61 0 0 1 -0.23,0a0.77,0.77 0 0 1 -0.26,0l-0.07,0a1,1 0 0 0 -0.18,-0.05s0,0 -0.05,0a0.61,0.61 0 0 1 -0.23,-0.15l0,0c-0.08,-0.05 -0.1,-0.1 -0.18,-0.13l0,-0.07c-0.05,-0.06 -0.08,-0.11 -0.13,-0.16l0,0a2.6,2.6 0 0 1 -0.13,-0.24l-6.31,-15a1.39,1.39 0 0 1 0.77,-1.82a1.37,1.37 0 0 1 1.82,0.74l5,11.88l3.13,-7.8a1.41,1.41 0 0 1 1.33,-0.88a1.48,1.48 0 0 1 1.34,0.88l3.31,7.87l5.02,-11.87a1.43,1.43 0 0 1 1.87,-0.74a1.38,1.38 0 0 1 0.71,1.74z" fill="#263238"/>
    <path d="m221.45,128.14a9.4,9.4 0 0 1 0,13a8.39,8.39 0 0 1 -6.13,2.75a8.64,8.64 0 0 1 -6.28,-2.75a9.56,9.56 0 0 1 0,-13a8.55,8.55 0 0 1 6.28,-2.74a8.31,8.31 0 0 1 6.13,2.74zm-0.33,6.49a6.66,6.66 0 0 0 -1.74,-4.49a5.54,5.54 0 0 0 -8.21,0a6.52,6.52 0 0 0 -1.74,4.49a6.42,6.42 0 0 0 1.74,4.47a5.5,5.5 0 0 0 8.21,0a6.56,6.56 0 0 0 1.74,-4.47z" fill="#263238"/>
    <path d="m241,141.74a1.4,1.4 0 0 1 -0.9,1.79a2,2 0 0 1 -0.56,0.08l0,0a1.88,1.88 0 0 1 -1,-0.28a2.64,2.64 0 0 1 -0.82,-0.9a6.88,6.88 0 0 1 -0.54,-3.08a2.11,2.11 0 0 0 -0.3,-1.1a2.38,2.38 0 0 0 -0.77,-0.74a4.89,4.89 0 0 0 -1.44,-0.62l-3,0l0,5.57a1.43,1.43 0 0 1 -1.43,1.41a1.4,1.4 0 0 1 -1.41,-1.41l0,-15.14a1.39,1.39 0 0 1 1.41,-1.41l4.59,0a5.49,5.49 0 0 1 5.49,5.52a5.42,5.42 0 0 1 -2,4.2a4.3,4.3 0 0 1 0.9,1a4.91,4.91 0 0 1 0.84,2.77a7,7 0 0 0 0.1,1.52a1.33,1.33 0 0 1 0.84,0.82zm-3.59,-10.31a2.64,2.64 0 0 0 -2.64,-2.67l-3.16,0l0,5.24l3.16,0a2.63,2.63 0 0 0 2.61,-2.57l0.03,0z" fill="#263238"/>
    <path d="m245.13,142.46l0,-15.14a1.39,1.39 0 0 1 1.41,-1.41l3,0a9,9 0 0 1 0,18l-3,0a1.4,1.4 0 0 1 -1.41,-1.45zm2.87,-1.46l1.59,0a6.13,6.13 0 0 0 0,-12.26l-1.59,0l0,12.26z" fill="#263238"/>
    <path d="m117.24,169.32l0,4.81a0.2,0.2 0 0 1 -0.4,0l0,-5.39a0.21,0.21 0 0 1 0.07,-0.23a0.23,0.23 0 0 1 0.29,0.05l3.56,4.94l0,-4.78a0.21,0.21 0 1 1 0.41,0l0,5.41a0.2,0.2 0 0 1 -0.21,0.2a0.19,0.19 0 0 1 -0.16,-0.08s0,0 0,0l-3.56,-4.93z"/>
    <path d="m122.9,172.28a2,2 0 0 1 4,-0.15l0,0l0,0a0.19,0.19 0 0 1 -0.2,0.19l-3.4,0a1.63,1.63 0 0 0 1.6,1.58a1.54,1.54 0 0 0 1.32,-0.75a0.2,0.2 0 0 1 0.27,-0.07a0.21,0.21 0 0 1 0.07,0.29a2,2 0 0 1 -1.66,0.93a2,2 0 0 1 -2,-2.02zm0.43,-0.33l3.11,0a1.58,1.58 0 0 0 -1.54,-1.33a1.6,1.6 0 0 0 -1.57,1.38l0,-0.05z"/>
    <path d="m129.47,174.3a0.2,0.2 0 0 1 -0.08,-0.1l-1.54,-3.67a0.19,0.19 0 0 1 0.1,-0.26a0.2,0.2 0 0 1 0.26,0.11l1.36,3.24l1,-2.26a0.22,0.22 0 0 1 0.4,0l1,2.26l1.35,-3.24a0.22,0.22 0 0 1 0.27,-0.11a0.19,0.19 0 0 1 0.1,0.26l-1.53,3.66a0.25,0.25 0 0 1 -0.08,0.1a0.18,0.18 0 0 1 -0.1,0l0,0a0.2,0.2 0 0 1 -0.16,-0.13l0,0l-0.95,-2.27l-0.95,2.27l0,0a0.2,0.2 0 0 1 -0.18,0.13l-0.07,0l-0.2,0.01z"/>
    <path d="m137.94,168.66a0.2,0.2 0 0 1 0.2,-0.2l1.66,0a1.67,1.67 0 1 1 0,3.34l-1.45,0l0,2.31a0.2,0.2 0 0 1 -0.21,0.2a0.2,0.2 0 0 1 -0.2,-0.2l0,-5.45zm1.86,2.75a1.29,1.29 0 0 0 1.27,-1.28a1.27,1.27 0 0 0 -1.27,-1.26l-1.45,0l0,2.54l1.45,0z"/>
    <path d="m146.19,170.42l0,3.71a0.2,0.2 0 1 1 -0.4,0l0,-0.61a2,2 0 0 1 -1.55,0.81a2.06,2.06 0 0 1 0,-4.11a2,2 0 0 1 1.55,0.8l0,-0.6a0.2,0.2 0 0 1 0.4,0zm-0.4,1.85a1.55,1.55 0 1 0 -1.55,1.66a1.61,1.61 0 0 0 1.55,-1.66z"/>
    <path d="m147.65,173.47a0.2,0.2 0 0 1 0.29,0a2.16,2.16 0 0 0 1.25,0.48a1.23,1.23 0 0 0 0.79,-0.26a0.61,0.61 0 0 0 0.31,-0.5a0.65,0.65 0 0 0 -0.3,-0.5a1.86,1.86 0 0 0 -0.87,-0.3l0,0a2.37,2.37 0 0 1 -0.93,-0.32a0.85,0.85 0 0 1 -0.44,-0.74a1,1 0 0 1 0.44,-0.81a1.83,1.83 0 0 1 1,-0.27a2.2,2.2 0 0 1 1.22,0.44a0.21,0.21 0 0 1 0.06,0.29a0.2,0.2 0 0 1 -0.27,0.06a1.79,1.79 0 0 0 -1,-0.42a1.23,1.23 0 0 0 -0.78,0.24a0.6,0.6 0 0 0 -0.26,0.47a0.48,0.48 0 0 0 0.23,0.41a2,2 0 0 0 0.84,0.29l0,0a2.74,2.74 0 0 1 1,0.33a1,1 0 0 1 0,1.67a1.69,1.69 0 0 1 -1,0.33a2.46,2.46 0 0 1 -1.51,-0.59a0.18,0.18 0 0 1 -0.07,-0.3z"/>
    <path d="m151.7,173.47a0.19,0.19 0 0 1 0.28,0a2.22,2.22 0 0 0 1.26,0.48a1.18,1.18 0 0 0 0.78,-0.26a0.61,0.61 0 0 0 0.31,-0.5a0.64,0.64 0 0 0 -0.29,-0.5a1.9,1.9 0 0 0 -0.87,-0.3l0,0a2.31,2.31 0 0 1 -0.93,-0.32a0.86,0.86 0 0 1 -0.45,-0.74a1,1 0 0 1 0.45,-0.81a1.82,1.82 0 0 1 1,-0.27a2.23,2.23 0 0 1 1.23,0.44a0.21,0.21 0 0 1 -0.22,0.35a1.73,1.73 0 0 0 -1,-0.42a1.27,1.27 0 0 0 -0.78,0.24a0.63,0.63 0 0 0 -0.26,0.47a0.49,0.49 0 0 0 0.24,0.41a2,2 0 0 0 0.84,0.29l0,0a2.63,2.63 0 0 1 1,0.33a1,1 0 0 1 0.46,0.84a1,1 0 0 1 -0.46,0.83a1.71,1.71 0 0 1 -1,0.33a2.52,2.52 0 0 1 -1.52,-0.59a0.19,0.19 0 0 1 -0.07,-0.3z"/>
    <path d="m157.36,174.3a0.2,0.2 0 0 1 -0.08,-0.1l-1.54,-3.67a0.19,0.19 0 0 1 0.1,-0.26a0.2,0.2 0 0 1 0.26,0.11l1.36,3.24l0.95,-2.26a0.22,0.22 0 0 1 0.4,0l0.95,2.26l1.35,-3.24a0.21,0.21 0 0 1 0.26,-0.11a0.19,0.19 0 0 1 0.11,0.26l-1.48,3.66a0.25,0.25 0 0 1 -0.08,0.1a0.18,0.18 0 0 1 -0.1,0l0,0a0.2,0.2 0 0 1 -0.16,-0.13l0,0l-0.95,-2.27l-1,2.27l0,0a0.2,0.2 0 0 1 -0.18,0.13l-0.07,0l-0.1,0.01z"/>
    <path d="m164.76,170.22a2.06,2.06 0 1 1 -1.95,2.05a2,2 0 0 1 1.95,-2.05zm0,3.71a1.66,1.66 0 1 0 -1.54,-1.66a1.61,1.61 0 0 0 1.54,1.66z"/>
    <path d="m168.09,170.43a0.2,0.2 0 0 1 0.21,-0.2a0.19,0.19 0 0 1 0.19,0.2l0,0.9l0.06,-0.1a2,2 0 0 1 1.64,-1a0.19,0.19 0 0 1 0.2,0.2a0.2,0.2 0 0 1 -0.2,0.2a1.48,1.48 0 0 0 -1.19,0.67a3.29,3.29 0 0 0 -0.49,1a0.1,0.1 0 0 0 0,0.06l0,1.81a0.2,0.2 0 0 1 -0.19,0.2a0.2,0.2 0 0 1 -0.21,-0.2l-0.02,-3.74z"/>
    <path d="m174.85,173.53a2,2 0 0 1 -1.58,0.8a2.06,2.06 0 0 1 0,-4.11a2,2 0 0 1 1.58,0.8l0,-2.36a0.2,0.2 0 0 1 0.21,-0.2a0.2,0.2 0 0 1 0.2,0.2l0,5.47a0.2,0.2 0 0 1 -0.2,0.2a0.2,0.2 0 0 1 -0.21,-0.2l0,-0.6zm0,-1.18l0,-0.14a1.64,1.64 0 1 0 0,0.14z"/>
    <rect fill="#ebebeb" height="16.08" width="146.98" x="116.27" y="178.57"/>
    <path d="m119.61,202.34a3.11,3.11 0 0 1 1.9,0.65a0.21,0.21 0 0 1 0,0.29a0.2,0.2 0 0 1 -0.29,0a2.67,2.67 0 0 0 -1.64,-0.57a2.57,2.57 0 1 0 0,5.14a2.51,2.51 0 0 0 1.63,-0.57a0.22,0.22 0 0 1 0.27,0.34a3.11,3.11 0 0 1 -1.9,0.64a3,3 0 1 1 0,-6l0.03,0.08z"/>
    <path d="m124.86,204.19a2.06,2.06 0 1 1 -1.94,2.05a2,2 0 0 1 1.94,-2.05zm0,3.71a1.66,1.66 0 1 0 -1.54,-1.66a1.62,1.62 0 0 0 1.54,1.66z"/>
    <path d="m131.3,205.87a1.27,1.27 0 0 0 -1.3,-1.27a1.29,1.29 0 0 0 -1.28,1.27l0,2.26s0,0.07 0,0.09a0.18,0.18 0 0 1 -0.15,0.08l-0.05,0a0.21,0.21 0 0 1 -0.13,-0.11a0,0 0 0 1 0,0l0,0l0,-3.79a0.19,0.19 0 0 1 0.2,-0.2a0.19,0.19 0 0 1 0.19,0.2l0,0.39a1.67,1.67 0 0 1 2.95,1.08l0,2.23a0.2,0.2 0 1 1 -0.4,0l-0.03,-2.23z"/>
    <path d="m135.32,202.64a0.21,0.21 0 0 1 -0.2,0.2c-0.29,0 -0.44,0.06 -0.52,0.16a1,1 0 0 0 -0.17,0.68l0,0.44l0.57,0a0.21,0.21 0 1 1 0,0.41l-0.58,0l0,3.58a0.21,0.21 0 0 1 -0.2,0.2a0.21,0.21 0 0 1 -0.21,-0.2l0,-3.58l-0.55,0a0.2,0.2 0 0 1 -0.2,-0.21a0.2,0.2 0 0 1 0.2,-0.2l0.54,0l0,-0.44a1.4,1.4 0 0 1 0.26,-1a1.12,1.12 0 0 1 0.84,-0.3a0.22,0.22 0 0 1 0.22,0.26z"/>
    <path d="m136.55,203.05a0.21,0.21 0 1 1 0.41,0l0,0.19a0.21,0.21 0 1 1 -0.41,0l0,-0.19zm0,1.34a0.19,0.19 0 0 1 0.2,-0.2a0.2,0.2 0 0 1 0.21,0.2l0,3.71a0.2,0.2 0 0 1 -0.21,0.2a0.2,0.2 0 0 1 -0.2,-0.2l0,-3.71z"/>
    <path d="m138.9,204.4a0.2,0.2 0 0 1 0.21,-0.2a0.2,0.2 0 0 1 0.2,0.2l0,0.9a0.93,0.93 0 0 1 0.05,-0.1a2,2 0 0 1 1.65,-1a0.19,0.19 0 0 1 0.2,0.2a0.2,0.2 0 0 1 -0.2,0.2a1.47,1.47 0 0 0 -1.19,0.67a3.68,3.68 0 0 0 -0.5,1a0.18,0.18 0 0 0 0,0.06l0,1.81a0.21,0.21 0 0 1 -0.41,0l-0.01,-3.74z"/>
    <path d="m148.47,205.87a1.3,1.3 0 0 0 -1.28,-1.28a1.28,1.28 0 0 0 -1.26,1.28l0,2.28l0,0a0.22,0.22 0 0 1 -0.1,0.11a0.19,0.19 0 0 1 -0.1,0l-0.06,0l0,0l0,0l0,0l0,0s0,0 0,0l0,-0.07l0,0l0,-2.24a1.27,1.27 0 1 0 -2.54,0l0,2.24a0.19,0.19 0 0 1 -0.09,0.16l0,0l-0.08,0a0.22,0.22 0 0 1 -0.17,-0.15l0,-3.76a0.19,0.19 0 0 1 0.19,-0.19a0.19,0.19 0 0 1 0.2,0.19l0,0.39a1.64,1.64 0 0 1 1.27,-0.58a1.67,1.67 0 0 1 1.47,0.87a1.7,1.7 0 0 1 1.47,-0.87a1.66,1.66 0 0 1 1.67,1.67l0,2.24a0.19,0.19 0 0 1 -0.2,0.19a0.19,0.19 0 0 1 -0.19,-0.19l-0.2,-2.29z"/>
    <path d="m153.61,203.29l0,4.81a0.2,0.2 0 0 1 -0.4,0l0,-5.39a0.21,0.21 0 0 1 0.07,-0.23a0.23,0.23 0 0 1 0.29,0.05l3.56,4.94l0,-4.78a0.21,0.21 0 1 1 0.41,0l0,5.41a0.2,0.2 0 0 1 -0.21,0.2a0.19,0.19 0 0 1 -0.16,-0.08s0,0 0,0l-3.56,-4.93z"/>
    <path d="m159.27,206.25a2,2 0 0 1 4,-0.15l0,0l0,0a0.2,0.2 0 0 1 -0.2,0.19l-3.38,0a1.62,1.62 0 0 0 1.6,1.58a1.54,1.54 0 0 0 1.32,-0.75a0.2,0.2 0 0 1 0.27,-0.07a0.22,0.22 0 0 1 0.07,0.29a2,2 0 0 1 -1.66,0.93a2,2 0 0 1 -2.02,-2.02zm0.43,-0.33l3.11,0a1.58,1.58 0 0 0 -1.54,-1.33a1.6,1.6 0 0 0 -1.57,1.33z"/>
    <path d="m165.84,208.27a0.2,0.2 0 0 1 -0.08,-0.1l-1.54,-3.67a0.19,0.19 0 0 1 0.1,-0.26a0.2,0.2 0 0 1 0.26,0.11l1.36,3.24l0.95,-2.26a0.22,0.22 0 0 1 0.4,0l0.94,2.26l1.36,-3.24a0.21,0.21 0 0 1 0.26,-0.11a0.19,0.19 0 0 1 0.11,0.26l-1.53,3.66a0.25,0.25 0 0 1 -0.08,0.1a0.21,0.21 0 0 1 -0.1,0l0,0a0.2,0.2 0 0 1 -0.16,-0.13l0,0l-0.95,-2.27l-1,2.27l0,0a0.2,0.2 0 0 1 -0.18,0.13l-0.07,0l-0.05,0.01z"/>
    <path d="m174.31,202.63a0.2,0.2 0 0 1 0.2,-0.2l1.66,0a1.67,1.67 0 1 1 0,3.34l-1.45,0l0,2.31a0.2,0.2 0 0 1 -0.21,0.2a0.2,0.2 0 0 1 -0.2,-0.2l0,-5.45zm1.86,2.75a1.29,1.29 0 0 0 1.27,-1.28a1.27,1.27 0 0 0 -1.27,-1.26l-1.45,0l0,2.54l1.45,0z"/>
    <path d="m182.56,204.39l0,3.71a0.21,0.21 0 0 1 -0.41,0l0,-0.61a1.92,1.92 0 0 1 -1.54,0.81a2.06,2.06 0 0 1 0,-4.11a1.91,1.91 0 0 1 1.54,0.8l0,-0.6a0.2,0.2 0 0 1 0.21,-0.2a0.2,0.2 0 0 1 0.2,0.2zm-0.41,1.85a1.54,1.54 0 1 0 -1.54,1.66a1.6,1.6 0 0 0 1.54,-1.66z"/>
    <path d="m184,207.44a0.2,0.2 0 0 1 0.29,0a2.16,2.16 0 0 0 1.25,0.48a1.18,1.18 0 0 0 0.78,-0.26a0.59,0.59 0 0 0 0.31,-0.5a0.61,0.61 0 0 0 -0.29,-0.5a1.9,1.9 0 0 0 -0.87,-0.3l0,0a2.37,2.37 0 0 1 -0.93,-0.32a0.85,0.85 0 0 1 -0.44,-0.74a1,1 0 0 1 0.44,-0.81a1.83,1.83 0 0 1 1,-0.27a2.2,2.2 0 0 1 1.22,0.44a0.22,0.22 0 0 1 0.06,0.29a0.22,0.22 0 0 1 -0.28,0.06a1.73,1.73 0 0 0 -1,-0.42a1.23,1.23 0 0 0 -0.78,0.24a0.6,0.6 0 0 0 -0.26,0.47a0.48,0.48 0 0 0 0.23,0.41a2,2 0 0 0 0.84,0.29l0,0a2.74,2.74 0 0 1 1,0.33a1,1 0 0 1 0,1.67a1.69,1.69 0 0 1 -1,0.33a2.46,2.46 0 0 1 -1.51,-0.59a0.18,0.18 0 0 1 -0.06,-0.3z"/>
    <path d="m188.07,207.44a0.19,0.19 0 0 1 0.28,0a2.22,2.22 0 0 0 1.26,0.48a1.18,1.18 0 0 0 0.78,-0.26a0.61,0.61 0 0 0 0.31,-0.5a0.64,0.64 0 0 0 -0.29,-0.5a1.91,1.91 0 0 0 -0.88,-0.3l0,0a2.31,2.31 0 0 1 -0.93,-0.32a0.86,0.86 0 0 1 -0.45,-0.74a1,1 0 0 1 0.45,-0.81a1.8,1.8 0 0 1 1,-0.27a2.23,2.23 0 0 1 1.23,0.44a0.22,0.22 0 0 1 0.06,0.29a0.22,0.22 0 0 1 -0.28,0.06a1.73,1.73 0 0 0 -1,-0.42a1.27,1.27 0 0 0 -0.78,0.24a0.63,0.63 0 0 0 -0.26,0.47a0.49,0.49 0 0 0 0.24,0.41a2,2 0 0 0 0.84,0.29l0,0a2.62,2.62 0 0 1 1,0.33a1,1 0 0 1 0,1.67a1.66,1.66 0 0 1 -1,0.33a2.52,2.52 0 0 1 -1.52,-0.59a0.19,0.19 0 0 1 -0.06,-0.3z"/>
    <path d="m193.73,208.27a0.2,0.2 0 0 1 -0.08,-0.1l-1.55,-3.67a0.2,0.2 0 1 1 0.37,-0.15l1.36,3.24l0.95,-2.26a0.22,0.22 0 0 1 0.19,-0.13a0.23,0.23 0 0 1 0.21,0.13l0.94,2.26l1.36,-3.24a0.21,0.21 0 0 1 0.26,-0.11a0.2,0.2 0 0 1 0.11,0.26l-1.53,3.66a0.39,0.39 0 0 1 -0.08,0.1a0.21,0.21 0 0 1 -0.1,0l0,0a0.2,0.2 0 0 1 -0.16,-0.13l0,0l-1,-2.27l-0.94,2.27l0,0a0.2,0.2 0 0 1 -0.18,0.13l-0.07,0l-0.06,0.01z"/>
    <path d="m201.13,204.19a2.06,2.06 0 1 1 -1.95,2.05a2,2 0 0 1 1.95,-2.05zm0,3.71a1.66,1.66 0 1 0 -1.55,-1.66a1.61,1.61 0 0 0 1.55,1.66z"/>
    <path d="m204.45,204.4a0.2,0.2 0 0 1 0.21,-0.2a0.2,0.2 0 0 1 0.2,0.2l0,0.9a0.37,0.37 0 0 1 0.06,-0.1a2,2 0 0 1 1.64,-1a0.19,0.19 0 0 1 0.2,0.2a0.2,0.2 0 0 1 -0.2,0.2a1.47,1.47 0 0 0 -1.19,0.67a3.68,3.68 0 0 0 -0.5,1a0.18,0.18 0 0 0 0,0.06l0,1.81a0.21,0.21 0 0 1 -0.41,0l-0.01,-3.74z"/>
    <path d="m211.22,207.5a2,2 0 0 1 -1.58,0.8a2.06,2.06 0 0 1 0,-4.11a2,2 0 0 1 1.58,0.8l0,-2.36a0.2,0.2 0 0 1 0.21,-0.2a0.2,0.2 0 0 1 0.2,0.2l0,5.47a0.2,0.2 0 0 1 -0.2,0.2a0.2,0.2 0 0 1 -0.21,-0.2l0,-0.6zm0,-1.18l0,-0.14a1.64,1.64 0 1 0 0,0.14z"/>
    <rect fill="#ebebeb" height="16.08" width="146.98" x="116.27" y="212.54"/>
    <path d="m351.07,154.23l0,26.86l-7.6,0l0,-26.86c0,-10.22 -7.76,-18.53 -17.3,-18.53s-17.31,8.31 -17.31,18.53l0,26.86l-7.59,0l0,-26.86c0,-14.63 11.17,-26.53 24.9,-26.53s24.9,11.9 24.9,26.53z" fill="#dbdbdb"/>
    <polygon fill="#c7c7c7" points="301.27 161.21 308.86 161.52 308.86 181.09 301.27 181.09 301.27 161.21"/>
    <polygon fill="#c7c7c7" points="351.06 163.24 351.06 181.09 343.47 181.09 343.47 162.93 351.06 163.24"/>
    <rect fill="#407BFF" height="57.48" width="69.26" x="291.54" y="171.15"/>
    <rect height="57.48" opacity="0.1" width="34.63" x="291.54" y="171.15"/>
    <path d="m329.42,199.51l2.9,13.76l-12.32,0l2.9,-13.76a6.16,6.16 0 1 1 6.51,0l0.01,0z" fill="#263238"/>
    <path d="m387.17,175l-3.1,-0.5a23.45,23.45 0 0 0 -43.4,-15.5l-2.78,-1.46a26.59,26.59 0 0 1 49.28,17.46z" fill="#37474f"/>
    <path d="m383.24,175.09l0.12,-0.71a22.73,22.73 0 0 0 -42.07,-15l-0.35,0.59l-4.05,-2.13l0.38,-0.65a27.31,27.31 0 0 1 50.61,18l-0.12,0.71l-4.52,-0.81zm-17.24,-27.92a24.17,24.17 0 0 1 18.87,26.73l1.68,0.27a25.86,25.86 0 0 0 -47.66,-16.95l1.5,0.79a24.14,24.14 0 0 1 25.61,-10.84z" fill="#37474f"/>
    <polygon fill="#37474f" points="380.44 172.22 381.88 171.09 385.28 175.65 389.57 172 390.62 173.43 384.88 178.3 380.44 172.22"/>
    <path d="m384.76,179.35l-5.31,-7.26l2.56,-2l3.39,4.53l4.28,-3.64l1.92,2.58l-6.84,5.79zm-3.33,-7l3.58,4.89l4.64,-3.94l-0.2,-0.26l-4.29,3.64l-3.42,-4.58l-0.31,0.25z" fill="#37474f"/>
    <path d="m334.42,167.26l3.1,0.5a23.45,23.45 0 0 0 43.4,15.53l2.78,1.46a26.59,26.59 0 0 1 -49.28,-17.49z" fill="#37474f"/>
    <path d="m354.92,198.14a27.29,27.29 0 0 1 -21.2,-31l0.11,-0.71l4.52,0.72l-0.12,0.71a22.73,22.73 0 0 0 42.07,15.06l0.35,-0.6l4.05,2.13l-0.38,0.65a27.23,27.23 0 0 1 -29.4,13.04zm-19.89,-30a25.87,25.87 0 0 0 47.67,16.86l-1.51,-0.79a24.17,24.17 0 0 1 -44.48,-15.88l-1.68,-0.19z" fill="#37474f"/>
    <polygon fill="#37474f" points="341.15 170.03 339.71 171.16 336.31 166.6 332.03 170.25 330.97 168.82 336.71 163.95 341.15 170.03"/>
    <path d="m331.91,171.29l-1.91,-2.58l6.84,-5.81l5.31,7.26l-2.56,2l-3.38,-4.53l-4.3,3.66zm0,-2.35l0.2,0.26l4.28,-3.64l3.42,4.58l0.31,-0.25l-3.54,-4.89l-4.67,3.94z" fill="#37474f"/>
    <path d="m127.43,184.46a9.59,9.59 0 0 1 -4.3,4.3a8.31,8.31 0 0 1 1.79,-2.5a8.51,8.51 0 0 1 2.51,-1.8z" fill="#263238"/>
    <path d="m123.13,184.46a8.59,8.59 0 0 1 2.5,1.8a8.33,8.33 0 0 1 1.8,2.5a9.46,9.46 0 0 1 -4.3,-4.3z" fill="#263238"/>
    <path d="m128.32,186.61a8.77,8.77 0 0 1 -3,0.5a8.47,8.47 0 0 1 -3,-0.5a8.26,8.26 0 0 1 3,-0.5a8.54,8.54 0 0 1 3,0.5z" fill="#263238"/>
    <path d="m125.28,183.57a9.49,9.49 0 0 1 0,6.08a9.49,9.49 0 0 1 0,-6.08z" fill="#263238"/>
    <path d="m137.91,184.46a8.46,8.46 0 0 1 -1.8,2.5a8.33,8.33 0 0 1 -2.5,1.8a9.59,9.59 0 0 1 4.3,-4.3z" fill="#263238"/>
    <path d="m133.61,184.46a9.59,9.59 0 0 1 4.3,4.3a8.33,8.33 0 0 1 -2.5,-1.8a8.46,8.46 0 0 1 -1.8,-2.5z" fill="#263238"/>
    <path d="m138.8,186.61a8.73,8.73 0 0 1 -3,0.5a8.51,8.51 0 0 1 -3,-0.5a8.29,8.29 0 0 1 3,-0.5a8.51,8.51 0 0 1 3,0.5z" fill="#263238"/>
    <path d="m135.76,183.57a8.73,8.73 0 0 1 0.5,3a8.54,8.54 0 0 1 -0.5,3a8.33,8.33 0 0 1 -0.5,-3a8.73,8.73 0 0 1 0.5,-3z" fill="#263238"/>
    <path d="m148.39,184.46a8.62,8.62 0 0 1 -1.79,2.5a8.51,8.51 0 0 1 -2.51,1.8a8.33,8.33 0 0 1 1.8,-2.5a8.59,8.59 0 0 1 2.5,-1.8z" fill="#263238"/>
    <path d="m144.09,184.46a8.51,8.51 0 0 1 2.51,1.8a8.31,8.31 0 0 1 1.79,2.5a9.59,9.59 0 0 1 -4.3,-4.3z" fill="#263238"/>
    <path d="m149.28,186.61a8.7,8.7 0 0 1 -3,0.5a8.54,8.54 0 0 1 -3,-0.5a8.33,8.33 0 0 1 3,-0.5a8.47,8.47 0 0 1 3,0.5z" fill="#263238"/>
    <path d="m146.24,183.57a9.49,9.49 0 0 1 0,6.08a9.49,9.49 0 0 1 0,-6.08z" fill="#263238"/>
    <path d="m158.88,184.46a9.59,9.59 0 0 1 -4.3,4.3a8.31,8.31 0 0 1 1.79,-2.5a8.51,8.51 0 0 1 2.51,-1.8z" fill="#263238"/>
    <path d="m154.58,184.46a8.59,8.59 0 0 1 2.5,1.8a8.33,8.33 0 0 1 1.8,2.5a8.51,8.51 0 0 1 -2.51,-1.8a8.62,8.62 0 0 1 -1.79,-2.5z" fill="#263238"/>
    <path d="m159.77,186.61a8.77,8.77 0 0 1 -3,0.5a8.47,8.47 0 0 1 -3,-0.5a8.26,8.26 0 0 1 3,-0.5a8.54,8.54 0 0 1 3,0.5z" fill="#263238"/>
    <path d="m156.73,183.57a9.49,9.49 0 0 1 0,6.08a9.49,9.49 0 0 1 0,-6.08z" fill="#263238"/>
    <path d="m169.36,184.46a8.46,8.46 0 0 1 -1.8,2.5a8.33,8.33 0 0 1 -2.5,1.8a8.33,8.33 0 0 1 1.8,-2.5a8.46,8.46 0 0 1 2.5,-1.8z" fill="#263238"/>
    <path d="m165.06,184.46a9.59,9.59 0 0 1 4.3,4.3a8.33,8.33 0 0 1 -2.5,-1.8a8.46,8.46 0 0 1 -1.8,-2.5z" fill="#263238"/>
    <path d="m170.25,186.61a8.73,8.73 0 0 1 -3,0.5a8.51,8.51 0 0 1 -3,-0.5a8.29,8.29 0 0 1 3,-0.5a8.51,8.51 0 0 1 3,0.5z" fill="#263238"/>
    <path d="m167.21,183.57a8.73,8.73 0 0 1 0.5,3a8.33,8.33 0 0 1 -0.5,3a8.54,8.54 0 0 1 -0.5,-3a8.73,8.73 0 0 1 0.5,-3z" fill="#263238"/>
    <path d="m179.84,184.46a8.43,8.43 0 0 1 -1.79,2.5a8.59,8.59 0 0 1 -2.5,1.8a8.14,8.14 0 0 1 1.79,-2.5a8.59,8.59 0 0 1 2.5,-1.8z" fill="#263238"/>
    <path d="m175.55,184.46a8.59,8.59 0 0 1 2.5,1.8a8.31,8.31 0 0 1 1.79,2.5a8.59,8.59 0 0 1 -2.5,-1.8a8.43,8.43 0 0 1 -1.79,-2.5z" fill="#263238"/>
    <path d="m180.73,186.61a8.7,8.7 0 0 1 -3,0.5a8.45,8.45 0 0 1 -3,-0.5a8.24,8.24 0 0 1 3,-0.5a8.47,8.47 0 0 1 3,0.5z" fill="#263238"/>
    <path d="m177.69,183.57a9.49,9.49 0 0 1 0,6.08a9.49,9.49 0 0 1 0,-6.08z" fill="#263238"/>
    <path d="m190.33,184.46a9.59,9.59 0 0 1 -4.3,4.3a8.31,8.31 0 0 1 1.79,-2.5a8.51,8.51 0 0 1 2.51,-1.8z" fill="#263238"/>
    <path d="m186,184.46a8.59,8.59 0 0 1 2.5,1.8a8.33,8.33 0 0 1 1.8,2.5a8.51,8.51 0 0 1 -2.51,-1.8a8.62,8.62 0 0 1 -1.79,-2.5z" fill="#263238"/>
    <path d="m191.22,186.61a8.77,8.77 0 0 1 -3,0.5a8.47,8.47 0 0 1 -3,-0.5a8.26,8.26 0 0 1 3,-0.5a8.54,8.54 0 0 1 3,0.5z" fill="#263238"/>
    <path d="m188.18,183.57a9.49,9.49 0 0 1 0,6.08a9.49,9.49 0 0 1 0,-6.08z" fill="#263238"/>
    <path d="m127.43,218.44a8.78,8.78 0 0 1 -1.8,2.5a8.59,8.59 0 0 1 -2.5,1.8a8.48,8.48 0 0 1 1.79,-2.51a8.66,8.66 0 0 1 2.51,-1.79z" fill="#263238"/>
    <path d="m123.13,218.44a8.75,8.75 0 0 1 2.5,1.79a8.51,8.51 0 0 1 1.8,2.51a9.46,9.46 0 0 1 -4.3,-4.3z" fill="#263238"/>
    <path d="m128.32,220.59a9.49,9.49 0 0 1 -6.08,0a9.49,9.49 0 0 1 6.08,0z" fill="#263238"/>
    <path d="m125.28,217.55a9.49,9.49 0 0 1 0,6.08a9.49,9.49 0 0 1 0,-6.08z" fill="#263238"/>
    <path d="m137.91,218.44a8.59,8.59 0 0 1 -1.8,2.5a8.33,8.33 0 0 1 -2.5,1.8a9.46,9.46 0 0 1 4.3,-4.3z" fill="#263238"/>
    <path d="m133.61,218.44a9.46,9.46 0 0 1 4.3,4.3a8.33,8.33 0 0 1 -2.5,-1.8a8.59,8.59 0 0 1 -1.8,-2.5z" fill="#263238"/>
    <path d="m138.8,220.59a9.49,9.49 0 0 1 -6.08,0a9.49,9.49 0 0 1 6.08,0z" fill="#263238"/>
    <path d="m135.76,217.55a8.7,8.7 0 0 1 0.5,3a8.54,8.54 0 0 1 -0.5,3a8.33,8.33 0 0 1 -0.5,-3a8.7,8.7 0 0 1 0.5,-3z" fill="#263238"/>
    <path d="m148.39,218.44a8.75,8.75 0 0 1 -1.79,2.5a8.51,8.51 0 0 1 -2.51,1.8a8.51,8.51 0 0 1 1.8,-2.51a8.75,8.75 0 0 1 2.5,-1.79z" fill="#263238"/>
    <path d="m144.09,218.44a8.66,8.66 0 0 1 2.51,1.79a8.48,8.48 0 0 1 1.79,2.51a8.59,8.59 0 0 1 -2.5,-1.8a8.78,8.78 0 0 1 -1.8,-2.5z" fill="#263238"/>
    <path d="m149.28,220.59a9.49,9.49 0 0 1 -6.08,0a9.49,9.49 0 0 1 6.08,0z" fill="#263238"/>
    <path d="m146.24,217.55a9.49,9.49 0 0 1 0,6.08a9.49,9.49 0 0 1 0,-6.08z" fill="#263238"/>
    <path d="m158.88,218.44a8.78,8.78 0 0 1 -1.8,2.5a8.59,8.59 0 0 1 -2.5,1.8a8.48,8.48 0 0 1 1.79,-2.51a8.66,8.66 0 0 1 2.51,-1.79z" fill="#263238"/>
    <path d="m154.58,218.44a8.75,8.75 0 0 1 2.5,1.79a8.51,8.51 0 0 1 1.8,2.51a8.51,8.51 0 0 1 -2.51,-1.8a8.75,8.75 0 0 1 -1.79,-2.5z" fill="#263238"/>
    <path d="m159.77,220.59a9.49,9.49 0 0 1 -6.08,0a9.49,9.49 0 0 1 6.08,0z" fill="#263238"/>
    <path d="m156.73,217.55a9.49,9.49 0 0 1 0,6.08a9.49,9.49 0 0 1 0,-6.08z" fill="#263238"/>
    <rect fill="#263238" height="10.4" width="0.66" x="159.44" y="215.39"/>
    <rect fill="#407BFF" height="16.45" width="56.99" x="116.55" y="242.11"/>
    <path d="m122.67,250.86a3.13,3.13 0 0 1 3.13,-3.08a3.17,3.17 0 0 1 2,0.67a0.5,0.5 0 0 1 0.09,0.68a0.5,0.5 0 0 1 -0.68,0.1a2.14,2.14 0 0 0 -1.38,-0.47a2.24,2.24 0 0 0 -1.54,0.61a2.13,2.13 0 0 0 -0.62,1.49a2.07,2.07 0 0 0 0.62,1.48a2.25,2.25 0 0 0 1.54,0.62a2.16,2.16 0 0 0 1.38,-0.47a0.49,0.49 0 0 1 0.59,0.78a3.16,3.16 0 0 1 -2,0.66a3.11,3.11 0 0 1 -3.13,-3.07z" fill="#fff"/>
    <path d="m134.06,248.7a3.14,3.14 0 0 1 0,4.32a2.81,2.81 0 0 1 -2,0.91a2.93,2.93 0 0 1 -2.1,-0.91a3.2,3.2 0 0 1 0,-4.32a2.86,2.86 0 0 1 2.1,-0.92a2.75,2.75 0 0 1 2,0.92zm-0.11,2.16a2.24,2.24 0 0 0 -0.58,-1.5a1.86,1.86 0 0 0 -1.35,-0.6a1.88,1.88 0 0 0 -1.39,0.6a2.19,2.19 0 0 0 -0.58,1.5a2.1,2.1 0 0 0 0.58,1.48a1.86,1.86 0 0 0 1.37,0.66a1.84,1.84 0 0 0 1.35,-0.62a2.15,2.15 0 0 0 0.65,-1.52l-0.05,0z" fill="#fff"/>
    <path d="m137.32,253.46a0.47,0.47 0 1 1 -0.93,0l0,-5l0,0a0.45,0.45 0 0 1 0.19,-0.39a0.46,0.46 0 0 1 0.64,0.1l2.78,3.83l0,-3.5a0.47,0.47 0 0 1 0.47,-0.46a0.47,0.47 0 0 1 0.47,0.46l0,5a0.48,0.48 0 0 1 -0.47,0.47a0.43,0.43 0 0 1 -0.35,-0.17l0,0l-2.73,-3.79l-0.07,3.45z" fill="#fff"/>
    <path d="m146.53,248.9l-1.35,0l0,4.56a0.47,0.47 0 0 1 -0.94,0l0,-4.56l-1.35,0a0.47,0.47 0 0 1 -0.47,-0.48a0.46,0.46 0 0 1 0.47,-0.47l3.64,0a0.47,0.47 0 0 1 0.47,0.47a0.48,0.48 0 0 1 -0.47,0.48z" fill="#fff"/>
    <path d="m148.47,248.42a0.46,0.46 0 0 1 0.47,-0.47a0.48,0.48 0 0 1 0.48,0.47l0,5a0.47,0.47 0 0 1 -0.48,0.47a0.46,0.46 0 0 1 -0.47,-0.47l0,-5z" fill="#fff"/>
    <path d="m152,253.46a0.47,0.47 0 1 1 -0.93,0l0,-5l0,0a0.45,0.45 0 0 1 0.19,-0.39a0.47,0.47 0 0 1 0.65,0.1l2.76,3.82l0,-3.49a0.47,0.47 0 0 1 0.93,0l0,5a0.47,0.47 0 0 1 -0.47,0.47a0.46,0.46 0 0 1 -0.35,-0.17a0.1,0.1 0 0 1 0,0l-2.78,-3.88l0,3.54z" fill="#fff"/>
    <path d="m159.65,253.93a2.46,2.46 0 0 1 -2.47,-2.47l0,-3a0.46,0.46 0 0 1 0.47,-0.47a0.48,0.48 0 0 1 0.48,0.47l0,3a1.52,1.52 0 1 0 3,0l0,-3a0.48,0.48 0 0 1 1,0l0,3a2.47,2.47 0 0 1 -2.48,2.47z" fill="#fff"/>
    <path d="m163.69,253.46l0,-5a0.47,0.47 0 0 1 0.47,-0.47l2.84,0a0.48,0.48 0 0 1 0,1l-2.32,0l0,1.56l2,0a0.48,0.48 0 0 1 0.47,0.47a0.47,0.47 0 0 1 -0.47,0.48l-2,0l0,1.5l2.32,0a0.47,0.47 0 0 1 0,0.94l-2.8,0a0.47,0.47 0 0 1 -0.51,-0.48z" fill="#fff"/>
    <path d="m193,250.86a3.13,3.13 0 0 1 3.13,-3.08a3.17,3.17 0 0 1 2,0.67a0.5,0.5 0 0 1 0.09,0.68a0.5,0.5 0 0 1 -0.68,0.1a2.14,2.14 0 0 0 -1.38,-0.47a2.24,2.24 0 0 0 -1.54,0.61a2.13,2.13 0 0 0 -0.62,1.49a2.07,2.07 0 0 0 0.62,1.48a2.25,2.25 0 0 0 1.54,0.62a2.16,2.16 0 0 0 1.38,-0.47a0.49,0.49 0 0 1 0.59,0.78a3.16,3.16 0 0 1 -2,0.66a3.11,3.11 0 0 1 -3.13,-3.07z" fill="#ebebeb"/>
    <path d="m202.8,252.52l-2.08,0l-0.42,1.11a0.48,0.48 0 0 1 -0.44,0.3a0.5,0.5 0 0 1 -0.17,0a0.5,0.5 0 0 1 -0.28,-0.62l1.89,-5a0.48,0.48 0 0 1 0.45,-0.3a0.47,0.47 0 0 1 0.46,0.3l1.88,5a0.48,0.48 0 0 1 -0.28,0.62a0.39,0.39 0 0 1 -0.16,0a0.46,0.46 0 0 1 -0.44,-0.3l-0.41,-1.11zm-0.35,-0.94l-0.7,-1.83l-0.69,1.83l1.39,0z" fill="#ebebeb"/>
    <path d="m206.2,253.46a0.47,0.47 0 1 1 -0.93,0l0,-5l0,0a0.45,0.45 0 0 1 0.19,-0.39a0.47,0.47 0 0 1 0.65,0.1l2.76,3.82l0,-3.49a0.46,0.46 0 0 1 0.46,-0.46a0.47,0.47 0 0 1 0.47,0.46l0,5a0.47,0.47 0 0 1 -0.47,0.47a0.43,0.43 0 0 1 -0.35,-0.17a0.07,0.07 0 0 1 0,0l-2.74,-3.79l-0.04,3.45z" fill="#ebebeb"/>
    <path d="m211.58,250.86a3.15,3.15 0 0 1 3.14,-3.08a3.19,3.19 0 0 1 2,0.67a0.5,0.5 0 0 1 0.08,0.68a0.49,0.49 0 0 1 -0.68,0.1a2.09,2.09 0 0 0 -1.37,-0.47a2.24,2.24 0 0 0 -1.54,0.61a2.09,2.09 0 0 0 -0.63,1.49a2,2 0 0 0 0.63,1.48a2.25,2.25 0 0 0 1.54,0.62a2.11,2.11 0 0 0 1.37,-0.47a0.49,0.49 0 0 1 0.6,0.78a3.18,3.18 0 0 1 -2,0.66a3.12,3.12 0 0 1 -3.14,-3.07z" fill="#ebebeb"/>
    <path d="m218.43,253.46l0,-5a0.46,0.46 0 0 1 0.47,-0.47l2.79,0a0.48,0.48 0 0 1 0,1l-2.31,0l0,1.56l2,0a0.49,0.49 0 0 1 0.47,0.47a0.48,0.48 0 0 1 -0.47,0.48l-2,0l0,1.5l2.31,0a0.47,0.47 0 1 1 0,0.94l-2.79,0a0.46,0.46 0 0 1 -0.47,-0.48z" fill="#ebebeb"/>
    <path d="m223.49,253.46l0,-5a0.48,0.48 0 0 1 0.95,0l0,4.54l2.32,0a0.47,0.47 0 1 1 0,0.94l-2.76,0a0.47,0.47 0 0 1 -0.51,-0.48z" fill="#ebebeb"/>
   </g>
   <g id="svg_21">
    <path d="m359,331.71c-2.61,31.53 -23,100.22 -37.23,111.94c-9.18,7.54 -48.53,15.91 -69.15,15.94c-8.46,0 -14.74,-57.95 -2,-58.78c21.89,-1.42 37.38,-3.42 43.21,-6.43c4.54,-2.35 15.94,-24.21 46.82,-65.87c11.4,-15.51 19.79,-14.51 18.35,3.2z" fill="#d3766a"/>
    <path d="m263.76,458.37c-1.07,0.27 -16.24,4.06 -25.21,4.61c-6.7,0.41 -26,1.08 -27.19,-6.24c-0.81,-5 10.5,-6.73 18.46,-8.13c4.2,-0.74 9.83,-3.69 9.26,-6.42c-1,-4.75 -11.87,-2.64 -19.21,-0.32c-14.21,4.48 -33.9,13.87 -40.14,5.77c-2.36,-3.06 2,-6.69 7.89,-9.89c-9.13,3.22 -18.58,5.42 -21.33,2.12c-1.59,-1.88 -1.23,-3.89 0.35,-5.93c-2.65,0.25 -4.8,-0.4 -6,-2.35c-2,-3.3 0.18,-7 3.95,-10.51a3.2,3.2 0 0 1 -2,-2.08c-3.59,-9.63 29.41,-27.55 39.41,-27.66c29.53,-0.38 58.81,8.75 58.81,8.75c9.03,11.27 2.97,58.26 2.95,58.28z" fill="#d3766a"/>
    <path d="m228.32,423.3a48.85,48.85 0 0 0 -20.31,3c-8.16,3.09 -14.11,7.52 -21.32,11.72a0.17,0.17 0 0 0 0.17,0.29c3.43,-2 17.42,-9.23 21,-10.79a46.5,46.5 0 0 1 20.49,-4.11c0.05,0.02 0.05,-0.1 -0.03,-0.11z" fill="#263238"/>
    <path d="m225.77,410.23c-7.82,0.37 -15.83,0.71 -23.45,2.66c-8.34,2.13 -15.59,7 -22.7,11.73q-6.39,4.23 -12.6,8.73c-0.17,0.13 0,0.42 0.17,0.3q10.84,-7.31 22.12,-13.95a61.31,61.31 0 0 1 22.69,-8.05c4.58,-0.66 9.2,-1 13.81,-1.28c0.04,0 0.05,-0.14 -0.04,-0.14z" fill="#263238"/>
    <path d="m220.23,398.06c-7.49,-0.13 -14,-0.28 -21.22,2.14c-9.53,3.19 -19.55,9.93 -23.07,12.33c-3.9,2.64 -7.7,5.42 -11.46,8.25c-0.15,0.12 0.05,0.39 0.21,0.27a244,244 0 0 1 26.69,-16.73a48.68,48.68 0 0 1 14,-5.2a86.93,86.93 0 0 1 14.86,-1a0,0 0 0 0 -0.01,-0.06z" fill="#263238"/>
    <path d="m347.91,404.74l-39.53,-38.74s23.54,-33.42 39.42,-48c8.9,-8.19 15.37,-1.38 15.32,9.55c-0.18,38.26 -15.21,77.19 -15.21,77.19z" fill="#407BFF"/>
    <path d="m347.91,404.74l-39.53,-38.74s23.54,-33.42 39.42,-48c8.9,-8.19 15.37,-1.38 15.32,9.55c-0.18,38.26 -15.21,77.19 -15.21,77.19z" fill="#407BFF"/>
    <path d="m350.41,352.72a35.88,35.88 0 0 1 3.49,-3.06c-0.8,0.65 -1.57,1.35 -2.34,2l-1.15,1.06zm12.47,-17.36c-0.84,-0.37 -1.72,-0.7 -2.62,-1l0,0.19a0.13,0.13 0 0 1 0,0.06a2.21,2.21 0 0 1 0.05,0.25c0.11,0.62 0.22,1.23 0.32,1.85a44.66,44.66 0 0 0 1.55,7.17l0,0q-0.14,1.37 -0.3,2.73a24.45,24.45 0 0 1 -2.18,-7.48a80.64,80.64 0 0 1 -7.45,29.87a0.49,0.49 0 0 1 0.1,0.19c3.08,10.95 -0.34,20 -9.29,26.63c0,0.11 -0.05,0.21 -0.08,0.31c-0.08,0.28 -0.49,0.15 -0.47,-0.12c0.77,-9.44 -1.63,-20.31 8.15,-25.39a147.32,147.32 0 0 0 5.22,-17.93c-4.33,8.45 -10.29,14 -20.2,17.26a0.33,0.33 0 0 1 -0.6,0a0.18,0.18 0 0 1 0,-0.17l0,0a33.59,33.59 0 0 1 8.92,-18.52c3.61,-3.74 8.06,-4.51 13,-4.13a95.05,95.05 0 0 0 0.11,-32.29c-13.11,16.41 -21.51,35.74 -30.26,54.76l0,0.11c0.22,4.79 1.6,10.14 0.56,15l-1.32,-1.29c0.72,-3.93 0,-8.16 -0.28,-12.14a80.08,80.08 0 0 1 -1.34,10.55l-0.25,-0.25a97.27,97.27 0 0 0 1.31,-10.05c-1.32,2.52 -2.58,5.06 -3.77,7.64l-0.09,-0.08c1.25,-2.6 2.55,-5.17 3.88,-7.73l0.06,-0.5c-0.29,0.39 -0.58,0.76 -0.88,1.13q-2.08,3.12 -3.81,6.36l-0.25,-0.24c0.85,-1.55 1.76,-3.08 2.72,-4.56c-1.15,1.29 -2.34,2.53 -3.45,3.85l-1.15,-1.14a57.19,57.19 0 0 1 7,-6.75a0.22,0.22 0 0 0 0,-0.08a0.11,0.11 0 0 1 0.17,-0.07l0.62,-0.54q2.49,-7.05 5.44,-14c-3.32,3.53 -6.67,7.37 -10.89,9.59c-2.69,1.41 -7.38,2.43 -11.28,3.07l-0.76,-0.74a45.15,45.15 0 0 0 10,-2.9c4.55,-2.1 8.86,-6.21 12.6,-9.84a56.09,56.09 0 0 1 -7.14,5a0,0 0 1 1 0,-0.05c2.57,-1.73 5,-3.59 7.39,-5.56c-5,1.7 -10.15,2.87 -14.85,5.31a60,60 0 0 0 -6,3.58l0.3,-0.41a55.24,55.24 0 0 1 5.61,-3.42a75.2,75.2 0 0 1 15.37,-5.41a26,26 0 0 0 -15.19,2.86a26.79,26.79 0 0 0 -2.69,1.73l0.45,-0.6l0,0a22.45,22.45 0 0 1 3.09,-1.77a25.17,25.17 0 0 1 14.38,-2.26l0.25,-0.21c-6.08,-1.53 -11.28,-1.15 -16.21,2.15c0.62,-0.84 1.29,-1.73 2,-2.64c4.08,-2.23 8.78,-2.69 14.56,0.22l0,0a171.35,171.35 0 0 1 22.6,-38.12a5.77,5.77 0 0 1 2.77,0.91a100.46,100.46 0 0 1 1.54,17.44c0.05,0.22 0.09,0.45 0.14,0.67a14.23,14.23 0 0 1 2.88,0.45c0,0.5 -0.03,1 -0.06,1.49zm-11.35,35.77l0,-0.14l-0.2,0.14l-0.06,0a0.05,0.05 0 0 0 0,0a3.72,3.72 0 0 0 -0.47,0.34a1,1 0 0 0 -0.18,0.13c-4.43,3.32 -6.43,7.76 -6.62,13.47c-0.05,1.38 0,2.75 -0.08,4.1a27.3,27.3 0 0 1 -0.58,5.75s0,0 0,0c3,-3.77 6.56,-6.55 8,-11.42a26.31,26.31 0 0 0 0.19,-12.37zm-15.26,-2.83c2.66,-5 4.17,-10.57 8.41,-14.64a20.77,20.77 0 0 1 9.63,-5.29c-5.38,0.45 -8.91,2.22 -12.52,7.65c-2.61,3.92 -4,7.98 -5.52,12.28zm0,0.48a70.23,70.23 0 0 1 9.4,-11.58c1.52,-1.56 3.12,-3 4.75,-4.48c-1.61,1.57 -3.11,3.24 -4.54,4.7a91.63,91.63 0 0 0 -9,10.82c3.52,-2.92 7.47,-5.24 10.68,-8.58a77.18,77.18 0 0 0 8.7,-11.4l-0.26,0a21,21 0 0 0 -2.09,1.39a18.54,18.54 0 0 1 1.82,-1.34a21.27,21.27 0 0 0 -11.58,6.29c-3.87,4.11 -5.2,9.58 -8,14.31l0.12,-0.13zm20.39,-20.53l-0.18,0a82.47,82.47 0 0 1 -8.42,11.32a66.78,66.78 0 0 1 -11.43,9.06l-0.15,0.21c3.58,-2.06 7.54,-3.73 10.7,-6.33c4.54,-3.72 6.82,-9.18 9.47,-14.26l0.01,0zm-33.39,11.56c-4.2,3.1 -9.38,5 -14.49,6.59l-0.39,-0.38l0,0l0,0c5.12,-1.66 10.29,-2.93 14.84,-6.19l0.04,-0.02zm28.42,11l-0.15,0.34c-0.11,0.23 -0.22,0.46 -0.32,0.7c-0.23,3.89 -0.36,7.73 -1.76,11.45a55.07,55.07 0 0 1 -6.1,11.4a2.3,2.3 0 0 1 -0.06,0.28a1.43,1.43 0 0 1 0,0.22c0,0.07 -0.12,0.05 -0.11,0a1.94,1.94 0 0 0 0,-0.24a0.09,0.09 0 0 1 -0.11,-0.1a0.06,0.06 0 0 1 0,-0.07c0.07,-0.26 0.16,-0.52 0.23,-0.79c0.16,-1.58 0.35,-3.16 0.6,-4.73c1,-6.3 2.89,-12.39 6.7,-17.57c0.21,-0.31 0.44,-0.61 0.68,-0.91c0,-0.21 0,-0.43 0,-0.64c0,0 0.05,0 0.05,0c0,0.2 0,0.39 0,0.58c0.18,-0.23 0.35,-0.46 0.54,-0.69c0,0 0.09,0 0.06,0c-0.21,0.25 -0.41,0.51 -0.61,0.76l0,0.36l0,0.07l0.06,-0.11c0.08,-0.14 0.16,-0.29 0.24,-0.42s0.09,0 0.05,0.09l0.01,0.02zm-0.53,1.16c-3.11,7 -5,14.36 -7.56,21.55c0,0.2 -0.07,0.41 -0.12,0.61a66,66 0 0 0 5.74,-10.91a38.67,38.67 0 0 0 1.93,-11.22l0.01,-0.03zm0.05,-0.75c0,-0.11 0,-0.22 0,-0.33c-0.17,0.22 -0.34,0.45 -0.49,0.67a29.49,29.49 0 0 0 -5.08,10.44c-0.81,3.23 -1.19,6.54 -1.74,9.81c1,-3.36 2.16,-6.7 3.26,-10.05a57.29,57.29 0 0 1 4,-10.45s0.04,-0.07 0.04,-0.11l0.01,0.02zm9.1,-36.61l-0.08,0a0.14,0.14 0 0 1 0,0.06l0.11,0.23q1.06,2.28 2.28,4.46a2.45,2.45 0 0 0 0,0.27c-0.75,-1.39 -1.46,-2.79 -2.12,-4.22c0.63,1.87 1.27,3.76 2,5.62l0,0l-0.06,0.71a47.52,47.52 0 0 1 -1.76,-5c-0.23,-0.74 -0.43,-1.48 -0.61,-2.21l-0.66,-0.28s0,0 0,0l0.65,0.26l0,-0.1c0,-0.11 -0.09,-0.21 -0.13,-0.31s0,-0.06 0.05,0l0,0s0.07,-0.06 0.08,0s0.13,0.36 0.19,0.54l0.09,0a23.72,23.72 0 0 1 2.57,1.29a0.49,0.49 0 0 1 0,0.12a20.55,20.55 0 0 0 -2.61,-1.46l0.01,0.02z" opacity="0.1"/>
    <path d="m312.18,369.72l35.73,35s15,-38.93 15.21,-77.18c0,-4.09 -0.87,-7.6 -2.46,-10l-48.48,52.18z" opacity="0.1"/>
    <path d="m315.85,361.15c6.57,5.45 24,20.76 34,32.19c0.06,0.07 -0.17,0.32 -0.24,0.27c-9.76,-8.25 -28,-26.08 -34.1,-32.08c-0.12,-0.11 0.22,-0.53 0.34,-0.38z" fill="#263238"/>
    <path d="m453.32,463.57l-136,-0.35l8.23,-51.22s-11.76,-14.29 -9.54,-29.8c2.44,-17 33,-60 35.61,-62.47c10.38,-9.73 21.24,-12.33 31.11,-7.23c33.93,17.5 70.59,151.07 70.59,151.07z" fill="#407BFF"/>
    <path d="m402.86,402.17a36.45,36.45 0 0 1 0.34,4.63c0,-1 -0.14,-2.06 -0.22,-3.08l-0.12,-1.55zm9.68,61.3l-1.66,0a19.54,19.54 0 0 0 -2.13,-1.34c-4.93,-2.65 -8.88,-1.86 -13.69,-1.57l0,0l-0.9,0.05l0.54,0.57l0,0.06c0.7,0.75 1.34,1.49 2,2.19l-1.43,0a10.9,10.9 0 0 1 -2,-3.54c5.16,-0.92 9.73,-1.51 14.61,0.71a21.71,21.71 0 0 1 4.66,2.87zm4.08,0l-1.55,0a70.06,70.06 0 0 1 -3.57,-10.16l-0.09,0c-4.29,-1.91 -9.12,-4.55 -11.28,-9s-1.34,-10.8 -0.84,-15.59a0.25,0.25 0 0 1 0.25,-0.24a0.23,0.23 0 0 1 0.2,0.1c7.49,6.29 13.75,13.27 12.17,23.41a74.5,74.5 0 0 0 4.71,11.49l0,-0.01zm-5.74,-11.47l0.3,0.14a0.27,0.27 0 0 1 0,-0.24a0.34,0.34 0 0 1 0.15,-0.14c-0.13,-5.12 -0.41,-9.21 -3.83,-13.6c-2.18,-2.78 -4.56,-5.43 -7,-8l-0.38,-0.4l-0.2,-0.22l-0.06,-0.06l-0.09,-0.1l0,0.12a0.76,0.76 0 0 1 0,0.15c0.21,4.19 -0.17,8.49 1,12.54c1.39,4.75 5.69,7.81 10.11,9.81zm6.29,-90.23c-1.67,4.71 -3.49,9.3 -3.62,14.5l0,0c0,-5.09 1.58,-10.23 3.32,-15.15c0.13,0.18 0.19,0.39 0.3,0.61l0,0.04zm29.31,78.82c-1.08,0.34 -2.17,0.63 -3.25,0.89l-0.06,0a51.93,51.93 0 0 1 -9,20.53c0,0.52 0,1 -0.06,1.55l-1.75,0a107.29,107.29 0 0 0 -1.7,-26.33c-0.35,-1.82 -0.76,-3.62 -1.19,-5.41a0.63,0.63 0 0 1 -0.29,-0.06a101.53,101.53 0 0 1 -16.1,-9.91l-0.62,-0.3c-7.9,9.28 -20,3.23 -28.73,-1.3l0,0a0.46,0.46 0 0 1 0,-0.86l0.07,0l0.14,-0.06c5.2,-2.23 9.9,-5.14 15.77,-4.37a23.7,23.7 0 0 1 8.46,3a80.76,80.76 0 0 1 -19.32,-23.95a0.53,0.53 0 0 1 -0.21,0c-10.6,-4.14 -15.77,-12.32 -15.67,-23.45l-0.2,-0.25c-0.17,-0.24 0.18,-0.49 0.38,-0.31c7.08,6.3 17.2,10.92 15.36,21.8a149.28,149.28 0 0 0 11.18,15c-4.14,-8.55 -5,-16.67 -1.62,-26.52a0.33,0.33 0 0 1 0.35,-0.48a0.24,0.24 0 0 1 0.17,0.06l0,0a33.51,33.51 0 0 1 9.39,18.24c0.81,5.14 -1.26,9.15 -4.55,12.9a95.08,95.08 0 0 0 25.72,19.53c-5.21,-20.35 -15.6,-38.68 -25.52,-57.12c0,0 -0.07,0 -0.1,-0.05c-4.63,-3.15 -10.81,-5.52 -13.77,-10.59c-3.2,-5.49 -2.71,-13.09 -2.67,-19.2c0,0 0.29,-0.17 0.3,-0.1c5,3.83 10.36,8.1 13.51,13.64c2.73,4.8 3.1,10.16 3.45,15.53l0.06,0.06a0.11,0.11 0 0 1 0,0.18c0,0.27 0,0.54 0.05,0.81q4.14,6.24 7.89,12.77c-0.82,-4.79 -1.87,-9.77 -1.1,-14.47c0.55,-3.38 3.06,-8.51 5,-12.17l0.45,1a45.36,45.36 0 0 0 -3.8,9.9c-1.06,4.9 -0.37,10.82 0.27,16a56.63,56.63 0 0 1 0.28,-8.74s0.06,0 0.06,0c-0.17,3.09 -0.15,6.16 0,9.25c1.65,-5 3.82,-9.83 4.71,-15.05a59.09,59.09 0 0 0 0.74,-6.42l0.15,0.34a50.15,50.15 0 0 1 -0.62,6.12a74.93,74.93 0 0 1 -4.94,15.54a26,26 0 0 0 6.87,-13.85a25.43,25.43 0 0 0 0.21,-4.36c0.09,0.21 0.19,0.43 0.28,0.65a24.28,24.28 0 0 1 -0.49,4.8a25.23,25.23 0 0 1 -6.89,12.87c0,0.11 0,0.21 0,0.32c5.45,-4.39 8.34,-9.34 8.07,-16.34c0.37,0.87 0.74,1.73 1.1,2.61c-0.06,5.7 -2.25,10.76 -9.15,14.17l0,0c12.54,22.42 21,47.08 20.71,72a91.11,91.11 0 0 0 8.74,-31c0.49,1.48 1,2.93 1.41,4.34q-0.3,2.94 -0.84,5.84c0.45,-1.53 0.84,-3 1.26,-4.52c0.13,0.4 0.25,0.8 0.37,1.19c-0.34,1.05 -0.7,2.09 -1.12,3.13c0,0 0,0 0,0.05c-0.12,0.31 -0.25,0.61 -0.38,0.91l0.14,-0.05c0.82,-0.26 1.62,-0.52 2.41,-0.81c0.02,0.17 0.12,0.51 0.23,0.84l0,0.04zm-58.27,-96.21a70.77,70.77 0 0 1 14.28,23.76c-0.77,-3.87 -1.21,-7.75 -3.33,-11.44c-2.85,-4.99 -6.81,-8.63 -10.95,-12.36l0,0.04zm14.63,27.06c-3.85,-3.49 -8,-7.07 -10.52,-11.62c-2.61,-4.82 -3.71,-10.68 -4.95,-16c0.56,5.45 1.05,13.19 3.71,17.94c2.53,4.46 7.54,6.87 11.76,9.64l0,0.04zm-10.49,-12.16c2.42,4.67 6.63,8.18 10.46,11.78a255.72,255.72 0 0 0 -15.2,-26.95c1.39,5.02 2.31,10.44 4.74,15.13l0,0.04zm10.95,12.24c-0.13,-0.45 -0.26,-0.91 -0.37,-1.37a80.24,80.24 0 0 0 -14.77,-25.4a199.84,199.84 0 0 1 14.78,26.43l0.36,0.34zm-15.82,20.48l0.13,0.06a1.93,1.93 0 0 0 0,-0.24a0.2,0.2 0 0 0 0,-0.07l0,-0.05a5.28,5.28 0 0 0 0,-0.56a1.85,1.85 0 0 0 0,-0.23c0,-5.56 -2.32,-9.83 -6.77,-13.42c-1.09,-0.88 -2.19,-1.7 -3.25,-2.54a28.46,28.46 0 0 1 -4.19,-3.95l0,0c1.23,4.65 1.29,9.18 4.31,13.24a26.44,26.44 0 0 0 9.77,7.76zm11.45,-10.49c2.42,5.16 5.93,9.7 6.62,15.54a20.65,20.65 0 0 1 -1.55,10.86c2.88,-4.57 3.59,-8.45 1.43,-14.6c-1.58,-4.45 -3.98,-8 -6.5,-11.81l0,0.01zm3.84,28.21a82.29,82.29 0 0 1 -4,-13.54a67.11,67.11 0 0 1 -0.36,-14.59c0,-0.08 -0.05,-0.16 -0.07,-0.24c-0.51,4.1 -1.56,8.26 -1.39,12.35c0.23,5.88 3.22,11 5.68,16.16l0.14,-0.14zm0.4,-0.65a21.31,21.31 0 0 0 1.95,-13c-0.95,-5.57 -4.51,-9.93 -6.58,-15c0,0.07 0,0.14 0,0.21a70.84,70.84 0 0 1 3.59,14.48c0.32,2.15 0.53,4.31 0.72,6.48c-0.3,-2.22 -0.72,-4.43 -1,-6.45a92.51,92.51 0 0 0 -3.25,-13.79c0.2,4.57 -0.32,9.13 0.42,13.7a77.39,77.39 0 0 0 3.86,13.81l0.17,-0.24a20.76,20.76 0 0 0 0.15,-2.51a18.91,18.91 0 0 1 -0.03,2.3l0,0.01zm8.43,12.05l-0.18,-0.09l-0.05,0l-0.21,-0.11c-0.55,-0.27 -1.09,-0.55 -1.62,-0.83c-3.22,-1.7 -6.37,-3.41 -10.14,-3.9c-4.43,-0.57 -8.13,1.24 -12,2.79l0,0c-0.72,0.28 -1.44,0.56 -2.18,0.81l0.11,0.06l0.18,0.09l2.35,1.27c3.48,1.88 7.07,3.7 11,4c4.9,0.37 8.8,-1.49 12.74,-4.1l0,0.01zm-23.16,-28.72s0,0.05 0,0l-0.44,-0.4c0.07,0.29 0.15,0.57 0.22,0.85c0,0 -0.06,0.07 -0.07,0c-0.07,-0.32 -0.15,-0.64 -0.24,-0.95l-0.26,-0.23l-0.06,-0.05l0.05,0.12a4.17,4.17 0 0 1 0.19,0.44c0,0.1 -0.1,0.15 -0.15,0.06l-0.18,-0.32l-0.36,-0.68c-3,-2.53 -5.95,-4.94 -8.09,-8.3a55.52,55.52 0 0 1 -5.43,-11.73l-0.19,-0.22l-0.15,-0.17c0,-0.05 0,-0.12 0.08,-0.08l0.18,0.17a0.09,0.09 0 0 1 0.15,0a0,0 0 0 1 0.07,0l0.48,0.66q1.75,1.61 3.41,3.32c4.44,4.6 8.18,9.8 10,16c0.12,0.35 0.22,0.71 0.31,1.07l0.48,0.44zm-1.39,-1.2c-3.68,-6.67 -8.44,-12.65 -12.65,-19l-0.42,-0.46a65.92,65.92 0 0 0 5.26,11.14a38.85,38.85 0 0 0 7.81,8.31l0,0.01zm0.82,0.71c-0.07,-0.26 -0.14,-0.51 -0.23,-0.77a29.51,29.51 0 0 0 -5.3,-10.39c-2.09,-2.6 -4.5,-4.89 -6.78,-7.31c2.06,2.85 4,5.77 6.06,8.65c2.12,3.06 4.41,6.09 5.91,9.52l0.1,0.09l0.24,0.21zm24.22,29.17c0.05,0 0,0.09 0,0.08l-0.55,-0.18l-0.09,0a22.72,22.72 0 0 1 -12.49,3.06a25.72,25.72 0 0 1 -6.89,-1.39c-1.34,-0.45 -2.84,-0.91 -4.23,-1.51a12.31,12.31 0 0 1 -2.35,-1.27l-0.16,-0.1l0,0l-1.07,0.34c-0.13,0 -0.2,-0.16 -0.07,-0.2l0.73,-0.24a0.07,0.07 0 0 1 0.05,0l0.03,0l0,0l-0.15,-0.11s0,-0.05 0,0l0.23,0.12c0.71,-0.23 1.43,-0.46 2.16,-0.67l0,0a32.32,32.32 0 0 1 10.55,-1.59a38.94,38.94 0 0 1 11.62,2.7c0.7,0.25 1.39,0.53 2.06,0.81l0.63,-0.36s0,0 0,0l-0.6,0.36l0.1,0.05l0.33,0.07a0,0 0 0 1 0,0.07l0.16,-0.04zm-25.74,-1.58a73,73 0 0 1 24.3,1.19c-4.13,-1.36 -8.4,-2.83 -12.74,-3a34,34 0 0 0 -11.56,1.8l0,0.01zm25.1,1.46l-0.06,0l-0.23,-0.05a83,83 0 0 0 -25.6,-1.15l-0.11,0c8.17,4.41 17.61,5.79 25.92,1.23l0.08,-0.03zm0.33,31.76l-0.54,-0.46c0,0.2 0,0.39 0,0.59a0.1,0.1 0 0 1 -0.19,0c0,-0.27 -0.06,-0.54 -0.09,-0.81l0,0a0.93,0.93 0 0 1 0,0.13s-0.05,0.06 -0.06,0l-0.06,-0.2l0,0c-3.1,-2.68 -6.14,-5.62 -8,-9.33c-2,-4 -2.55,-8.49 -2.95,-12.89l-0.11,-0.13s-0.09,-0.1 -0.13,-0.16s0,-0.09 0.07,-0.06l0.05,0.07l0.1,0.11a0.57,0.57 0 0 0 0,-0.13l0,0s0,0 0,0s0,0.06 0,0.09s0,0.09 0,0.13l0.34,0.38l-0.16,-0.29l-0.26,-0.49a0,0 0 0 1 0.05,0c0.2,0.31 0.4,0.62 0.59,0.93c0.09,0.13 0.17,0.27 0.26,0.41c5.48,6 9.67,13.06 10.39,21.35c0,0.05 0,0.1 0,0.15l0.65,0.59c0.21,-0.04 0.12,0.08 0.05,0.01l0,0.01zm-0.8,-0.92a36.29,36.29 0 0 0 -3.32,-11.38a43.93,43.93 0 0 0 -6.34,-9.06c1.48,2.49 2.76,5.08 4.05,7.69c0,0 0,0 0,0c-1.46,-2.89 -3.12,-5.68 -4.69,-8.51c-0.2,-0.25 -0.41,-0.49 -0.61,-0.73c0.6,4 1.16,8.19 2.8,12c1.76,4 4.77,7 7.95,9.84a54.44,54.44 0 0 0 -4,-9.57a0,0 0 0 1 0,0a48.41,48.41 0 0 1 4.05,9.66l0.11,0.06zm-1.81,11.67l-0.76,0a21.26,21.26 0 0 0 -2.1,-0.82a41.07,41.07 0 0 0 -9.59,-1.64a77.34,77.34 0 0 1 8.52,2.46l-1.44,0c-2.85,-1 -5.76,-1.82 -8.73,-2.59l-0.58,0a39.21,39.21 0 0 0 3.28,2.62l-0.43,0c-0.92,-0.7 -1.8,-1.43 -2.63,-2.2l0,-0.06l-0.41,-0.38l-0.32,0c-0.14,0 -0.14,-0.16 -0.05,-0.23a0.08,0.08 0 0 1 0,-0.12l-0.17,-0.18a0.05,0.05 0 1 1 0.07,-0.08l0.31,0.28l0.47,0.09c0.16,0 0.32,0 0.48,0l0,0a42.57,42.57 0 0 1 11.39,1.78a20.46,20.46 0 0 1 2.69,1.06l0,0.01zm36.93,-24.11a17.78,17.78 0 0 1 -2.25,0.82l-0.1,0.17a1.29,1.29 0 0 1 -0.09,0.16c-0.07,0.11 -0.26,0 -0.19,-0.09l0.09,-0.16l-0.25,0.07l-0.16,0.13c-0.06,0 -0.11,0 -0.12,-0.06c-0.36,0.09 -0.72,0.18 -1.08,0.24s-0.25,-0.3 0,-0.34c0.55,-0.1 1.1,-0.24 1.64,-0.39l0.39,-0.34a0.35,0.35 0 0 1 0.05,-0.08s0,0 0,-0.05c0.46,-0.83 0.9,-1.67 1.33,-2.51l0.12,0.39c-0.33,0.61 -0.66,1.21 -1,1.8l1.22,-1.1c0,0.09 0.06,0.18 0.08,0.26c-0.53,0.48 -1.06,0.93 -1.6,1.37l-0.06,0.1a16.82,16.82 0 0 0 1.88,-0.75c0,0.13 0.07,0.24 0.1,0.35l0,0.01zm-94.54,-87.66c0.77,-0.68 1.54,-1.38 2.34,-2a35.88,35.88 0 0 0 -3.49,3.06l1.15,-1.06zm-24.68,18c0.26,5.6 2.1,12 -0.17,17.37c-1.72,4.11 -5.35,7.39 -9.06,10.23c-0.11,-0.32 -0.21,-0.66 -0.31,-1c3.16,-3 6.36,-6.45 7.85,-9.84c2.08,-4.73 1,-10.18 0.65,-15.22c-0.46,5.17 -0.79,10.69 -2.93,15.39a42.59,42.59 0 0 1 -5.82,8.84c0,-0.12 -0.07,-0.24 -0.1,-0.37a43.21,43.21 0 0 0 5.46,-8.16c2.28,-4.74 2.54,-10.23 3.11,-15.45a222.64,222.64 0 0 0 -9.29,20.51l-0.09,-0.49c2.76,-6.87 6,-13.55 9.4,-20.14l0.06,-0.5c-0.29,0.39 -0.58,0.76 -0.88,1.13a75.5,75.5 0 0 0 -8.8,17.95c0,-0.37 -0.08,-0.74 -0.12,-1.11a74.26,74.26 0 0 1 7.58,-15.28c-2.62,2.94 -5.46,5.63 -7.13,9.55c-0.18,0.42 -0.34,0.83 -0.5,1.25c0,-0.7 0.12,-1.41 0.22,-2.12a27.47,27.47 0 0 1 0.59,-2.82c2.29,-3.93 5.74,-6.91 9.2,-9.9a0.22,0.22 0 0 0 0,-0.08a0.11,0.11 0 0 1 0.17,-0.07l0.62,-0.54q2.49,-7.05 5.44,-14a61.79,61.79 0 0 1 -8.35,8c0.52,-1 1.07,-2 1.62,-3c2.26,-1.81 4.4,-3.87 6.38,-5.79a55.33,55.33 0 0 1 -5.33,3.92l0.19,-0.35c1.84,-1.31 3.62,-2.7 5.36,-4.14c-1.21,0.41 -2.43,0.79 -3.65,1.18c0.09,-0.17 0.19,-0.33 0.29,-0.5c1.26,-0.36 2.52,-0.7 3.76,-1c-1,-0.09 -2.06,-0.14 -3.08,-0.13l0.1,-0.17a21.2,21.2 0 0 1 3.08,0.25l0.25,-0.21a28.42,28.42 0 0 0 -3,-0.6c0.17,-0.28 0.33,-0.57 0.51,-0.85a20.49,20.49 0 0 1 2.82,1.18l0,0a178.48,178.48 0 0 1 18.38,-32.62a3.59,3.59 0 0 1 0.26,-0.27a47.48,47.48 0 0 1 4.67,-3.88c-12.65,16.15 -20.87,35.15 -29.44,53.75l0.03,0.1zm48.78,-12l-0.07,0a0.33,0.33 0 0 1 -0.13,-0.07c-4.91,-2.81 -10.07,-4.81 -13,-10a23.59,23.59 0 0 1 -2.73,-8.53a80.64,80.64 0 0 1 -7.48,29.9a0.49,0.49 0 0 1 0.1,0.19c3.08,10.95 -0.34,20 -9.29,26.63c0,0.11 -0.05,0.21 -0.08,0.31c-0.08,0.28 -0.49,0.15 -0.47,-0.12c0.77,-9.44 -1.63,-20.31 8.15,-25.39a147.32,147.32 0 0 0 5.22,-17.93c-4.33,8.45 -10.29,14 -20.2,17.26a0.33,0.33 0 0 1 -0.6,0a0.18,0.18 0 0 1 0,-0.17l0,0a33.59,33.59 0 0 1 8.92,-18.52c3.61,-3.74 8.06,-4.51 13,-4.13a95.19,95.19 0 0 0 0.18,-31.88c0.36,-0.26 0.73,-0.5 1.1,-0.73a100.67,100.67 0 0 1 1.68,18.23c0.05,0.22 0.09,0.45 0.14,0.67c12.17,0.73 14.61,14 16.25,23.73l0,0.06a0.45,0.45 0 0 1 -0.69,0.52l0,-0.03zm-24.13,13.4l0,-0.14l-0.2,0.14l-0.06,0a0.05,0.05 0 0 0 0,0a3.72,3.72 0 0 0 -0.47,0.34a1,1 0 0 0 -0.18,0.13c-4.43,3.32 -6.43,7.76 -6.62,13.47c-0.05,1.38 0,2.75 -0.08,4.1a27.3,27.3 0 0 1 -0.58,5.75s0,0 0,0c3,-3.77 6.56,-6.55 8,-11.42a26.31,26.31 0 0 0 0.19,-12.34l0,-0.03zm-15.26,-2.83c2.66,-5 4.17,-10.57 8.41,-14.64a20.77,20.77 0 0 1 9.63,-5.29c-5.38,0.45 -8.91,2.22 -12.52,7.65c-2.61,3.95 -4,8.01 -5.52,12.31l0,-0.03zm0,0.48a70.23,70.23 0 0 1 9.4,-11.58c1.52,-1.56 3.12,-3 4.75,-4.48c-1.61,1.57 -3.11,3.24 -4.54,4.7a91.63,91.63 0 0 0 -9,10.82c3.52,-2.92 7.47,-5.24 10.68,-8.58a77.18,77.18 0 0 0 8.7,-11.4l-0.26,0a21,21 0 0 0 -2.09,1.39a18.54,18.54 0 0 1 1.82,-1.34a21.27,21.27 0 0 0 -11.58,6.29c-3.87,4.11 -5.2,9.58 -8,14.31l0.12,-0.13zm20.39,-20.53l-0.18,0a82.47,82.47 0 0 1 -8.42,11.32a66.78,66.78 0 0 1 -11.43,9.06l-0.15,0.21c3.58,-2.06 7.54,-3.73 10.7,-6.33c4.54,-3.69 6.82,-9.15 9.47,-14.23l0.01,-0.03zm16.57,6.81c0.63,0.38 1.26,0.77 1.87,1.19c0,0 0,-0.08 0,-0.12s0,-0.07 0,-0.1c-0.16,-0.95 -0.3,-1.91 -0.44,-2.87c-0.59,-3.87 -1.31,-7.78 -3.38,-11c-2.69,-4.23 -6.52,-6.22 -11,-7.79l0,0.19a0.13,0.13 0 0 1 0,0.06a2.21,2.21 0 0 1 0.05,0.25c0.11,0.62 0.22,1.23 0.32,1.85c0.58,3.57 1.11,7.09 3,10.37c2.23,3.94 5.96,5.79 9.57,8l0.01,-0.03zm12.48,-25.54c-2.27,4.46 -7.81,7.57 -11.95,10.06a0.24,0.24 0 0 1 -0.38,-0.2a0.22,0.22 0 0 1 0,-0.08c0.5,-9.77 2.31,-19 11.36,-23.81l0.86,-1.23c0.22,0.14 0.44,0.3 0.66,0.47l-0.23,0.3a0.79,0.79 0 0 1 0,0.09c1.1,4.6 1.9,10.05 -0.33,14.43l0.01,-0.03zm-0.37,-13.19c0,-0.11 -0.05,-0.21 -0.07,-0.32a0.28,0.28 0 0 1 -0.19,0.12a0.36,0.36 0 0 1 -0.23,0c-4,3.18 -7.1,5.87 -8.54,11.25c-0.92,3.41 -1.6,6.92 -2.22,10.41l-0.09,0.54a2.74,2.74 0 0 0 -0.05,0.28l0,0.08a0.59,0.59 0 0 1 0,0.13l0.1,-0.08l0.11,-0.09c3.22,-2.7 6.87,-5 9.43,-8.32c2.98,-3.98 2.79,-9.23 1.74,-13.97l0.01,-0.03zm-33.65,54.46l-0.15,0.34c-0.11,0.23 -0.22,0.46 -0.32,0.7c-0.23,3.89 -0.36,7.73 -1.76,11.45a55.07,55.07 0 0 1 -6.1,11.4a2.3,2.3 0 0 1 -0.06,0.28a1.43,1.43 0 0 1 0,0.22c0,0.07 -0.12,0.05 -0.11,0a1.94,1.94 0 0 0 0,-0.24a0.09,0.09 0 0 1 -0.11,-0.1a0.06,0.06 0 0 1 0,-0.07c0.07,-0.26 0.16,-0.52 0.23,-0.79c0.16,-1.58 0.35,-3.16 0.6,-4.73c1,-6.3 2.89,-12.39 6.7,-17.57c0.21,-0.31 0.44,-0.61 0.68,-0.91c0,-0.21 0,-0.43 0,-0.64c0,0 0.05,0 0.05,0c0,0.2 0,0.39 0,0.58c0.18,-0.23 0.35,-0.46 0.54,-0.69c0,0 0.09,0 0.06,0c-0.21,0.25 -0.41,0.51 -0.61,0.76l0,0.36l0,0.07l0.06,-0.11c0.08,-0.14 0.16,-0.29 0.24,-0.42s0.09,0.05 0.05,0.14l0.01,-0.03zm-0.53,1.16c-3.11,7 -5,14.36 -7.56,21.55c0,0.2 -0.07,0.41 -0.12,0.61a66,66 0 0 0 5.74,-10.91a38.67,38.67 0 0 0 1.93,-11.17l0.01,-0.08zm0.05,-0.75c0,-0.11 0,-0.22 0,-0.33c-0.17,0.22 -0.34,0.45 -0.49,0.67a29.49,29.49 0 0 0 -5.08,10.49c-0.81,3.23 -1.19,6.54 -1.74,9.81c1,-3.36 2.16,-6.7 3.26,-10.05a57.29,57.29 0 0 1 4,-10.45s0.04,-0.07 0.04,-0.11l0.01,-0.03zm24.67,-14.17l-0.64,-0.44s0,0 -0.05,0l-0.09,-0.09l0,0l0,0.19s0,0 -0.05,0l0,-0.25c-0.59,-0.41 -1.18,-0.83 -1.76,-1.26a32.71,32.71 0 0 1 -7.72,-7.54a38.82,38.82 0 0 1 -4.83,-10.83c-0.23,-0.74 -0.43,-1.48 -0.61,-2.21l-0.66,-0.28s0,0 0,0l0.65,0.26l0,-0.1c0,-0.11 -0.09,-0.21 -0.13,-0.31s0,-0.06 0.05,0l0,0s0.07,-0.06 0.08,0s0.13,0.36 0.19,0.54l0.09,0a22.88,22.88 0 0 1 10,8.13a25.77,25.77 0 0 1 3,6.35c0.43,1.3 0.95,2.72 1.32,4.15a13.88,13.88 0 0 1 0.44,2.87l0,0.09l0,0l0.92,0.64c0.03,-0.06 -0.08,0.09 -0.2,0.09zm-15.53,-22.11a82.45,82.45 0 0 0 14.49,21.11l0.09,0.07c-1.41,-9.18 -6,-17.55 -14.63,-21.44l-0.08,0a0.14,0.14 0 0 1 0,0.06l0.13,0.2zm13.82,20.64a73.15,73.15 0 0 1 -13.68,-20.13c1.4,4.12 2.8,8.41 5.24,12a34,34 0 0 0 8.44,8.08l0,0.05zm11.15,-39.3l0,0.06l0.07,-0.11s0.09,0 0.06,0l-0.12,0.16l0,0c-0.27,4.09 -0.79,8.28 -2.65,12c-2,4 -5.24,7.15 -8.51,10.12c0,0.06 0,0.12 0,0.17a1.77,1.77 0 0 0 0,0.2s-0.1,0 -0.09,0a0.29,0.29 0 0 1 0,-0.09a0.68,0.68 0 0 1 0,-0.14l-0.1,0.09l0,0a0,0 0 0 1 0,0l0.06,-0.06a0.94,0.94 0 0 1 0.1,-0.1l0.09,-0.5l-0.14,0.32c-0.08,0.16 -0.15,0.33 -0.23,0.49s-0.07,0 -0.06,0c0.12,-0.34 0.25,-0.67 0.38,-1l0.18,-0.48c1.52,-8 4.6,-15.58 10.81,-21.15l0.09,-0.09c0,-0.3 0,-0.59 0.08,-0.88a0.08,0.08 0 0 1 0.15,0c0,0.24 0,0.48 -0.05,0.72l0.44,-0.4c0.1,-0.08 0.23,0.07 0.14,0.15l-0.7,0.52zm-0.19,0.18a36,36 0 0 0 -7.09,9.51a44.13,44.13 0 0 0 -3.42,10.51c1.1,-2.68 2.41,-5.26 3.71,-7.86c0,0 0.05,0 0,0c-1.44,2.91 -2.66,5.91 -4,8.87c-0.07,0.31 -0.15,0.62 -0.22,0.93c2.87,-2.92 5.85,-5.86 7.86,-9.44c2.15,-3.82 2.7,-8 3.08,-12.27a54.11,54.11 0 0 0 -5.25,8.94l0,0a48.62,48.62 0 0 1 5.27,-9s0.06,-0.19 0.06,-0.24l0,0.05zm-56.77,135.87c-0.76,0.7 -1.51,1.4 -2.29,2.07a37.13,37.13 0 0 0 3.44,-3.12l-1.15,1.05zm-8.29,11l-1.38,0a26.55,26.55 0 0 0 -0.88,-3l0.4,-2.46a22.85,22.85 0 0 1 1.86,5.41l0,0.05zm24.52,-29.29l0,0a33.47,33.47 0 0 1 -8.6,18.62c-3.56,3.8 -8,4.64 -13,4.35c-0.32,2.1 -0.58,4.19 -0.76,6.3l-1.73,0a79.75,79.75 0 0 1 6.89,-28.26a0.57,0.57 0 0 1 -0.1,-0.19c-3.26,-10.9 0,-20 8.84,-26.79c0,-0.1 0.05,-0.2 0.08,-0.31c0.07,-0.27 0.49,-0.15 0.47,0.11c-0.61,9.46 2,20.29 -7.73,25.53a147.28,147.28 0 0 0 -4.91,18c4.18,-8.52 10,-14.2 19.9,-17.59a0.33,0.33 0 0 1 0.6,0a0.22,0.22 0 0 1 0.05,0.18l0,0.05zm-16.52,-1.08l0,0.13l0.2,-0.15s0,0 0.06,0a0.05,0.05 0 0 0 0,0q0.24,-0.16 0.48,-0.36a0.62,0.62 0 0 0 0.19,-0.14c4.36,-3.39 6.28,-7.86 6.38,-13.56c0,-1.4 0,-2.78 0,-4.14a0,0 0 0 0 0,0a27.34,27.34 0 0 1 0.48,-5.69l0,0c-2.91,3.83 -6.45,6.66 -7.79,11.55a26.51,26.51 0 0 0 0,12.31l0,0.05zm-4.56,22.94a83.08,83.08 0 0 1 8.24,-11.45a67,67 0 0 1 11.25,-9.31a2.43,2.43 0 0 1 0.14,-0.2c-3.54,2.11 -7.47,3.85 -10.59,6.5c-4.49,3.8 -6.67,9.29 -9.25,14.42l0.21,0.04zm19.88,-20.38c-2.58,5.09 -4,10.64 -8.18,14.78a20.66,20.66 0 0 1 -9.54,5.45c5.38,-0.54 8.87,-2.37 12.39,-7.86c2.55,-4.01 3.87,-8.09 5.33,-12.42l0,0.05zm0.15,-0.62l-0.16,0.14a70.6,70.6 0 0 1 -9.21,11.74c-1.49,1.58 -3.07,3.08 -4.66,4.55c1.57,-1.6 3.05,-3.28 4.45,-4.78a91.52,91.52 0 0 0 8.79,-11c-3.47,3 -7.39,5.37 -10.53,8.76a76.32,76.32 0 0 0 -8.51,11.54l0.29,0a21.38,21.38 0 0 0 2.08,-1.43a20,20 0 0 1 -1.81,1.37a21.31,21.31 0 0 0 11.48,-6.48c3.79,-4.19 5.03,-9.68 7.79,-14.46l0,0.05zm32.82,0.14l0,0c-0.08,0.1 -0.35,0.49 -0.39,0.51c-7.55,9.84 -15,22.4 -29,15.65l0,0c-1.73,4.11 -3.58,8.16 -5.58,12.14l-1.91,0c4.83,-9.57 9.06,-19.49 13.39,-29.32a0.29,0.29 0 0 1 0,-0.11c-0.36,-5.59 -2.3,-11.92 -0.12,-17.37c2.36,-5.9 8.66,-10.19 13.5,-13.92c0,0 0.31,0.13 0.26,0.18c0.05,6.29 0,13.15 -2.44,19c-2.1,5.11 -6.1,8.69 -10.12,12.28a0.19,0.19 0 0 0 0,0.08a0.11,0.11 0 0 1 -0.17,0.07l-0.61,0.55q-2.37,7.1 -5.21,14.07c3.27,-3.59 6.55,-7.48 10.73,-9.77c5.13,-2.8 17.74,-4.26 17.78,-4.22s-0.05,0.1 -0.11,0.13l0,0.05zm-21.53,-3.38a79.93,79.93 0 0 0 10.93,-27.27a197.85,197.85 0 0 1 -11.76,27.86c0,0.17 0,0.34 0,0.5c0.25,-0.39 0.54,-0.77 0.83,-1.14l0,0.05zm11.1,-28.1c-3.11,4.25 -6.84,8.28 -9.05,13.08s-2.36,10.21 -2.88,15.41a255.66,255.66 0 0 0 11.93,-28.54l0,0.05zm0.16,0.65a70.88,70.88 0 0 1 -9.95,25.84c2.57,-3 5.37,-5.72 7,-9.67c2.12,-5.33 2.55,-10.67 2.95,-16.22l0,0.05zm-12.33,28.18c0.38,-5.18 0.61,-10.7 2.68,-15.44c2.19,-5 6.14,-9.5 9.57,-13.76c-3.95,3.79 -9.74,8.94 -11.85,14c-2,4.68 -0.82,10.12 -0.4,15.15l0,0.05zm16.56,9.33a30.39,30.39 0 0 1 -8.44,6.51a25.17,25.17 0 0 1 -14.39,2.5l-0.24,0.2c7.11,1.67 13,0.77 18.55,-4.3a45.66,45.66 0 0 0 4.52,-4.96l0,0.05zm3.21,-4c-1.3,1.08 -2.72,2.05 -4.07,3a60,60 0 0 1 -6.58,4.25a75.63,75.63 0 0 1 -15.29,5.66a25.92,25.92 0 0 0 15.14,-3.11c4.27,-2.47 7.53,-6.21 10.8,-9.84l0,0.04zm2,-2.35c-5,1.5 -9.95,2 -14.86,4.31c-4.53,2.18 -8.76,6.36 -12.44,10.05a57.48,57.48 0 0 1 7.06,-5.16s0.06,0 0,0c-2.54,1.78 -4.94,3.68 -7.3,5.68c5,-1.77 10.1,-3 14.76,-5.55a54.25,54.25 0 0 0 12.12,-8.73c-6.2,2.55 -12.76,3.65 -18.32,7.77l0,0c5.36,-4.1 12.41,-6.2 18.8,-8.24l0.18,-0.13zm-39.31,-26.21c-0.07,0.27 -0.15,0.53 -0.22,0.8c-0.12,1.56 -0.29,3.12 -0.51,4.67a0,0 0 0 1 0,0c-0.88,6.32 -2.67,12.45 -6.38,17.7c-0.22,0.32 -0.45,0.63 -0.69,0.94l0,0.64s-0.05,0 0,0l0,-0.58c-0.18,0.23 -0.35,0.47 -0.54,0.7a0,0 0 0 1 -0.06,0c0.21,-0.25 0.41,-0.51 0.6,-0.77c0,-0.12 0,-0.24 0,-0.36l0,-0.07l-0.06,0.11l-0.23,0.43c-0.05,0.09 -0.18,0 -0.14,-0.09a3.09,3.09 0 0 0 0.14,-0.32c0.11,-0.24 0.22,-0.48 0.32,-0.72c0.16,-3.9 0.23,-7.73 1.56,-11.48a55.57,55.57 0 0 1 5.91,-11.5a2.3,2.3 0 0 1 0.06,-0.28a1.43,1.43 0 0 1 0,-0.22c0,-0.07 0.11,-0.05 0.11,0a1.94,1.94 0 0 0 0,0.24a0.09,0.09 0 0 1 0.11,0.1a0,0 0 0 1 -0.01,0.02l0.03,0.04zm-0.82,3c-1,3.38 -2.06,6.74 -3.1,10.1c-1.1,3.55 -2.08,7.23 -3.86,10.51c0,0.05 0,0.09 0,0.13s0,0.22 0,0.33c0.17,-0.23 0.34,-0.46 0.49,-0.69a29.56,29.56 0 0 0 4.9,-10.54c0.71,-3.32 1.04,-6.64 1.54,-9.95l0.03,0.11zm0.27,-1.68c0,-0.21 0.07,-0.41 0.11,-0.62a65.65,65.65 0 0 0 -5.55,11a38.46,38.46 0 0 0 -1.79,11.19c2.99,-7 4.78,-14.43 7.2,-21.65l0.03,0.08zm-17.67,52.79l-0.36,0c-0.06,-0.18 -0.14,-0.35 -0.21,-0.53l0.09,-0.6c0.17,0.38 0.33,0.75 0.48,1.13z" opacity="0.1"/>
    <path d="m349.09,408.09a125.25,125.25 0 0 1 18.06,3c2.94,0.76 5.83,1.65 8.71,2.6c1.44,0.47 2.89,0.9 4.34,1.31a19.39,19.39 0 0 0 4.65,0.88a0.11,0.11 0 0 1 0,0.22a33.47,33.47 0 0 1 -4.48,-0.08a32.47,32.47 0 0 1 -4.27,-0.81c-3,-0.74 -6,-1.61 -8.93,-2.38c-6,-1.55 -12,-3.1 -18.15,-4.21a0.25,0.25 0 0 1 0.07,-0.53z" fill="#263238"/>
    <path d="m334.06,413.49a133.22,133.22 0 0 1 15.08,-0.73c2.53,0 5,0.21 7.54,0.45c1.2,0.12 2.39,0.25 3.59,0.41s2.6,0.51 3.92,0.66c0.14,0 0.14,0.23 0,0.22c-1.25,-0.11 -2.52,0 -3.77,0l-3.76,-0.1c-2.51,-0.06 -5,-0.1 -7.54,-0.18c-5,-0.17 -10,-0.29 -15.07,-0.29c-0.27,-0.03 -0.25,-0.42 0.01,-0.44z" fill="#263238"/>
    <path d="m399.24,327.11c33.91,43.21 72.4,123.53 61.55,139.09c-12.09,17.33 -60.22,-37 -58.25,-39.51c1.67,-2.15 -12.73,-54.13 -22.88,-91.87s11.2,-18.4 19.58,-7.71z" fill="#d3766a"/>
    <path d="m440.89,379l-55.09,4.54s-9.83,-39.72 -10.46,-61.3c-0.35,-12.1 6.71,-11.92 14.93,-4.72c28.73,25.23 50.62,61.48 50.62,61.48z" fill="#407BFF"/>
    <path d="m419,355.85s-0.13,-0.49 -0.16,-0.62l0,0c0,-0.06 0,-0.08 -0.1,0s-6.66,10.84 -7.6,16.61a31.12,31.12 0 0 0 0.28,9.66l1.11,-0.09a37.42,37.42 0 0 1 0.3,-10.88c1.16,-5.33 3.88,-9.53 5.75,-14.37l0,0.24c-2.33,6.29 -5,13.14 -5.07,19.89l0,0c0.17,-6.93 3.34,-12.77 5.15,-19.23a54.82,54.82 0 0 1 -0.57,14.93a53.94,53.94 0 0 1 -2.62,9.17l0.43,0a55.72,55.72 0 0 0 2.46,-9.1a58.11,58.11 0 0 0 0.7,-7.8c0.07,-1.66 0.17,-3.38 0.12,-5.08c0.85,4.82 1.79,9.74 1.11,14.57a23.38,23.38 0 0 1 -2.27,7.23l0.19,0a27.7,27.7 0 0 0 2.08,-6.13a30.59,30.59 0 0 0 0.06,-10.67a46,46 0 0 1 1.09,6.59a18.29,18.29 0 0 1 -1.85,10.09l1.77,-0.14c3.09,-7.23 -0.17,-16.45 -2.36,-24.87zm-5.63,21.87c-0.13,1.19 -0.22,2.38 -0.27,3.58l0.22,0c0,-1.18 0.05,-2.36 0.11,-3.55c0.01,-0.06 -0.05,-0.07 -0.05,-0.03l-0.01,0zm-9,-4.24c0,-0.27 0,-0.54 -0.05,-0.81a0.11,0.11 0 0 0 0,-0.18l-0.06,-0.06c-0.35,-5.37 -0.72,-10.73 -3.45,-15.53c-3.15,-5.54 -8.52,-9.81 -13.51,-13.64c0,-0.07 -0.32,0.08 -0.3,0.1c0,6.11 -0.53,13.71 2.67,19.2c3,5.07 9.14,7.44 13.77,10.59c0,0 0.07,0 0.1,0.05l4.59,8.51l1.34,-0.11q-2.47,-4.12 -5.12,-8.12l0.02,0zm-5.19,-16.82c2.12,3.69 2.56,7.57 3.33,11.44a70.77,70.77 0 0 0 -14.28,-23.76c4.12,3.73 8.08,7.37 10.93,12.32l0.02,0zm-8.08,5c-2.66,-4.75 -3.15,-12.49 -3.71,-17.94c1.24,5.33 2.34,11.19 4.95,16c2.47,4.55 6.67,8.13 10.52,11.62c-4.24,-2.71 -9.25,-5.12 -11.78,-9.63l0.02,-0.05zm-3.47,-17.64a255.72,255.72 0 0 1 15.18,26.98c-3.83,-3.6 -8,-7.11 -10.46,-11.78s-3.35,-10.09 -4.74,-15.15l0.02,-0.05zm15.33,27.07a199.84,199.84 0 0 0 -14.78,-26.43a80.24,80.24 0 0 1 14.77,25.4c0.11,0.46 0.24,0.92 0.37,1.37l-0.36,-0.34zm-2,11.16a25.63,25.63 0 0 0 -2.43,-2.65l0,0a0.24,0.24 0 0 0 -0.17,-0.06a0.33,0.33 0 0 0 -0.35,0.48c-0.3,0.86 -0.56,1.71 -0.79,2.55l1,-0.08c0.06,-0.4 0.11,-0.79 0.16,-1.19c0,0.08 0.05,0.16 0.07,0.24c0,0.31 0,0.62 -0.05,0.93l0.21,0c0,-0.15 0,-0.3 0,-0.45c0,0.15 0.09,0.29 0.13,0.44l0.27,0c-0.14,-0.42 -0.29,-0.84 -0.45,-1.25c0,-0.07 0,-0.14 0,-0.21c0.2,0.49 0.41,1 0.64,1.45l0.21,0c-0.16,-0.31 -0.31,-0.62 -0.46,-0.93l0.61,0.92l1.4,-0.19zm-16,-2.39c0.32,1.37 0.57,2.4 0.72,3c0.12,0.2 0.23,0.4 0.33,0.61l1.34,-0.11a16.38,16.38 0 0 0 -2.42,-3.45l0.03,-0.05zm1.14,-64.79a0.79,0.79 0 0 0 0,-0.09c0.11,-0.14 0.23,-0.29 0.33,-0.44c-0.23,-0.15 -0.47,-0.29 -0.7,-0.42l-0.92,1.32a19.11,19.11 0 0 0 -9.19,10.84c0.07,1 0.15,2 0.25,3c0.16,-0.66 0.32,-1.31 0.5,-2c1.44,-5.38 4.53,-8.07 8.54,-11.25a0.36,0.36 0 0 0 0.23,0a0.28,0.28 0 0 0 0.19,-0.12c0,0.11 0.05,0.21 0.07,0.32c1.05,4.74 1.24,10 -1.79,14a35.44,35.44 0 0 1 -6.91,6.3c0.05,0.38 0.1,0.76 0.16,1.15c3.49,-2.17 7.17,-4.8 8.91,-8.23c2.16,-4.31 1.36,-9.76 0.3,-14.33l0.03,-0.05zm-0.15,0.51c0.09,-0.08 0,-0.23 -0.14,-0.15l-0.44,0.4c0,-0.24 0,-0.48 0.05,-0.72a0.08,0.08 0 0 0 -0.15,0c0,0.29 -0.05,0.58 -0.08,0.88l-0.09,0.09a32.84,32.84 0 0 0 -9.14,14.58c0,0.13 0,0.26 0,0.39a31.44,31.44 0 0 1 2.07,-5.23a36,36 0 0 1 7.09,-9.51c0,0.05 0,0.11 0,0.16a48.62,48.62 0 0 0 -5.27,9l0,0a54.11,54.11 0 0 1 5.25,-8.94c-0.38,4.26 -0.93,8.45 -3.08,12.27a35.59,35.59 0 0 1 -5.49,7a2.51,2.51 0 0 0 0,0.27a29.81,29.81 0 0 0 6.08,-7.85c1.86,-3.69 2.38,-7.88 2.65,-12l0,0l0.12,-0.16s0,-0.07 -0.06,0l-0.07,0.11l0,-0.06l0.7,-0.53zm-7.59,12.89c-0.73,1.46 -1.46,2.91 -2.16,4.38c0,0.12 0,0.23 0,0.35c0.69,-1.58 1.39,-3.16 2.16,-4.71c0.02,0.03 -0.02,0 -0.03,0.03l0.03,-0.05z" opacity="0.1"/>
    <path d="m387,374.71c8.42,-1.4 31.36,-4.55 46.53,-4.64c0.09,0 0.13,0.35 0,0.36c-12.61,2 -38,4.13 -46.51,4.79c-0.11,0.02 -0.17,-0.49 -0.02,-0.51z" fill="#263238"/>
    <path d="m392.51,383q-3.37,0 -6.74,0.14l0.43,0.32c-1,-6.07 -2.27,-12.08 -3.63,-18.07s-2.86,-12 -4.65,-17.86c0.84,6.1 2,12.14 3.23,18.16s2.66,12 4.25,17.95l0.09,0.37l0.34,-0.05c2.23,-0.28 4.46,-0.59 6.68,-0.96z" fill="#263238"/>
    <path d="m380.38,359.56a16.84,16.84 0 0 0 -1.52,-3.6a24.62,24.62 0 0 0 -2.15,-3.28a7,7 0 0 0 0.46,1.93a11.48,11.48 0 0 0 0.82,1.78a12.53,12.53 0 0 0 2.39,3.17z" fill="#263238"/>
    <path d="m377.24,318.15c-0.29,2.61 -10.45,20.52 -22.1,21.35c-3.8,0.26 -6.16,-20.42 -6.16,-20.42l-0.53,-1.49l-7.31,-20.82l23.19,-19.08l3.37,-2.57s1.62,5.83 3.57,13.11c0.1,0.34 0.19,0.67 0.28,1s0.24,0.79 0.34,1.18c0.3,1.08 0.61,2.19 0.89,3.3c0.22,0.84 0.44,1.66 0.63,2.55s0.42,1.77 0.64,2.66c1.95,8.88 3.3,18.13 3.19,19.23z" fill="#d3766a"/>
    <path d="m371.27,288.23a44.2,44.2 0 0 1 -22.82,29.36l-7.31,-20.82l23.19,-19.08l3.37,-2.57s1.62,5.88 3.57,13.11z" fill="#263238"/>
    <path d="m373.47,279a8.16,8.16 0 0 1 1.54,2.78c1.47,4.63 -0.6,9.39 -3.2,13.16c-2.79,4 -6.71,7.67 -8.06,12.49a8.08,8.08 0 0 0 0.24,5.75c1,2 3,3 5.05,3.59s4.87,0.88 6.35,2.81a6.32,6.32 0 0 1 0.62,5.69c-1.48,4.79 -6.64,7.29 -9.71,11a25.44,25.44 0 0 0 -5.86,13.83a24.69,24.69 0 0 0 2.75,13.81a24.21,24.21 0 0 0 4.05,5.67c1.81,1.86 4,3.3 5.89,5.07s3.41,3.87 3.34,6.4c0,1.95 -4,8 -12.29,11c-0.59,0.21 -0.17,1.27 0.51,1.27a31.88,31.88 0 0 0 3.91,-0.17a34,34 0 0 0 26,-16.88a35.41,35.41 0 0 0 4.52,-16.5c0.08,-3.21 -0.1,-6.46 0.52,-9.63a17.81,17.81 0 0 1 3.67,-7.55c3.37,-4.25 7.73,-7.65 10.36,-12.48a29.8,29.8 0 0 0 3.44,-14.15a35.23,35.23 0 0 0 -12.5,-26.54c-7.68,-6.63 -31.52,-10.88 -31.14,-10.42z" fill="#263238"/>
    <path d="m373.68,279.26a13.76,13.76 0 0 1 2.41,5.77a11.41,11.41 0 0 1 -0.82,5.6c-1.58,4 -4.62,7 -7.53,10c-2.73,2.85 -5.48,6 -6.11,10.05a9.33,9.33 0 0 0 0.54,5.15a7.26,7.26 0 0 0 4.13,3.71c3.28,1.33 7.85,2 9.11,5.87s-1.92,7.41 -4.17,10.05c-5.49,6.45 -13.57,14 -11.39,23.43c1.11,4.77 4.24,9.24 7.43,12.86c2.3,2.62 5.24,5.9 4.62,9.67c0,0.14 -0.23,0.07 -0.21,-0.06c0.59,-4 -2.92,-6.78 -5.39,-9.35a33.27,33.27 0 0 1 -7,-10.5a16.16,16.16 0 0 1 0.25,-12.24c1.64,-4.05 4.38,-7.44 7.26,-10.67c1.48,-1.66 3,-3.29 4.42,-5a13.67,13.67 0 0 0 3.09,-5.17a4.72,4.72 0 0 0 -2,-5.23c-1.73,-1.19 -3.78,-1.64 -5.72,-2.37a9.49,9.49 0 0 1 -4.48,-3.05a8.71,8.71 0 0 1 -1.6,-4.14a13.72,13.72 0 0 1 2.73,-9.52c2.78,-3.9 6.78,-6.77 9.49,-10.72a13.76,13.76 0 0 0 2.64,-6.83c0.15,-2.61 -1,-4.8 -2.12,-7.06a0.26,0.26 0 0 1 0.42,-0.25z" fill="#263238"/>
    <path d="m409.05,289.3c7.92,6.55 11,17.39 9.2,27.3a35.53,35.53 0 0 1 -6.94,15.16c-3.19,4.16 -7,8 -9.28,12.79c-2.49,5.32 -1.62,11.06 -1.61,16.73a31.65,31.65 0 0 1 -2.86,13.27a33.78,33.78 0 0 1 -18.88,17.51a29.82,29.82 0 0 1 -3.21,1a0.11,0.11 0 1 1 -0.05,-0.21c8.57,-2.28 15.73,-8.59 19.84,-16.36a31.75,31.75 0 0 0 3.62,-12.36c0.41,-5.34 -0.76,-10.73 0.35,-16c1,-5 4.27,-9.05 7.45,-12.85c3.48,-4.15 6.88,-8.26 8.81,-13.39c3.59,-9.52 2.35,-20.68 -4.26,-28.61c-7.38,-8.85 -19.07,-11.49 -30,-12.6l-4.39,-0.43c-0.16,0 -0.17,-0.27 0,-0.26c11.16,0.57 23.26,1.91 32.21,9.31z" fill="#263238"/>
    <path d="m375.64,273.3c1.7,0.38 3.56,2.13 3.59,3.3s-5.47,8.38 -7.72,8.56s-3.18,-3.89 -3.18,-3.89l7.31,-7.97z" fill="#407BFF"/>
    <path d="m306.52,269c4.07,38.51 27.58,40.44 35.87,39.56c7.53,-0.8 33.07,-4.47 33,-43.2s-19.24,-49 -36.56,-48.1s-36.38,13.24 -32.31,51.74z" fill="#d3766a"/>
    <path d="m310.76,264.86a24,24 0 0 0 2.49,-0.94a4.23,4.23 0 0 0 2.35,-1.43a1.37,1.37 0 0 0 -0.25,-1.65a3.39,3.39 0 0 0 -3.43,-0.28a5,5 0 0 0 -2.83,2.21a1.46,1.46 0 0 0 1.67,2.09z" fill="#263238"/>
    <path d="m336.84,260.8a26.18,26.18 0 0 1 -2.66,-0.15a4.33,4.33 0 0 1 -2.68,-0.67a1.38,1.38 0 0 1 -0.24,-1.66a3.4,3.4 0 0 1 3.18,-1.29a5,5 0 0 1 3.36,1.28a1.46,1.46 0 0 1 -0.96,2.49z" fill="#263238"/>
    <path d="m332.23,271.05c0,-0.1 0.22,0.1 0.23,0.21c0.25,2.61 1,5.55 3.44,6.11c0.08,0 0.09,0.15 0,0.15c-2.9,-0.03 -3.85,-3.95 -3.67,-6.47z" fill="#263238"/>
    <path d="m334.2,268c4.14,-0.86 5.55,7.48 1.71,8.28s-5.18,-7.52 -1.71,-8.28z" fill="#263238"/>
    <path d="m335.91,268.2c0.81,0.35 1.67,1.07 2.56,1s1.65,-1.07 2.18,-2c0.05,-0.1 0.13,0 0.15,0.07c0.3,1.6 0,3.34 -1.71,3.87s-2.89,-0.75 -3.56,-2.29c-0.12,-0.3 0.06,-0.79 0.38,-0.65z" fill="#263238"/>
    <path d="m317.78,272.93c0,-0.09 -0.18,0.16 -0.16,0.26c0.54,2.57 0.72,5.6 -1.46,6.87c-0.07,0 0,0.17 0,0.14c2.84,-0.91 2.54,-4.92 1.62,-7.27z" fill="#263238"/>
    <path d="m315,270.64c-4.21,0.42 -3.06,8.8 0.83,8.42s2.69,-8.77 -0.83,-8.42z" fill="#263238"/>
    <path d="m313.33,271.43c-0.61,0.54 -1.15,1.43 -1.94,1.6s-1.71,-0.63 -2.41,-1.42c-0.07,-0.08 -0.13,0 -0.12,0.11c0.18,1.6 0.94,3.2 2.52,3.3s2.28,-1.43 2.44,-3.08c0.04,-0.3 -0.25,-0.72 -0.49,-0.51z" fill="#263238"/>
    <path d="m338.09,290c-0.42,0.77 -0.77,1.77 -1.65,2.13a7,7 0 0 1 -2.89,0.2c-0.08,0 -0.14,0.11 -0.06,0.16a3.52,3.52 0 0 0 3.59,0.38a2.79,2.79 0 0 0 1.28,-2.83c0,-0.14 -0.21,-0.13 -0.27,-0.04z" fill="#263238"/>
    <path d="m325.25,284.23s0.42,3.93 0.87,5.72c0,0.17 0.49,0.14 1.11,0c0,0 0,0 0.07,0a8.79,8.79 0 0 0 7.48,-5.25c0.08,-0.21 -0.2,-0.33 -0.33,-0.18a13.28,13.28 0 0 1 -7.22,4.17c-0.25,-0.47 -0.5,-6.75 -0.79,-6.7a16.07,16.07 0 0 0 -3.84,1.93c-1.12,-8.15 -0.92,-16.42 -2.15,-24.53a0.25,0.25 0 0 0 -0.5,0c-0.82,8.65 0.26,18.07 1.2,26.52c0.11,1.09 3.46,-1.2 4.1,-1.68z" fill="#263238"/>
    <path d="m321.53,231.36s0.12,6.09 3.22,9.63c6.38,7.28 15.85,2.21 20.24,4.56c4.11,2.2 4.81,9 8.62,11.28c5.28,3.17 10.32,-0.07 11.81,2.65s5.92,8.83 9.95,9s5.17,-64.45 -44.43,-51a33.92,33.92 0 0 0 -16,8.1c-9.55,9.11 -9.09,31.23 -9.09,31.23s0.16,-0.33 1.4,-2.26c1.75,-2.72 2.11,-4.88 3.43,-6.7c2.09,-2.86 3.79,-2.48 6,-5.32c3.32,-4.4 4.85,-11.17 4.85,-11.17z" fill="#263238"/>
    <path d="m321.51,228.47a34,34 0 0 0 0.69,7.81a14.08,14.08 0 0 0 3.06,6.91a10.37,10.37 0 0 0 6.74,2.81c2.53,0.2 5.13,-0.27 7.88,0a7.78,7.78 0 0 1 3.92,1.52a10.58,10.58 0 0 1 2.47,3.33c1.21,2.34 2.43,4.64 4.57,5.95a8.64,8.64 0 0 0 7.24,0.89c2.43,-0.68 4.92,-2.13 7.6,-1.73c-2.7,-0.18 -4.94,1.4 -7.42,2.31a9.38,9.38 0 0 1 -7.9,-0.65c-2.52,-1.35 -3.85,-4 -5.07,-6.23a9.41,9.41 0 0 0 -2.23,-2.94a6.61,6.61 0 0 0 -3.33,-1.22c-2.48,-0.31 -5.12,0.12 -7.82,-0.12a13.41,13.41 0 0 1 -4,-0.92a8.18,8.18 0 0 1 -3.41,-2.32a14.86,14.86 0 0 1 -2.95,-7.46a33.77,33.77 0 0 1 -0.04,-7.94z" fill="#263238"/>
    <path d="m321.21,230.94a27.49,27.49 0 0 1 -0.45,7.34a12.87,12.87 0 0 1 -3.33,6.71a18,18 0 0 1 -3,2.25a5.91,5.91 0 0 0 -2.11,2.49a19,19 0 0 1 -1.29,3.46a8.15,8.15 0 0 1 -2.56,2.66a9,9 0 0 0 2,-2.93a18.08,18.08 0 0 0 0.93,-3.48a6.3,6.3 0 0 1 2.32,-3.13a20.78,20.78 0 0 0 2.79,-2.18a13.75,13.75 0 0 0 3.23,-6.09a53.42,53.42 0 0 0 1.47,-7.1z" fill="#263238"/>
    <path d="m368.79,269s6,-13.47 11.94,-11.55s3.06,20.32 -2.8,23.9a6.54,6.54 0 0 1 -9.28,-1.79l0.14,-10.56z" fill="#d3766a"/>
    <path d="m379.77,262.68c0.1,0 0.14,0.11 0.06,0.16c-4.08,2.65 -5.61,7.21 -6.41,11.79c1,-1.9 2.61,-3.14 5.11,-2c0.13,0.06 0.06,0.26 -0.07,0.26a4,4 0 0 0 -4.08,2.22a19.35,19.35 0 0 0 -1.38,3.89c-0.13,0.43 -0.89,0.36 -0.82,-0.13c0,0 0,-0.07 0,-0.1c-1.18,-5.59 1.64,-14.35 7.59,-16.09z" fill="#263238"/>
    <path d="m460.06,467.6c-13,7.84 -56.75,2.74 -115.28,-10.57c-8.1,-1.84 11.22,-58 20,-56.45c11,1.92 53.37,11.75 56.38,12.86c25.33,9.36 47.69,48.84 38.9,54.16z" fill="#d3766a"/>
    <path d="m379.7,406.06s-3.52,-1.3 -21,-11.19c-12.08,-6.84 -45.89,-15.77 -76.16,8.84c-11.6,9.44 -10.05,21.69 3.74,14c9.71,-5.4 16,-10 19.64,-10.84c0,0 -6.49,15.72 -1.24,24.06a183.33,183.33 0 0 0 15.32,20.86a38.69,38.69 0 0 0 4.15,-2.51a20.73,20.73 0 0 0 20.63,7.72l34.92,-50.94z" fill="#d3766a"/>
    <path d="m346.13,390.19c-7.13,1.46 -22.13,4.81 -33.54,11.81c-12.62,7.8 -34.82,26.25 -29,35.5c4.29,6.79 13.39,0.49 13.39,0.49s-7.57,9.56 -2.35,14.84c4.76,4.82 11.51,-0.48 11.51,-0.48s-3.6,6.59 1.88,10.34c6.58,4.52 13,-10 23.66,-11.22c2.43,-0.23 14.45,-61.28 14.45,-61.28z" fill="#d3766a"/>
    <path d="m323.06,414c-6.47,2.48 -19.74,11.88 -26.06,23.74c-0.14,0.26 0,0.52 0.17,0.3a145.65,145.65 0 0 1 26,-23.92c0.03,-0.05 -0.03,-0.12 -0.11,-0.12z" fill="#263238"/>
    <path d="m330.58,427c-5.37,2.71 -18.62,13 -24.6,25.24c-0.14,0.28 0,0.52 0.18,0.3a155.19,155.19 0 0 1 24.5,-25.42c0.06,-0.12 -0.02,-0.19 -0.08,-0.12z" fill="#263238"/>
    <path d="m306.16,452.5a12.77,12.77 0 0 1 -6.74,2.35a6.79,6.79 0 0 1 -6.06,-3.49a7.28,7.28 0 0 1 -0.72,-3.59a13.69,13.69 0 0 1 0.76,-3.58a22.44,22.44 0 0 1 3.55,-6.35l0.39,0.43a17.35,17.35 0 0 1 -6.34,2.73a8.26,8.26 0 0 1 -3.5,0a6.45,6.45 0 0 1 -3.07,-1.78a7.48,7.48 0 0 1 -1.78,-3.07a8.76,8.76 0 0 1 -0.2,-3.53a17.29,17.29 0 0 1 2.56,-6.42a31.32,31.32 0 0 1 4.3,-5.35c1.57,-1.63 3.19,-3.22 4.83,-4.78a125.33,125.33 0 0 1 10.26,-9l0.49,0.85a99.45,99.45 0 0 0 -9.7,5c-1.57,0.92 -3.07,1.91 -4.54,3a32.4,32.4 0 0 1 -4.76,2.88a19.37,19.37 0 0 1 -5.3,1.78a8.51,8.51 0 0 1 -2.89,0a4.23,4.23 0 0 1 -2.54,-1.55a4.73,4.73 0 0 1 -0.95,-2.8a8,8 0 0 1 0.47,-2.84a17.5,17.5 0 0 1 2.75,-4.86a37.87,37.87 0 0 1 8.13,-7.46a78.83,78.83 0 0 1 9.38,-5.72a64.43,64.43 0 0 1 20.78,-6.77a64.24,64.24 0 0 0 -20.54,7.21a78.35,78.35 0 0 0 -9.25,5.8a37.2,37.2 0 0 0 -7.87,7.41a16.52,16.52 0 0 0 -2.57,4.66c-0.58,1.63 -0.67,3.54 0.36,4.83s2.9,1.5 4.6,1.23a18,18 0 0 0 5,-1.72a30.92,30.92 0 0 0 4.6,-2.81a54,54 0 0 1 4.61,-3.05a89.62,89.62 0 0 1 9.8,-5l4,-1.77l-3.46,2.47a128.74,128.74 0 0 0 -10.2,8.83q-2.46,2.32 -4.82,4.74a29.89,29.89 0 0 0 -4.21,5.19a16.35,16.35 0 0 0 -2.46,6.07a8,8 0 0 0 0.14,3.19a6.58,6.58 0 0 0 1.55,2.76a5.73,5.73 0 0 0 2.69,1.61a7.59,7.59 0 0 0 3.22,0.07a16.72,16.72 0 0 0 6.1,-2.51l1.55,-1l-1.16,1.42a22.46,22.46 0 0 0 -3.53,6.14a13.57,13.57 0 0 0 -0.81,3.44a6.87,6.87 0 0 0 0.61,3.41a6.55,6.55 0 0 0 5.76,3.48a12.71,12.71 0 0 0 6.73,-2.18z" fill="#263238"/>
    <path d="m441.59,428.86c-2,-2.25 -7.79,-9.37 -17,-14c-8.06,-4 -19.53,-6.17 -25.51,-6.89c-0.15,0 -0.22,0.15 -0.07,0.2c5.16,1.76 15.67,4 24.3,8.16a76.06,76.06 0 0 1 18.12,12.67c0.1,0.09 0.25,0 0.16,-0.14z" fill="#263238"/>
   </g>
   <g id="svg_20">
    <path d="m224.57,243.39a36.29,36.29 0 0 0 57.93,29.15l17.78,4.54l-7.4,-16.56a36.3,36.3 0 1 0 -68.31,-17.13z" fill="#fff"/>
    <path d="m224.57,243.39a36.55,36.55 0 0 0 5.47,19a40,40 0 0 0 2.89,4.07a40.7,40.7 0 0 0 3.48,3.59c0.64,0.54 1.2,1.16 1.89,1.64l2,1.48c0.67,0.5 1.42,0.88 2.12,1.32l1.07,0.64c0.37,0.21 0.75,0.37 1.13,0.55c0.75,0.35 1.5,0.72 2.26,1.06l2.34,0.85a18.25,18.25 0 0 0 2.4,0.69c0.81,0.19 1.6,0.45 2.42,0.56a34.53,34.53 0 0 0 4.95,0.54a29.57,29.57 0 0 0 5,-0.07a36.12,36.12 0 0 0 9.66,-2.25a36.86,36.86 0 0 0 8.65,-4.82l0.13,-0.1l0.17,0l17.8,4.46l-0.51,0.61l-7.44,-16.55l-0.1,-0.21l0.12,-0.21a35.94,35.94 0 0 0 1.19,-31.41a37.41,37.41 0 0 0 -9.65,-13a35.88,35.88 0 0 0 -14.37,-7.44a36.3,36.3 0 0 0 -16.23,-0.43a36.18,36.18 0 0 0 -28.83,35.34l-0.01,0.09zm0,0a36.47,36.47 0 0 1 14,-28.65a36.17,36.17 0 0 1 31.19,-6.74a36.47,36.47 0 0 1 14.72,7.4a36.64,36.64 0 0 1 13.15,29.42a36.08,36.08 0 0 1 -4.33,16l0,-0.43l7.36,16.58l0.37,0.83l-0.88,-0.23l-17.76,-4.62l0.3,-0.06a36.32,36.32 0 0 1 -18.69,7a32.62,32.62 0 0 1 -5,0a36.55,36.55 0 0 1 -5,-0.61c-0.83,-0.12 -1.63,-0.4 -2.45,-0.59a20.11,20.11 0 0 1 -2.4,-0.73l-2.36,-0.88c-0.76,-0.35 -1.51,-0.74 -2.26,-1.1c-0.37,-0.19 -0.76,-0.36 -1.12,-0.56l-1.07,-0.66c-0.71,-0.46 -1.45,-0.85 -2.12,-1.35l-2,-1.52a22.66,22.66 0 0 1 -1.89,-1.64a41,41 0 0 1 -3.48,-3.62a42,42 0 0 1 -2.88,-4.11a36.48,36.48 0 0 1 -5.4,-19.13z" fill="#263238"/>
    <path d="m244.12,226.87a11.93,11.93 0 1 0 16.87,0a11.92,11.92 0 0 0 -16.87,0zm2.42,2.43a2.23,2.23 0 1 1 0,3.16a2.23,2.23 0 0 1 0,-3.16z" fill="#407BFF"/>
    <rect fill="#407BFF" height="10.95" transform="translate(272.21 598.33) rotate(-135)" width="3.61" x="258.22" y="237.31"/>
    <polygon fill="#ebebeb" points="263.94 241.42 258.69 246.67 259.98 247.96 262.15 247.29 261.48 249.46 263.61 251.59 266.5 251 265.9 253.88 266.38 254.36 268.55 253.69 267.88 255.86 270.06 255.19 269.38 257.37 271.08 259.06 273.96 258.46 273.36 261.34 274.84 262.82 280.69 263.41 280.09 257.57 263.94 241.42"/>
    <rect fill="#dbdbdb" height="0.51" transform="translate(282.15 621.14) rotate(-135)" width="21.28" x="259.07" y="251.88"/>
    <path d="m242.18,235.31a10.42,10.42 0 0 0 3.06,7.31a10.26,10.26 0 0 0 14.5,-0.12a10.27,10.27 0 0 0 0,-14.37a10.27,10.27 0 0 0 -14.5,-0.13a10.42,10.42 0 0 0 -3.06,7.31zm0,0a10.48,10.48 0 0 1 10.37,-10.49a10.49,10.49 0 1 1 -10.37,10.49z" opacity="0.1"/>
   </g>
   <g id="svg_19">
    <rect fill="#455a64" height="6.02" width="134.27" x="234.13" y="459.24"/>
    <rect fill="#37474f" height="6.02" width="67.58" x="234.13" y="459.24"/>
    <polygon fill="#37474f" points="297.61 465.25 166.75 465.25 149.65 376.38 280.5 376.38 297.61 465.25"/>
    <polygon fill="#455a64" points="292.29 465.25 161.43 465.25 144.32 376.38 275.18 376.38 292.29 465.25"/>
    <path d="m226.27,420.82a7.19,7.19 0 0 1 -7.27,8a8.86,8.86 0 0 1 -8.66,-8a7.18,7.18 0 0 1 7.27,-8a8.87,8.87 0 0 1 8.66,8z" fill="#fff"/>
   </g>
  </symbol>
 </defs>
 <g class="layer">
  <title>Layer 1</title>
  <use id="svg_27" transform="matrix(1.14058 0 0 1.14058 -196.313 -596.119)" x="136.96" xlink:href="#svg_26" y="496.4"/>
 </g>
</svg>